<svg width="61" height="61" viewBox="0 0 61 61" fill="none" xmlns="http://www.w3.org/2000/svg">
<path d="M58.0762 33.9125C56.5661 30.3425 54.4061 27.1325 51.6562 24.3826C49.0762 21.8026 46.0961 19.7425 42.7862 18.2525C42.5662 18.1525 42.3461 18.0526 42.1262 17.9626C38.4761 16.4225 34.6061 15.6226 30.6361 15.6025C38.7562 15.7025 45.3362 22.2725 45.4361 30.4025C45.4361 30.4726 45.4361 30.5326 45.4361 30.6026C45.4361 30.6725 45.4361 30.7325 45.4361 30.8026C45.4162 34.7825 44.6162 38.6426 43.0762 42.2926C42.5962 43.4426 42.0461 44.5426 41.4262 45.6125C40.1261 47.8726 38.5262 49.9526 36.6562 51.8225C33.9061 54.5726 30.6961 56.7326 27.1261 58.2425C25.7662 58.8226 24.3661 59.2925 22.9462 59.6626C20.5061 60.2926 17.9962 60.6125 15.4462 60.6125H30.4462C34.4861 60.6125 38.4161 59.8226 42.1262 58.2526C45.6962 56.7425 48.9062 54.5825 51.6562 51.8326C53.5262 49.9625 55.1162 47.8826 56.4262 45.6226C57.0461 44.5526 57.5962 43.4426 58.0762 42.3026C58.6562 40.9426 59.1262 39.5426 59.4962 38.1226C59.1362 36.7025 58.6562 35.3026 58.0762 33.9125Z" fill="url(#paint0_linear_31_332)" stroke="#222831" stroke-width="0.0386847" stroke-miterlimit="10"/>
<path d="M30.4461 45.6324H15.4461V15.6323C7.22605 15.6323 0.556045 22.2423 0.446045 30.4323C0.446045 30.5024 0.446045 30.5624 0.446045 30.6323V60.6324H15.456C18.006 60.6324 20.5161 60.3123 22.956 59.6823C24.3761 59.3124 25.7661 58.8423 27.1361 58.2624C30.7061 56.7524 33.9161 54.5924 36.666 51.8424C38.5361 49.9724 40.1261 47.8923 41.436 45.6324C42.0561 44.5623 42.606 43.4523 43.086 42.3123C44.6261 38.6624 45.4261 34.7924 45.4461 30.8223C45.3361 39.0123 38.6661 45.6224 30.4461 45.6324Z" fill="url(#paint1_linear_31_332)" stroke="#222831" stroke-width="0.0386847" stroke-miterlimit="10"/>
<path d="M58.0761 18.9423C57.5961 17.7923 57.0461 16.6923 56.4261 15.6224C55.1261 13.3623 53.5261 11.2823 51.6561 9.41234C48.9061 6.66233 45.696 4.50233 42.126 2.99232C38.4161 1.42232 34.4861 0.632324 30.4461 0.632324H0.446045C0.446045 1.93232 0.60604 3.18233 0.916041 4.38233C1.76604 7.72233 3.75605 10.6123 6.43605 12.6323C8.93605 14.5124 12.0561 15.6323 15.4361 15.6323H30.4361C30.5061 15.6323 30.5661 15.6323 30.636 15.6323C34.6161 15.6524 38.4761 16.4523 42.126 17.9924C42.3461 18.0824 42.5661 18.1823 42.786 18.2823C46.0961 19.7723 49.0761 21.8324 51.6561 24.4124C54.4061 27.1623 56.5661 30.3723 58.0761 33.9423C58.6561 35.3024 59.1261 36.7023 59.4961 38.1224C60.1261 35.6823 60.4461 33.1724 60.4461 30.6224C60.4461 26.5824 59.6561 22.6523 58.0761 18.9423Z" fill="url(#paint2_linear_31_332)" stroke="#222831" stroke-width="0.0386847" stroke-miterlimit="10"/>
<defs>
<linearGradient id="paint0_linear_31_332" x1="59.4862" y1="15.6325" x2="13.1062" y2="60.6326" gradientUnits="userSpaceOnUse">
<stop offset="0.179092" stop-color="#00ADB5"/>
<stop offset="1" stop-color="#EEEEEE"/>
</linearGradient>
<linearGradient id="paint1_linear_31_332" x1="30.2661" y1="44.6124" x2="-4.35396" y2="21.5123" gradientUnits="userSpaceOnUse">
<stop stop-color="#00ADB5"/>
<stop offset="1" stop-color="#EEEEEE"/>
</linearGradient>
<linearGradient id="paint2_linear_31_332" x1="16.8861" y1="0.632324" x2="65.4261" y2="45.0924" gradientUnits="userSpaceOnUse">
<stop stop-color="#00ADB5"/>
<stop offset="1" stop-color="#EEEEEE"/>
</linearGradient>
</defs>
</svg>
