<svg width="1160" height="1400" viewBox="0 0 1160 1400" fill="none" xmlns="http://www.w3.org/2000/svg">
<path d="M611.151 534.218L605.133 542.261C605.133 542.261 606.804 562.034 625.527 574.77C644.249 587.505 664.309 585.494 664.309 585.494L677.014 563.04L611.485 532.877" fill="black"/>
<path d="M710.781 426.637C683.366 428.983 669.324 432.67 653.611 455.124C637.563 477.579 625.527 504.725 619.509 513.439C613.491 521.817 605.133 526.845 611.151 534.218C617.169 541.591 623.855 565.051 653.611 572.759C683.366 580.132 685.706 566.727 687.712 558.348C689.718 549.969 711.115 505.731 711.115 505.731V426.637H710.781Z" fill="#FF0000"/>
<path opacity="0.2" d="M710.781 426.637C683.366 428.983 669.324 432.67 653.611 455.124C637.563 477.579 625.527 504.725 619.509 513.439C613.491 521.817 605.133 526.845 611.151 534.218C617.169 541.591 623.855 565.051 653.611 572.759C683.366 580.132 685.706 566.727 687.712 558.348C689.718 549.969 711.115 505.731 711.115 505.731V426.637H710.781Z" fill="black"/>
<path d="M626.863 725.249C678.01 725.249 719.473 683.685 719.473 632.414C719.473 581.143 678.01 539.58 626.863 539.58C575.717 539.58 534.254 581.143 534.254 632.414C534.254 683.685 575.717 725.249 626.863 725.249Z" fill="#FF0000"/>
<path opacity="0.5" d="M626.863 725.249C678.01 725.249 719.473 683.685 719.473 632.414C719.473 581.143 678.01 539.58 626.863 539.58C575.717 539.58 534.254 581.143 534.254 632.414C534.254 683.685 575.717 725.249 626.863 725.249Z" fill="white" fill-opacity="0.5"/>
<path d="M535.594 642.134C538.937 636.437 543.618 630.739 549.97 628.393C551.976 627.723 553.648 627.388 555.32 627.388C557.326 618.339 559.666 609.625 563.678 601.582C562.006 599.906 560.335 598.23 558.997 596.555C555.32 592.533 551.642 588.176 548.299 583.484C548.967 582.479 549.636 581.473 550.305 580.133C553.648 584.154 556.657 588.176 560 592.198C561.672 594.209 563.678 596.219 565.349 598.23C566.352 596.219 567.355 594.544 568.358 592.533C572.705 585.495 577.72 578.792 583.403 573.095C579.057 567.732 577.385 560.694 578.054 553.656C579.391 552.651 581.063 551.981 582.4 550.975C581.063 557.343 582.4 565.051 586.412 570.078C591.093 565.386 596.442 561.365 601.792 557.343C612.49 549.97 623.857 544.272 636.227 539.916C638.568 540.251 640.908 540.586 643.248 540.921C623.189 547.624 604.132 558.013 589.087 572.759C590.424 574.1 592.096 574.77 593.768 575.441C601.123 578.122 609.815 575.776 617.171 575.105C625.529 574.1 633.553 573.095 641.911 572.424C657.959 570.749 674.007 570.078 690.055 572.424C693.064 572.759 696.073 573.43 699.082 574.1C700.085 575.441 701.088 576.781 702.091 577.787C697.744 576.781 693.064 575.776 688.717 575.441C672.001 573.43 654.95 574.77 638.233 576.446C629.875 577.452 621.517 578.457 613.159 579.127C605.803 579.797 597.78 581.138 590.759 578.122C589.087 577.452 587.75 576.446 586.747 575.441C583.069 579.462 579.391 583.484 576.382 588.176C573.373 592.533 571.033 596.89 569.027 601.247C571.033 603.257 573.039 605.268 575.045 607.279C585.409 616.998 596.442 625.712 608.478 633.085C632.216 648.167 658.293 658.556 685.708 663.583C695.07 665.259 704.431 666.264 713.792 666.935C713.123 668.275 712.789 669.616 712.12 670.621C705.1 670.286 698.079 669.281 691.058 668.275C677.016 665.929 662.974 662.243 649.601 657.551C622.854 647.831 598.114 632.75 576.717 613.982C573.708 611.301 570.364 608.285 567.69 605.268C564.681 612.641 562.341 620.35 560.669 628.393C570.03 630.739 576.382 641.464 580.729 649.842C595.439 676.989 608.144 709.162 636.227 725.249C636.562 725.249 636.562 725.584 636.896 725.584C634.89 725.92 632.884 725.92 630.878 725.92C623.189 720.892 616.168 714.525 610.484 707.152C600.454 695.087 593.099 681.011 585.744 666.935C582.066 659.561 578.388 652.188 574.042 645.15C570.699 639.788 566.687 633.42 560.335 631.409H560C559.666 633.755 558.997 636.437 558.663 638.783C555.988 656.88 554.985 675.983 559.332 694.081C559.666 695.086 560 695.757 560 696.762C557.994 694.416 555.988 692.405 553.982 689.724C551.308 675.313 551.308 660.567 552.979 646.156C553.648 641.129 554.317 636.101 555.32 630.739C549.302 631.074 543.952 636.101 540.609 641.129C538.937 643.475 537.6 646.156 535.928 648.837C535.594 647.161 535.26 645.821 535.26 644.145C535.26 643.475 535.594 642.804 535.594 642.134Z" fill="#455A64"/>
<path d="M533.585 655.874C528.236 650.177 528.236 649.171 530.242 645.485C532.248 641.798 536.929 635.766 545.621 634.76C551.305 634.09 556.989 633.085 559.998 634.425C563.007 635.431 561.669 642.133 554.314 644.815C542.947 649.171 543.615 652.188 543.615 652.188C543.615 652.188 553.98 648.166 558.326 647.496C562.672 646.49 570.696 647.496 575.711 647.496C580.726 647.496 582.732 653.863 574.708 657.215C574.708 657.215 581.06 657.215 583.735 657.215C590.087 657.215 592.762 660.231 588.416 664.923C587.413 665.929 585.741 667.269 583.066 667.939C583.066 667.939 589.753 666.934 590.087 669.28C591.425 675.648 587.413 677.994 574.708 683.691C563.675 688.718 560.666 693.745 562.672 698.437L564.01 701.119C564.01 701.119 558.326 698.773 553.311 696.427C549.633 694.416 546.29 692.405 547.293 686.707C547.293 686.707 539.938 688.048 538.935 683.356C537.932 678.999 539.269 673.302 539.269 673.302C539.269 673.302 534.588 671.626 534.254 666.264C533.585 660.901 535.926 657.885 535.926 657.885L533.585 655.874Z" fill="#C8856A"/>
<path d="M574.706 656.879C572.031 656.879 569.357 656.544 566.348 657.215C563.339 657.885 560.998 659.561 558.658 660.901C553.977 663.917 549.631 666.934 545.619 670.62C550.634 668.609 555.315 665.928 559.995 662.912C562.336 661.571 564.342 659.896 566.682 658.89C569.357 658.22 572.031 657.885 574.706 656.879Z" fill="#AF6152"/>
<path d="M583.065 667.939C580.056 667.604 577.047 667.939 574.372 668.945C571.698 669.95 569.023 671.291 566.349 672.631C561.334 675.648 556.653 678.999 552.307 683.021C557.656 680.675 562.671 677.659 567.686 674.642C572.366 671.626 577.381 668.61 583.065 667.939Z" fill="#AF6152"/>
<path d="M613.156 1279.57C626.864 1270.19 640.237 1259.8 650.601 1246.73C656.285 1239.69 663.974 1230.31 665.98 1221.59C668.655 1210.2 667.986 1198.13 666.649 1186.4C657.288 1104.63 646.589 1025.2 642.243 979.957C640.905 966.216 639.902 897.512 642.243 830.148C644.583 753.736 660.631 677.994 664.643 664.253C672.332 703.8 736.858 702.124 821.444 659.896C835.151 652.858 851.868 647.161 866.244 646.49C881.958 670.956 891.987 690.394 895.331 722.233C897.671 743.682 900.011 780.212 899.343 822.775C897.337 927.675 898.005 935.718 898.674 957.168C899.677 983.644 899.677 987.665 903.689 1015.48C906.029 1032.91 913.719 1049.67 916.059 1102.95C917.397 1134.79 915.391 1168.64 920.405 1217.57C922.077 1228.97 924.752 1232.99 926.758 1244.38C930.77 1268.85 938.125 1292.65 942.471 1302.36C945.146 1307.73 948.489 1313.42 949.827 1319.12C951.164 1325.82 952.501 1332.53 952.836 1339.23C952.836 1347.61 951.164 1355.99 946.483 1362.69C944.143 1366.04 941.468 1368.72 938.459 1371.07C931.104 1377.44 922.746 1382.8 913.384 1384.47C907.701 1385.81 901.349 1385.48 895.665 1383.47C888.978 1381.12 885.635 1377.44 883.295 1370.73C878.948 1359.67 874.602 1347.94 873.934 1335.88C873.265 1326.83 872.931 1304.38 870.925 1289.96C867.581 1266.5 863.904 1246.4 852.536 1208.86C835.82 1153.23 821.778 1118.37 808.405 1073.8C794.697 1028.89 775.975 951.805 763.939 884.442L744.213 995.709C744.213 995.709 754.912 1028.89 751.903 1065.42C749.228 1098.26 737.861 1149.87 734.518 1191.77C733.181 1208.52 738.53 1223.61 741.204 1240.03C742.876 1249.41 743.545 1257.12 736.524 1264.16C729.503 1271.2 721.479 1276.89 711.783 1279.91C703.76 1282.59 698.41 1285.27 691.724 1290.3C685.706 1294.66 681.359 1300.69 676.01 1305.72C665.98 1315.43 652.607 1322.14 638.565 1324.15C624.523 1326.16 610.147 1323.81 597.443 1317.45C592.762 1315.1 588.081 1311.75 587.078 1306.72C586.41 1303.03 588.081 1299.01 590.422 1296C592.762 1292.98 596.105 1290.97 599.448 1288.62C603.795 1285.94 608.475 1282.93 613.156 1279.57Z" fill="#C8856A"/>
<path d="M763.268 884.777L748.558 772.839C748.558 772.839 696.737 751.39 685.035 728.265C685.035 728.265 686.038 754.071 733.179 782.893L752.904 885.112L743.209 996.044L763.268 884.777Z" fill="#AF6152"/>
<path d="M664.64 664.253C663.637 667.269 662.3 673.302 661.297 681.01C665.643 715.53 699.411 761.109 748.223 772.839C748.557 733.627 782.993 682.015 824.45 669.28C865.907 656.544 887.973 690.059 888.307 690.729C884.964 676.988 869.585 651.852 865.573 646.49C865.573 646.49 835.817 645.82 791.351 668.274C762.933 682.686 720.808 688.383 695.064 683.691C669.655 678.664 664.64 664.253 664.64 664.253Z" fill="#455A64"/>
<path d="M872.266 645.15C883.633 668.61 903.024 685.702 902.021 749.044C901.018 812.386 902.021 923.989 902.021 923.989C902.021 923.989 881.961 949.459 834.821 955.157C787.68 960.854 773.304 946.778 773.304 946.778L765.28 899.188L758.259 938.735C758.259 938.735 732.516 947.113 698.748 945.103C664.646 943.092 649.267 931.027 638.234 916.951C638.234 863.328 642.581 772.504 648.599 726.59C653.279 690.729 661.303 655.875 661.303 655.875L872.266 645.15Z" fill="#455A64"/>
<path d="M748.229 942.086L755.25 897.847L737.196 792.612C717.805 782.893 688.05 771.498 681.363 739.66C699.083 769.488 746.558 778.872 746.558 778.872C746.558 778.872 759.597 869.36 765.28 899.523L758.259 939.07C758.259 939.405 754.582 940.745 748.229 942.086Z" fill="#37474F"/>
<path d="M682.367 599.57C682.367 616.998 650.606 645.82 661.304 661.572C662.642 664.253 673.34 677.323 695.74 683.691C737.866 695.756 786.344 695.421 824.792 680.34C870.595 662.242 872.267 645.485 872.267 645.485C879.956 638.782 863.24 625.041 857.556 616.327C850.201 605.603 850.535 599.57 849.867 594.208C849.867 568.737 864.912 551.645 877.282 511.428C889.986 471.211 874.941 429.988 874.941 429.988C874.941 429.988 851.873 424.626 832.147 417.253C812.422 409.88 754.917 407.534 754.917 407.534C754.917 415.242 751.239 416.918 743.215 418.593C733.854 420.604 711.12 426.637 711.12 426.637C711.12 426.637 661.973 483.946 655.955 512.768C650.272 541.591 674.009 562.034 674.009 562.034C674.009 562.034 673.675 569.072 675.346 576.445C677.352 583.483 681.699 594.208 682.367 599.57Z" fill="#FF0000"/>
<path opacity="0.2" d="M728.17 493.665C730.845 485.622 734.523 477.914 738.535 470.205C738.869 469.87 738.869 470.541 738.869 470.541C735.191 477.914 732.182 485.622 729.508 493.33C726.833 501.374 725.161 509.417 722.821 517.461C722.821 517.796 722.152 517.796 722.152 517.125C722.821 509.752 725.496 501.374 728.17 493.665Z" fill="black"/>
<path d="M890.655 222.871C893.998 225.552 898.679 227.228 902.357 229.909C909.712 235.606 912.387 247.001 907.706 255.38C906.369 258.061 904.028 260.742 903.36 263.758C902.357 269.791 907.372 275.153 909.378 280.85C912.052 288.223 909.043 297.607 902.022 301.629C899.682 302.97 897.007 303.975 895.001 305.986C890.655 310.008 892.995 316.04 890.655 320.732C888.315 325.759 882.297 327.435 876.948 327.435C879.288 323.749 878.954 318.051 875.945 314.7C878.285 317.381 872.267 324.084 870.261 325.424C866.249 328.105 861.234 325.759 857.556 328.776C856.219 329.781 855.55 331.122 854.213 332.462C849.533 336.819 841.174 332.462 839.168 326.43C837.497 321.403 838.165 315.37 834.153 312.019C832.816 310.678 830.81 310.008 829.138 309.337C821.449 305.651 816.099 296.937 816.434 288.559C816.434 284.872 817.437 280.18 814.762 277.499C813.425 276.158 811.419 275.488 810.082 274.148C805.735 269.791 809.747 261.412 805.401 257.055C803.061 254.709 801.055 256.05 798.38 255.38C796.04 254.709 794.368 252.363 793.365 250.352C790.69 245.996 790.022 239.963 792.028 235.271C793.365 231.92 795.705 229.238 797.377 226.222C800.052 220.19 799.717 212.816 803.061 207.119C805.735 203.097 810.416 200.416 815.096 199.411C821.783 198.07 827.132 200.081 833.15 201.086C839.503 202.427 845.855 198.405 851.873 196.73C857.891 194.719 864.243 194.384 870.261 196.394C876.279 198.405 881.294 202.762 883.3 208.46C884.637 211.811 884.637 215.833 886.643 218.849C887.98 220.86 889.318 221.865 890.655 222.871Z" fill="#263238"/>
<path d="M851.539 245.326C858.56 251.358 863.24 260.072 865.246 269.121C865.581 271.467 865.915 274.148 864.912 276.494C863.24 279.845 858.894 281.521 855.216 281.186C851.539 280.516 848.196 278.17 845.521 275.488C839.837 269.791 836.16 261.748 835.157 253.704C834.822 250.018 835.157 243.985 838.834 241.639C842.846 238.958 848.195 242.309 851.539 245.326Z" fill="#FF0000"/>
<path d="M821.116 384.744C821.45 369.663 843.516 345.197 856.555 316.71C862.907 302.969 871.265 270.796 848.196 258.73C845.856 244.655 835.158 234.6 822.787 228.568C816.101 225.216 809.08 223.205 802.059 221.53C794.369 219.854 787.348 219.854 779.993 217.173C775.981 215.832 771.635 215.832 767.957 217.843C766.286 218.849 764.614 219.854 762.942 220.524C760.268 221.195 757.593 220.524 754.918 220.189C752.244 219.854 749.235 219.854 747.229 221.865C746.226 222.87 745.891 223.876 744.888 224.881C743.217 226.557 740.542 226.557 738.202 226.892C735.193 227.562 732.184 229.573 730.512 232.254C729.509 233.595 728.841 235.27 727.838 236.611C724.829 239.962 719.145 240.633 716.805 244.319C715.133 247 715.467 250.687 714.464 253.368C713.461 255.714 711.455 257.725 710.453 260.071C709.784 261.747 709.449 263.758 709.115 265.768C708.446 272.136 707.778 279.174 710.787 284.872C712.793 288.558 713.127 292.245 714.799 295.931C720.148 307.661 733.856 315.034 743.886 323.078C755.253 332.127 766.62 340.84 777.987 349.889C791.695 361.954 806.405 373.349 821.116 384.744Z" fill="#263238"/>
<path d="M851.545 326.765C843.187 316.376 831.486 318.722 825.802 327.435C820.118 336.149 811.091 332.798 815.438 319.392C809.42 316.376 799.724 313.359 806.077 288.559C807.414 282.191 805.074 270.461 799.056 264.764C789.026 255.38 765.957 255.045 754.255 266.104C747.903 255.38 733.193 254.039 721.157 262.753C715.473 267.11 708.452 274.483 708.786 296.937C709.455 303.64 706.78 312.019 706.446 324.754C704.774 373.015 717.813 383.404 730.518 389.772C738.208 393.458 742.554 394.129 754.924 394.464L754.59 408.54C754.59 412.897 751.581 416.583 747.234 417.589C747.234 417.589 741.216 437.362 739.879 466.855C804.405 437.697 831.82 416.583 831.82 416.583C831.82 416.583 820.453 412.226 821.121 395.469C821.79 380.723 822.124 363.631 822.124 363.631C822.459 363.966 829.48 368.993 838.507 364.301C851.88 356.928 859.904 337.49 851.545 326.765Z" fill="#C8856A"/>
<path d="M754.585 297.942L750.239 337.489L729.176 329.781L754.585 297.942Z" fill="#AF6152"/>
<path d="M755.256 394.464C770.635 394.128 804.068 386.755 812.761 366.647C812.761 366.647 811.089 381.393 791.698 392.118C776.319 400.496 754.922 401.837 754.922 401.837L755.256 394.464Z" fill="#AF6152"/>
<path d="M769.635 309.673C769.969 313.359 772.978 316.376 776.99 316.04C780.668 315.705 783.677 312.689 783.342 308.667C783.008 304.981 779.999 301.965 775.987 302.3C772.309 302.635 769.635 305.986 769.635 309.673Z" fill="#263238"/>
<path d="M719.821 307.662C720.49 311.349 724.167 313.695 727.845 313.024C731.522 312.354 733.863 308.668 733.194 304.981C732.525 301.294 728.848 298.948 725.17 299.619C721.493 300.624 719.152 303.976 719.821 307.662Z" fill="#263238"/>
<path d="M722.492 283.531C727.841 282.526 732.856 285.877 734.193 291.24L715.137 295.261C713.799 289.899 717.143 284.537 722.492 283.531Z" fill="#263238"/>
<path d="M785.345 284.202C790.36 286.548 792.366 292.245 790.026 297.272L772.307 288.894C774.647 284.202 780.331 281.856 785.345 284.202Z" fill="#263238"/>
<path d="M747.569 352.571C750.244 352.236 756.262 350.895 755.927 348.549C755.593 346.203 755.259 342.852 756.262 340.506C756.596 339.835 756.93 340.841 756.93 341.176C756.596 349.219 763.283 357.933 772.31 358.268C772.31 358.268 772.644 358.603 772.31 358.603C768.632 359.274 764.62 358.268 761.611 355.587C759.939 354.247 758.936 352.906 756.596 353.241C751.915 353.911 744.56 355.587 741.217 351.565C743.223 352.236 745.229 352.571 747.569 352.571Z" fill="#AF6152"/>
<path d="M719.818 371.004C719.818 365.977 723.162 359.944 727.174 357.263C729.18 355.922 731.186 355.922 732.523 356.593L740.547 360.949L729.848 380.388L721.824 376.031C720.821 375.025 719.818 373.35 719.818 371.004Z" fill="#455A64"/>
<path d="M735.197 361.285C730.85 363.966 727.507 369.998 727.841 375.025C727.841 380.053 731.519 382.063 735.865 379.382C740.212 376.701 743.555 370.669 743.221 365.641C742.886 360.614 739.543 358.939 735.197 361.285Z" fill="#37474F"/>
<path d="M750.575 351.901V354.582C750.575 355.587 749.906 356.928 748.903 357.598L735.195 365.977V361.62L750.575 351.901Z" fill="#37474F"/>
<path d="M742.551 347.544L750.575 351.901L735.196 361.285L727.172 357.263L742.551 347.544Z" fill="#455A64"/>
<path d="M717.144 371.004C717.144 371.004 715.807 371.004 714.135 371.004C712.464 371.004 710.123 371.004 707.783 371.004C705.443 371.004 703.102 371.004 701.431 371.004C701.096 371.004 700.428 371.004 700.094 371.004C699.759 371.004 699.425 371.004 699.091 371.004C698.422 371.339 698.422 371.674 698.422 371.674V372.009C698.422 372.009 698.756 372.679 699.425 372.679C699.759 372.679 700.094 372.679 700.428 372.679C700.762 372.679 701.097 372.679 701.765 372.679C703.437 372.679 705.777 372.344 708.117 372.009C710.458 371.674 712.798 371.339 714.47 371.339C715.807 371.339 717.144 371.004 717.144 371.004Z" fill="#E0E0E0"/>
<path d="M720.49 378.377C720.49 378.377 719.487 379.047 718.149 380.052C716.812 381.058 714.806 382.398 712.8 384.074C710.794 385.415 709.122 386.755 707.785 388.096C707.451 388.431 707.116 388.766 706.782 388.766C706.448 389.101 706.113 389.101 706.113 389.436C705.779 389.772 706.113 390.442 706.113 390.442L706.448 390.777C706.448 390.777 707.116 391.112 707.451 390.777C707.785 390.777 707.785 390.442 708.119 390.107C708.454 389.772 708.788 389.772 709.122 389.436C710.46 388.431 712.131 386.755 713.803 385.08C715.475 383.404 717.146 381.728 718.484 380.388C719.821 379.382 720.49 378.377 720.49 378.377Z" fill="#E0E0E0"/>
<path d="M726.506 383.404C726.506 383.404 726.171 384.409 725.503 386.085C724.834 387.761 724.165 390.107 723.497 392.118C722.828 394.129 722.159 396.475 721.491 398.15C721.491 398.485 721.156 398.821 721.156 399.491C721.156 399.826 720.822 400.161 721.156 400.496C721.156 401.167 721.825 401.502 721.825 401.502H722.159C722.159 401.502 722.828 401.502 723.162 400.831C723.162 400.496 723.497 400.161 723.497 399.826C723.497 399.491 723.831 399.156 723.831 398.821C724.165 397.145 724.5 394.799 725.168 392.453C725.503 390.107 725.837 387.761 726.171 386.085C726.506 384.409 726.506 383.404 726.506 383.404Z" fill="#E0E0E0"/>
<g opacity="0.2">
<path d="M717.144 371.004C717.144 371.004 715.807 371.004 714.135 371.004C712.464 371.004 710.123 371.004 707.783 371.004C705.443 371.004 703.102 371.004 701.431 371.004C701.096 371.004 700.428 371.004 700.094 371.004C699.759 371.004 699.425 371.004 699.091 371.004C698.422 371.339 698.422 371.674 698.422 371.674V372.009C698.422 372.009 698.756 372.679 699.425 372.679C699.759 372.679 700.094 372.679 700.428 372.679C700.762 372.679 701.097 372.679 701.765 372.679C703.437 372.679 705.777 372.344 708.117 372.009C710.458 371.674 712.798 371.339 714.47 371.339C715.807 371.339 717.144 371.004 717.144 371.004Z" fill="black"/>
<path d="M720.49 378.377C720.49 378.377 719.487 379.047 718.149 380.052C716.812 381.058 714.806 382.398 712.8 384.074C710.794 385.415 709.122 386.755 707.785 388.096C707.451 388.431 707.116 388.766 706.782 388.766C706.448 389.101 706.113 389.101 706.113 389.436C705.779 389.772 706.113 390.442 706.113 390.442L706.448 390.777C706.448 390.777 707.116 391.112 707.451 390.777C707.785 390.777 707.785 390.442 708.119 390.107C708.454 389.772 708.788 389.772 709.122 389.436C710.46 388.431 712.131 386.755 713.803 385.08C715.475 383.404 717.146 381.728 718.484 380.388C719.821 379.382 720.49 378.377 720.49 378.377Z" fill="black"/>
<path d="M726.506 383.404C726.506 383.404 726.171 384.409 725.503 386.085C724.834 387.761 724.165 390.107 723.497 392.118C722.828 394.129 722.159 396.475 721.491 398.15C721.491 398.485 721.156 398.821 721.156 399.491C721.156 399.826 720.822 400.161 721.156 400.496C721.156 401.167 721.825 401.502 721.825 401.502H722.159C722.159 401.502 722.828 401.502 723.162 400.831C723.162 400.496 723.497 400.161 723.497 399.826C723.497 399.491 723.831 399.156 723.831 398.821C724.165 397.145 724.5 394.799 725.168 392.453C725.503 390.107 725.837 387.761 726.171 386.085C726.506 384.409 726.506 383.404 726.506 383.404Z" fill="black"/>
</g>
<path d="M731.182 355.923L736.532 358.939L733.857 360.615L728.508 357.598L731.182 355.923Z" fill="#37474F"/>
<path d="M736.535 358.939L731.186 355.923V356.928L735.532 359.274L736.535 358.939Z" fill="#263238"/>
<path d="M731.182 356.928L729.176 357.933L728.508 357.598L731.182 355.923V356.928Z" fill="black"/>
<path d="M909.711 749.044C914.058 744.352 919.741 739.995 921.413 733.627C922.416 730.276 922.082 726.254 919.741 723.573C919.407 722.903 918.738 722.568 918.404 721.898C918.404 721.227 918.404 720.557 918.404 720.222C918.738 717.876 919.073 715.195 918.07 712.849C917.067 710.838 915.395 709.497 913.389 708.827C914.392 705.14 914.392 701.119 913.389 697.767C912.052 693.41 907.705 690.059 904.696 694.751C903.359 697.097 902.356 699.778 901.353 702.124C899.013 708.492 897.675 715.195 897.007 721.898C896.338 728.935 894.666 748.709 905.365 749.714C906.702 749.379 909.043 749.714 909.711 749.044Z" fill="#AF6152"/>
<path d="M875.616 433.675C904.369 433.675 916.739 454.789 936.799 484.952C960.202 519.807 989.288 562.705 996.978 579.462C1006.67 600.241 1008.68 607.949 986.614 630.068C975.247 641.463 959.199 654.869 943.151 670.286C930.446 682.351 915.067 695.086 902.697 707.486C899.354 710.838 897.682 714.189 898.685 718.881C899.354 721.562 900.691 724.243 901.025 727.26C901.36 730.946 900.357 734.633 900.022 738.319C899.688 742.006 901.025 746.363 904.369 748.039C906.04 748.709 907.712 748.709 909.718 748.709C906.375 751.055 903.366 753.066 899.354 754.406C895.676 755.747 891.33 755.747 887.987 754.071C884.643 752.395 881.969 749.044 878.291 748.039C876.285 747.368 874.279 747.703 872.273 747.033C870.267 746.363 868.261 745.357 867.258 743.682C865.252 741.001 864.249 737.314 861.574 735.638C860.237 734.968 858.565 734.633 856.894 734.298C853.885 732.957 851.879 729.941 851.21 726.925C850.542 723.573 850.876 720.557 851.544 717.206C852.882 708.492 854.553 700.113 856.894 691.4C857.562 688.383 859.234 686.037 860.906 683.356C862.912 680.675 864.583 677.659 866.924 674.978C881.3 656.545 926.769 595.549 926.769 595.549L862.243 525.169C862.243 525.169 848.536 493.33 875.616 433.675Z" fill="#C8856A"/>
<path d="M909.712 749.044C902.357 754.406 891.658 758.428 884.303 751.055C882.631 749.714 880.625 748.039 877.951 747.368C873.27 746.698 868.589 746.028 866.583 741.336C865.58 739.325 864.578 736.979 862.237 735.303C859.897 733.963 857.557 733.963 855.885 732.622C854.213 731.281 852.876 729.271 852.542 727.26C850.87 716.2 855.216 703.8 857.557 692.74C859.228 685.702 864.243 680.675 868.255 674.978L876.613 663.583C892.996 641.798 911.049 617.333 927.097 595.214C910.381 616.663 891.993 640.793 875.276 662.577L866.583 673.972C862.906 680.005 857.222 685.367 855.551 692.405C853.879 699.443 852.207 706.146 851.204 713.184C850.536 717.876 849.533 722.568 850.536 727.595C851.204 729.941 852.542 732.287 854.548 733.963C856.888 735.638 859.563 735.303 861.234 736.644C862.906 737.649 863.909 739.995 865.246 742.006C866.249 744.017 868.255 746.028 870.595 747.033C872.936 748.039 875.61 748.039 877.616 748.374C882.297 749.379 885.306 754.071 889.987 755.077C897.007 757.087 904.029 753.066 909.712 749.044Z" fill="#AF6152"/>
<path d="M926.762 595.549C939.466 607.949 959.192 608.955 966.547 608.62C940.804 619.009 922.75 601.246 922.75 601.246L926.762 595.549Z" fill="#AF6152"/>
<path d="M961.868 521.147C967.551 527.514 973.904 538.239 973.904 538.239C973.904 538.239 967.886 557.007 951.169 571.418C934.453 585.829 917.067 587.505 917.067 587.505L904.697 572.423L961.868 521.147Z" fill="black"/>
<path d="M874.608 429.988C897.009 433.339 907.707 438.367 920.746 457.135C933.45 475.903 948.83 499.363 956.519 505.73C964.209 512.433 965.546 519.806 963.875 525.504C959.194 543.601 935.122 572.424 909.713 576.78C899.015 579.797 898.011 573.094 888.65 561.029C878.955 548.964 869.593 539.244 860.901 528.855C851.54 518.13 848.865 456.464 874.608 429.988Z" fill="#FF0000"/>
<path opacity="0.2" d="M874.608 429.988C897.009 433.339 907.707 438.367 920.746 457.135C933.45 475.903 948.83 499.363 956.519 505.73C964.209 512.433 965.546 519.806 963.875 525.504C959.194 543.601 935.122 572.424 909.713 576.78C899.015 579.797 898.011 573.094 888.65 561.029C878.955 548.964 869.593 539.244 860.901 528.855C851.54 518.13 848.865 456.464 874.608 429.988Z" fill="black"/>
<path d="M740.205 467.524C750.904 461.827 766.617 459.481 782.331 472.216C794.701 482.27 798.379 491.319 798.379 491.319C798.379 491.319 826.797 471.546 836.158 454.789C845.519 437.696 846.188 421.274 846.188 421.274C846.188 421.274 839.167 418.258 832.146 411.555C825.125 404.852 825.794 397.479 821.782 398.149C821.782 398.149 821.447 406.863 819.441 410.55C817.435 414.236 803.394 434.01 789.017 442.723C774.641 451.437 746.892 458.81 740.205 467.524Z" fill="#FF0000"/>
<path opacity="0.2" d="M740.205 467.524C750.904 461.827 766.617 459.481 782.331 472.216C794.701 482.27 798.379 491.319 798.379 491.319C798.379 491.319 826.797 471.546 836.158 454.789C845.519 437.696 846.188 421.274 846.188 421.274C846.188 421.274 839.167 418.258 832.146 411.555C825.125 404.852 825.794 397.479 821.782 398.149C821.782 398.149 821.447 406.863 819.441 410.55C817.435 414.236 803.394 434.01 789.017 442.723C774.641 451.437 746.892 458.81 740.205 467.524Z" fill="black"/>
<path d="M740.203 467.524C740.203 461.827 743.547 444.4 746.556 430.994C749.565 417.588 753.577 413.231 754.245 411.891C754.914 410.55 755.248 407.534 755.248 403.512C755.248 403.512 752.574 403.847 751.571 406.193C750.568 408.874 738.532 419.599 727.499 421.275C718.138 434.68 709.111 444.735 702.09 460.822C709.779 455.459 719.141 452.443 726.496 455.124C732.514 457.47 737.529 462.162 740.203 467.524Z" fill="#FF0000"/>
<path opacity="0.2" d="M740.203 467.524C740.203 461.827 743.547 444.4 746.556 430.994C749.565 417.588 753.577 413.231 754.245 411.891C754.914 410.55 755.248 407.534 755.248 403.512C755.248 403.512 752.574 403.847 751.571 406.193C750.568 408.874 738.532 419.599 727.499 421.275C718.138 434.68 709.111 444.735 702.09 460.822C709.779 455.459 719.141 452.443 726.496 455.124C732.514 457.47 737.529 462.162 740.203 467.524Z" fill="black"/>
<path d="M579.727 1310.07C578.724 1310.07 578.39 1319.46 583.739 1323.81C590.426 1328.84 610.82 1338.22 635.226 1334.2C659.632 1329.85 672.337 1321.8 681.698 1313.42C687.716 1307.73 694.402 1303.03 700.755 1298.01C704.098 1295.66 706.773 1293.31 710.45 1291.64C714.128 1289.96 717.806 1288.96 721.483 1287.95C729.507 1285.61 738.2 1283.6 743.883 1277.23C748.23 1272.54 747.227 1261.81 747.227 1255.78L579.727 1310.07Z" fill="#263238"/>
<path d="M739.868 1205.84C739.2 1210.2 738.865 1214.56 739.868 1218.91C740.537 1221.59 741.874 1224.28 742.877 1226.96C745.886 1234.67 747.558 1242.71 747.892 1250.75C747.892 1252.43 747.892 1254.1 747.558 1255.78C746.889 1257.45 745.886 1258.8 744.883 1260.14C738.865 1266.5 729.839 1269.86 721.48 1272.87C715.462 1275.22 709.11 1277.9 704.095 1281.59C690.388 1291.64 682.364 1307.73 667.319 1316.1C655.952 1322.47 642.578 1328.17 629.205 1328.51C610.483 1329.18 588.751 1324.15 583.736 1315.77C577.384 1305.38 572.369 1293.32 599.784 1279.24C604.799 1276.56 623.187 1264.83 629.205 1260.81C635.557 1256.45 642.244 1251.76 647.593 1246.06C652.274 1241.37 657.289 1234.67 658.961 1228.3C661.301 1220.92 660.298 1212.88 660.298 1205.51C660.298 1203.5 660.298 1201.49 660.967 1199.48C662.972 1193.11 671.999 1193.11 677.683 1193.11C684.704 1192.77 692.059 1193.78 698.746 1196.46C701.086 1197.13 703.092 1198.13 704.764 1200.15C708.441 1203.83 708.107 1209.86 709.779 1214.89C710.113 1216.23 711.785 1217.91 712.788 1216.9C713.122 1216.57 713.122 1216.23 713.456 1215.9C715.462 1210.87 714.125 1204.5 717.803 1200.15C721.48 1195.79 730.842 1195.12 734.185 1190.43L734.853 1184.06C737.862 1185.06 738.865 1186.07 740.203 1187.75C741.206 1189.76 741.54 1192.1 741.54 1194.11C740.871 1197.8 740.203 1201.82 739.868 1205.84Z" fill="#455A64"/>
<path d="M679.691 1307.06C684.372 1303.03 688.049 1297.67 690.724 1293.65C690.724 1293.65 662.64 1316.1 648.933 1307.73C640.24 1302.36 643.918 1294.99 643.918 1292.98C643.918 1290.63 613.16 1276.22 604.801 1275.55C602.461 1276.89 600.789 1278.23 599.452 1278.57C578.055 1288.29 575.715 1299.35 580.061 1313.09C585.41 1321.47 604.801 1329.51 628.873 1328.5C644.587 1328.17 668.658 1317.11 679.691 1307.06Z" fill="#37474F"/>
<path d="M642.584 1294.99C642.918 1294.99 643.252 1294.99 643.587 1294.66C644.255 1293.99 644.255 1292.98 643.587 1292.31C638.572 1286.61 614.5 1273.54 601.795 1275.55C600.792 1275.55 600.124 1276.56 600.458 1277.56C600.458 1278.57 601.461 1279.24 602.464 1278.9C614.5 1277.23 637.234 1289.96 641.246 1294.66C641.581 1294.66 641.915 1294.99 642.584 1294.99Z" fill="#263238"/>
<path d="M661.636 1282.59C661.971 1282.59 662.305 1282.59 662.639 1282.26C663.308 1281.59 663.308 1280.58 662.639 1279.91C657.624 1274.21 633.553 1261.14 620.848 1263.15C619.845 1263.15 619.176 1264.16 619.511 1265.16C619.511 1266.17 620.514 1266.84 621.517 1266.5C633.553 1264.83 656.287 1277.56 660.299 1282.26C660.633 1282.26 660.968 1282.59 661.636 1282.59Z" fill="#263238"/>
<path d="M679.361 1269.52C679.695 1269.52 680.03 1269.52 680.364 1269.18C681.033 1268.51 681.033 1267.51 680.364 1266.84C675.349 1261.14 651.277 1248.07 638.573 1250.08C637.57 1250.08 636.901 1251.09 637.235 1252.09C637.235 1253.1 638.238 1253.77 639.241 1253.43C651.277 1251.76 674.012 1264.49 678.024 1269.18C678.358 1269.52 678.692 1269.85 679.361 1269.52Z" fill="#263238"/>
<path d="M692.73 1256.11C693.065 1256.11 693.399 1256.11 693.733 1255.78C694.402 1255.11 694.402 1254.1 693.733 1253.43C688.718 1247.74 664.646 1234.66 651.942 1236.68C650.939 1236.68 650.27 1237.68 650.605 1238.69C650.605 1239.69 651.608 1240.36 652.611 1240.03C664.646 1238.35 687.381 1251.09 691.393 1255.78C691.727 1255.78 692.062 1256.11 692.73 1256.11Z" fill="#263238"/>
<path d="M701.756 1240.03C702.091 1240.03 702.425 1240.03 702.759 1239.69C703.428 1239.02 703.428 1238.02 703.094 1237.35C696.073 1229.3 670.998 1218.58 658.293 1220.59C657.29 1220.59 656.622 1221.59 656.956 1222.6C656.956 1223.61 657.959 1224.28 658.962 1223.94C670.329 1222.26 694.401 1232.32 700.419 1239.69C700.419 1240.03 701.088 1240.03 701.756 1240.03Z" fill="#263238"/>
<path d="M873.6 1354.98C876.609 1372.07 880.955 1383.13 889.313 1392.18C897.671 1401.23 911.379 1401.9 924.752 1396.87C938.125 1391.51 954.842 1380.79 957.182 1365.04C959.522 1349.28 957.517 1339.23 952.836 1323.81L873.6 1354.98Z" fill="#263238"/>
<path d="M920.409 1217.91C926.092 1217.24 925.424 1230.98 929.101 1254.1C933.447 1279.24 946.152 1298.34 951.501 1318.45C957.519 1341.24 957.185 1351.96 949.161 1367.72C941.137 1383.47 908.707 1403.24 889.985 1385.81C874.605 1371.4 872.265 1353.31 870.928 1329.85C869.59 1305.38 868.922 1288.29 865.913 1270.19C862.904 1252.76 853.543 1234.67 858.223 1231.98C858.892 1234.33 865.913 1254.1 868.922 1253.77C868.922 1251.42 868.587 1249.41 868.253 1247.07C867.919 1245.05 867.919 1243.04 869.256 1241.03C870.593 1239.36 875.943 1237.01 878.283 1236.01C883.632 1233.99 893.662 1231.65 899.011 1230.31C901.686 1229.64 904.695 1228.97 907.37 1228.63C909.71 1228.3 912.385 1227.96 914.725 1228.3C916.062 1228.63 917.4 1228.97 918.068 1230.31C918.403 1230.98 918.403 1231.98 918.737 1232.99C919.071 1234.67 919.406 1236.34 920.074 1237.68C920.409 1238.35 921.077 1239.02 921.746 1238.69C922.415 1238.35 922.415 1237.68 922.415 1237.01C921.746 1233.99 920.743 1219.58 920.409 1217.91Z" fill="#455A64"/>
<path d="M949.495 1312.08C950.498 1315.43 956.182 1337.22 949.495 1342.58C942.14 1348.28 936.122 1331.52 936.122 1331.52C936.122 1331.52 917.734 1329.85 892.659 1344.26C894.33 1347.61 891.656 1360.34 884.301 1359C876.945 1357.66 871.262 1332.53 871.262 1332.19C872.599 1354.98 875.274 1372.41 890.318 1386.15C909.041 1403.58 941.471 1384.14 949.495 1368.05C957.519 1352.3 957.853 1341.58 951.835 1318.79C950.832 1316.1 950.164 1314.09 949.495 1312.08Z" fill="#37474F"/>
<path d="M891.993 1344.59C892.327 1344.59 892.662 1344.26 892.662 1344.26C892.996 1344.26 912.387 1331.52 935.79 1332.86C936.793 1332.86 938.13 1332.19 938.13 1331.19C938.465 1330.18 937.462 1329.18 936.459 1329.18C911.384 1327.83 891.324 1340.57 890.321 1341.24C889.318 1341.91 888.984 1342.92 889.653 1343.92C890.321 1344.59 891.324 1344.59 891.993 1344.59Z" fill="#263238"/>
<path d="M885.305 1326.83C885.639 1326.83 885.639 1326.83 885.974 1326.49C886.308 1326.49 908.04 1313.09 934.117 1313.76C935.12 1313.76 936.458 1313.09 936.458 1312.08C936.458 1311.08 935.789 1310.07 934.786 1310.07C907.371 1309.4 884.971 1322.81 883.968 1323.48C882.965 1324.15 882.63 1325.15 883.299 1326.16C883.633 1326.83 884.636 1327.16 885.305 1326.83Z" fill="#263238"/>
<path d="M931.112 1297C931.781 1296.67 932.449 1296.33 932.784 1295.33C933.118 1294.32 932.449 1293.32 931.112 1293.32C905.034 1290.3 881.297 1305.38 880.294 1306.05C879.291 1306.72 878.957 1307.73 879.625 1308.73C880.294 1309.4 881.631 1309.74 882.634 1309.07C882.969 1309.07 906.037 1293.99 930.109 1297C930.443 1297 930.778 1297 931.112 1297Z" fill="#263238"/>
<path d="M927.766 1280.58C928.434 1280.24 929.103 1279.91 929.437 1279.24C929.772 1278.23 929.103 1277.23 928.1 1277.23C899.348 1273.54 877.282 1289.29 876.279 1290.3C875.276 1290.97 875.276 1291.97 875.945 1292.98C876.613 1293.65 877.95 1293.65 878.953 1292.98C879.288 1292.98 900.685 1277.56 927.431 1280.91C927.431 1280.58 927.431 1280.58 927.766 1280.58Z" fill="#263238"/>
<path d="M924.088 1262.48C924.756 1262.15 925.425 1261.81 925.759 1261.14C926.094 1260.14 925.425 1259.13 924.422 1259.13C897.341 1255.11 873.27 1271.87 872.267 1272.54C871.264 1273.21 870.929 1274.21 871.598 1275.22C872.267 1275.89 873.604 1276.22 874.607 1275.55C874.941 1275.55 898.344 1259.13 923.419 1262.82C923.419 1262.48 923.753 1262.48 924.088 1262.48Z" fill="#263238"/>
<path d="M371.776 694.416C367.764 608.284 359.406 550.975 344.695 529.861C324.301 562.369 274.82 626.382 274.82 626.382L239.047 707.151C239.047 707.151 251.417 783.899 260.778 814.061C231.357 847.576 222.33 865.673 209.292 899.523C199.262 924.993 191.238 967.557 182.211 1004.76C175.524 1031.9 172.181 1034.92 167.166 1038.61C164.157 1040.62 160.479 1043.3 160.479 1043.3C160.479 1043.3 135.739 1053.35 137.076 1068.43C138.079 1079.49 145.769 1092.56 136.742 1113.68C126.043 1138.81 121.363 1145.52 132.396 1163.61C141.757 1179.03 162.485 1195.12 184.217 1196.46C185.888 1196.46 191.238 1193.11 191.238 1187.75C191.572 1177.69 186.891 1173.67 183.882 1162.94C180.874 1152.22 183.883 1133.79 186.223 1121.72C188.563 1109.32 196.921 1094.24 203.274 1083.52C209.96 1072.79 217.65 1059.72 229.017 1043.97C242.725 1024.53 342.021 881.425 358.403 851.262C374.451 820.429 376.122 784.234 371.776 694.416Z" fill="#FFA8A7"/>
<path d="M234.702 704.47L257.102 810.71C257.102 810.71 233.031 835.175 217.317 869.36C201.604 903.544 184.553 984.314 184.553 984.314C184.553 984.314 189.568 1003.42 208.959 1016.15C228.35 1028.89 240.052 1030.9 240.052 1030.9C240.052 1030.9 329.986 900.193 349.712 869.36C369.437 838.527 374.452 812.05 375.79 780.882C377.127 749.714 371.778 551.98 342.357 529.861C312.936 508.076 234.702 704.47 234.702 704.47Z" fill="#263238"/>
<path d="M315.276 1199.48C307.586 1188.42 301.902 1176.02 299.228 1162.27C294.547 1140.16 295.55 1117.03 296.219 1094.58C297.222 1066.09 301.234 1010.46 303.24 965.546C308.589 853.608 312.267 840.873 308.255 792.613C304.243 744.352 295.216 670.956 295.216 670.956C295.216 670.956 317.616 661.237 335.335 619.679C344.028 598.9 357.735 560.694 346.703 530.196C346.703 530.196 333.664 550.305 275.156 547.623C226.678 546.283 198.26 527.515 198.26 527.515C194.582 541.256 175.526 562.035 156.134 594.208C148.779 606.608 137.746 628.058 143.096 670.286C147.107 700.113 151.788 715.865 166.164 763.12C181.209 812.051 206.618 894.161 206.618 894.161C200.266 932.367 194.917 942.756 208.29 1011.46C212.636 1033.92 220.994 1055.7 228.35 1077.15C232.362 1089.55 236.708 1102.28 238.045 1115.35C238.714 1121.05 239.717 1128.43 237.377 1133.79C233.699 1143.17 223.669 1151.21 224.672 1161.94C225.675 1173.33 239.048 1183.05 245.735 1191.43C259.777 1208.86 266.798 1232.32 284.517 1246.06C296.887 1255.78 313.604 1259.13 329.317 1258.8C335.67 1258.8 341.353 1257.79 346.703 1254.44C350.38 1252.43 354.727 1251.09 356.733 1247.07C358.404 1243.71 358.404 1239.36 356.398 1236.01C354.727 1233.32 351.718 1231.31 348.709 1229.64C343.359 1226.29 338.01 1222.6 333.329 1218.58C326.308 1213.55 320.291 1206.85 315.276 1199.48Z" fill="#FFA8A7"/>
<path d="M356.062 557.007C352.384 537.904 346.7 530.866 346.7 530.866C346.7 530.866 348.372 570.748 307.584 573.094C271.142 575.105 218.652 544.272 192.24 539.245C178.532 558.013 162.484 578.791 150.448 602.922C136.741 630.738 137.41 668.609 148.108 707.486C158.807 746.363 203.607 894.16 203.607 894.16C203.607 894.16 189.565 948.118 203.607 1002.08C217.649 1056.03 229.685 1083.18 229.685 1083.18C229.685 1083.18 244.73 1091.22 265.458 1091.22C284.515 1091.22 296.885 1079.49 296.885 1079.49C296.885 1079.49 309.924 911.923 311.93 857.295C313.936 802.666 299.56 669.615 299.56 669.615C299.56 669.615 356.062 648.501 356.062 557.007Z" fill="#37474F"/>
<path d="M231.692 980.962C231.692 962.529 231.357 944.097 231.357 925.664C231.357 907.901 232.36 889.468 229.017 871.706C225.674 854.614 218.318 838.192 212.969 821.77C207.62 804.677 202.939 787.25 198.927 769.823C194.915 752.395 191.906 734.968 188.897 717.54C186.223 701.118 184.217 684.361 181.542 667.604C179.202 653.193 175.859 638.112 167.166 626.046C161.817 618.673 155.13 613.311 147.44 609.289C147.106 609.96 146.772 610.965 146.438 611.635C150.784 613.981 154.796 616.998 158.473 620.684C168.503 630.738 173.518 644.144 176.193 657.885C179.202 672.966 180.874 688.383 183.214 703.8C185.554 720.221 188.563 736.643 191.572 753.065C194.915 769.487 198.593 785.574 202.939 801.661C207.286 817.748 212.969 833.5 218.318 849.586C220.993 857.63 223.668 865.673 225.005 873.717C226.342 882.095 226.677 890.474 227.011 898.852C227.345 916.28 227.345 933.707 227.345 951.135C227.345 959.848 227.345 968.562 227.68 977.276C227.68 985.989 228.014 995.038 227.345 1003.75C226.677 1015.15 223.668 1030.9 213.304 1036.93C213.638 1037.6 213.638 1038.61 213.972 1039.28C213.972 1039.61 214.307 1039.95 214.307 1040.28C218.653 1037.94 222.33 1034.25 224.671 1029.89C233.363 1015.48 232.026 997.049 231.692 980.962Z" fill="#263238"/>
<path d="M322.96 1202.49C316.608 1194.45 304.238 1169.98 302.232 1163.62C298.889 1152.22 303.569 1146.52 296.548 1142.17C289.193 1138.82 275.151 1144.18 266.124 1149.88C257.432 1155.91 272.477 1181.04 276.823 1189.09C282.506 1199.81 292.871 1213.89 302.901 1222.6C309.587 1215.56 317.277 1210.2 322.96 1202.49Z" fill="#FF0000"/>
<path opacity="0.2" d="M322.96 1202.49C316.608 1194.45 304.238 1169.98 302.232 1163.62C298.889 1152.22 303.569 1146.52 296.548 1142.17C289.193 1138.82 275.151 1144.18 266.124 1149.88C257.432 1155.91 272.477 1181.04 276.823 1189.09C282.506 1199.81 292.871 1213.89 302.901 1222.6C309.587 1215.56 317.277 1210.2 322.96 1202.49Z" fill="black"/>
<path d="M349.709 1258.8C344.36 1266.5 342.02 1267.17 329.315 1269.86C317.948 1272.2 296.217 1266.84 282.509 1258.8C268.802 1250.75 255.428 1233.33 249.745 1219.58C244.061 1205.84 233.028 1192.44 225.339 1184.73C218.986 1178.36 217.983 1178.7 217.983 1173.67C217.649 1168.64 219.321 1169.31 219.655 1165.29C262.784 1196.79 306.915 1226.29 349.709 1258.8Z" fill="#EBEBEB"/>
<path d="M238.376 1121.72C239.044 1126.75 240.716 1132.45 246.4 1140.16C250.077 1144.85 253.086 1146.19 260.441 1151.22C267.797 1156.24 272.143 1176.35 277.827 1187.41C281.839 1194.78 292.537 1213.22 301.23 1218.58C306.245 1210.87 314.603 1205.17 324.298 1203.5C330.316 1211.54 336 1218.91 345.696 1225.95C352.048 1230.31 364.418 1235.34 360.406 1244.38C358.4 1249.41 356.729 1254.44 345.696 1259.8C337.672 1263.82 314.603 1265.5 298.555 1259.13C269.134 1247.4 264.788 1231.98 257.767 1216.9C251.749 1204.17 241.719 1193.11 236.035 1186.41C227.343 1176.35 222.662 1176.35 219.653 1165.29C217.981 1158.59 220.322 1154.23 223.331 1147.19C226.005 1140.16 231.02 1131.78 233.026 1124.4C234.364 1118.71 234.364 1116.36 237.707 1116.03L238.376 1121.72Z" fill="#FF0000"/>
<path d="M353.385 1244.72C349.373 1246.4 346.698 1248.74 345.695 1254.77C345.027 1259.13 346.03 1263.15 340.68 1265.5C332.991 1268.85 325.97 1268.85 315.606 1267.51C305.241 1266.17 294.208 1263.82 283.51 1257.79C272.811 1251.76 261.444 1240.03 255.76 1228.97C249.743 1216.9 241.719 1202.83 234.698 1194.11C227.677 1185.4 223.33 1183.72 217.647 1176.02C217.647 1177.36 217.312 1178.7 217.312 1180.04C225.336 1190.76 230.351 1193.11 239.713 1205.84C243.056 1210.54 248.74 1222.27 254.089 1232.32C259.438 1242.37 270.137 1254.1 283.844 1262.48C295.546 1269.86 321.958 1273.88 334.997 1271.2C352.716 1267.51 358.4 1261.48 361.075 1257.12C363.081 1254.1 362.746 1248.74 362.746 1244.38C362.412 1239.02 358.4 1242.71 353.385 1244.72Z" fill="#455A64"/>
<path d="M300.557 1220.26C304.569 1213.55 317.273 1204.17 325.966 1205.51L326.969 1206.51C327.638 1205.51 326.969 1204.5 324.629 1201.82C322.957 1200.15 317.942 1200.48 311.255 1203.83C306.575 1206.18 299.22 1210.87 296.545 1216.23C296.879 1218.24 298.217 1220.26 300.557 1220.26Z" fill="#37474F"/>
<path d="M287.514 1207.85C292.194 1201.82 308.242 1190.09 316.6 1192.44L317.269 1193.78C318.272 1192.77 317.603 1191.77 315.597 1188.75C314.26 1186.74 308.576 1187.75 302.224 1190.43C297.209 1192.44 287.179 1198.81 283.836 1203.83C284.17 1205.51 285.173 1207.52 287.514 1207.85Z" fill="#37474F"/>
<path d="M278.824 1192.77C283.839 1186.74 300.556 1175.68 308.914 1178.36L309.582 1179.7C310.585 1178.7 310.251 1177.69 308.245 1174.68C306.908 1172.66 300.89 1173.33 294.203 1175.68C289.188 1177.36 278.824 1183.39 275.146 1188.08C275.815 1190.43 276.818 1192.44 278.824 1192.77Z" fill="#37474F"/>
<path d="M271.47 1176.35C277.154 1170.99 294.539 1160.93 302.897 1164.29L303.232 1165.63C304.235 1164.62 303.9 1163.62 302.229 1160.6C300.891 1158.25 294.873 1158.92 288.187 1160.6C283.172 1161.94 272.139 1166.97 268.127 1171.66C268.461 1173.67 269.464 1175.68 271.47 1176.35Z" fill="#37474F"/>
<path d="M191.565 1130.1C192.234 1114.35 201.93 1094.58 206.945 1086.53C215.637 1072.12 221.989 1065.08 216.974 1061.73L214.968 1063.07C202.264 1065.42 191.231 1058.38 185.882 1057.04C180.532 1055.7 172.174 1077.15 167.828 1093.91C162.144 1116.02 165.153 1135.46 165.153 1135.46L191.565 1130.1Z" fill="#FF0000"/>
<g opacity="0.2">
<path d="M191.565 1130.1C192.234 1114.35 201.93 1094.58 206.945 1086.53C215.637 1072.12 221.989 1065.08 216.974 1061.73L214.968 1063.07C202.264 1065.42 191.231 1058.38 185.882 1057.04C180.532 1055.7 172.174 1077.15 167.828 1093.91C162.144 1116.02 165.153 1135.46 165.153 1135.46L191.565 1130.1Z" fill="black"/>
</g>
<path d="M177.527 1195.45C174.852 1198.13 171.175 1199.14 156.799 1191.43C144.094 1184.73 134.733 1167.64 127.712 1151.55C120.691 1135.46 123.7 1114.35 128.046 1101.95C132.058 1089.55 132.393 1071.79 130.721 1061.06C129.384 1052.35 128.715 1051.34 132.058 1048.66C134.733 1046.31 138.076 1043.63 138.076 1043.63L177.527 1195.45Z" fill="#EBEBEB"/>
<path d="M176.528 1023.86C175.191 1031.23 174.857 1032.57 174.857 1040.95C174.857 1045.98 176.194 1051.34 179.537 1055.36C182.546 1059.39 173.854 1074.13 169.507 1092.56C166.498 1105.3 164.492 1128.43 166.498 1130.77C171.179 1127.42 184.552 1126.75 191.907 1128.43C191.907 1128.43 191.573 1148.53 194.248 1163.95C196.254 1177.36 199.263 1179.7 195.251 1185.06C192.91 1188.08 183.215 1195.12 176.863 1194.78C172.182 1194.45 154.128 1186.07 140.421 1162.61C127.716 1140.49 132.731 1124.4 136.409 1104.29C139.418 1087.54 139.418 1076.48 138.415 1069.11C136.743 1058.05 135.406 1050.34 138.749 1043.97C138.749 1043.97 143.095 1037.27 153.125 1032.57C162.821 1027.88 166.833 1027.55 171.848 1020.51C176.194 1014.48 180.206 1016.15 180.206 1016.15C178.534 1017.83 177.866 1020.17 176.528 1023.86Z" fill="#FF0000"/>
<path d="M188.227 1181.38C182.543 1184.06 180.537 1185.06 177.194 1189.76C176.191 1191.1 173.516 1195.79 167.833 1195.12C159.475 1194.11 150.782 1186.07 147.773 1182.72C144.764 1179.37 132.728 1163.62 128.716 1152.22C124.704 1140.83 122.364 1128.76 126.042 1113.34C130.054 1097.26 132.06 1091.56 132.06 1075.14C132.06 1059.05 129.385 1054.69 130.054 1051.34C130.054 1051.34 128.382 1053.02 127.379 1054.36C126.71 1060.39 130.388 1064.41 129.051 1086.2C128.382 1093.91 125.373 1104.97 123.367 1113.68C121.027 1122.39 120.358 1137.14 126.376 1154.23C131.725 1168.64 142.089 1187.07 160.478 1196.12C175.522 1203.5 189.23 1195.45 190.902 1194.11C193.911 1191.77 196.92 1183.39 196.92 1181.04C196.585 1178.03 192.908 1179.03 188.227 1181.38Z" fill="#455A64"/>
<path d="M164.49 1134.12C174.186 1128.43 190.902 1130.1 191.571 1133.45V1135.13C191.571 1135.13 192.908 1135.13 192.908 1130.77C192.24 1127.76 190.234 1125.41 181.207 1125.41C170.842 1125.07 163.821 1128.76 163.821 1128.76C163.821 1128.76 162.484 1133.12 164.49 1134.12Z" fill="#37474F"/>
<path d="M165.161 1116.36C179.872 1111.33 192.576 1116.03 193.245 1118.37L192.911 1119.38C192.911 1119.38 194.582 1119.38 194.917 1115.02C194.582 1113.34 191.573 1109.99 183.549 1109.32C173.185 1108.32 165.496 1111.67 165.496 1111.67C165.496 1111.67 163.49 1114.68 165.161 1116.36Z" fill="#37474F"/>
<path d="M166.827 1101.28C184.546 1093.91 197.251 1101.95 197.92 1104.3L197.585 1105.3C197.585 1105.3 199.257 1105.64 199.926 1100.94C199.591 1099.27 197.251 1095.92 188.893 1094.24C177.525 1091.9 167.496 1096.25 167.496 1096.25C167.496 1096.25 165.49 1099.6 166.827 1101.28Z" fill="#37474F"/>
<path d="M170.506 1083.52C186.888 1079.16 204.273 1087.54 204.607 1089.88L204.273 1090.89C204.273 1090.89 206.279 1091.22 206.613 1086.87C206.279 1085.19 203.604 1083.18 195.58 1080.16C183.21 1075.14 171.843 1078.82 171.843 1078.82C171.843 1078.82 168.834 1081.84 170.506 1083.52Z" fill="#37474F"/>
<path d="M300.896 343.856C345.362 317.044 373.112 356.256 395.846 380.386C404.873 385.078 450.008 420.268 453.685 426.301L517.542 372.008L541.614 395.468C527.238 415.241 477.423 513.773 445.996 499.697C433.626 493.999 358.401 433.339 358.401 433.339L300.896 343.856Z" fill="#FFA8A7"/>
<path d="M566.686 343.856L562.34 344.526C568.358 340.84 582.065 332.461 588.752 330.45L566.686 343.856Z" fill="#37474F"/>
<path d="M568.686 311.347L578.715 334.472L589.08 330.451L576.375 301.293L568.686 311.347Z" fill="#263238"/>
<path d="M542.281 297.606L546.628 285.876L576.383 301.293L568.693 311.347L542.281 297.606Z" fill="#37474F"/>
<path d="M526.23 307.325L524.559 299.282L546.624 285.876L542.278 297.606L526.23 307.325Z" fill="#455A64"/>
<path d="M536.26 330.785L526.23 307.325L542.278 297.606L568.69 311.347L578.72 334.472L562.672 344.526L536.26 330.785Z" fill="#455A64"/>
<path d="M589.085 330.45L598.781 316.039L586.411 286.882L576.381 301.293L589.085 330.45Z" fill="#263238"/>
<path d="M546.625 285.876L576.38 301.293L586.41 286.881L556.655 271.465L546.625 285.876Z" fill="#37474F"/>
<path d="M524.559 299.282L534.254 284.871L556.654 271.465L546.624 285.876L524.559 299.282Z" fill="#455A64"/>
<path opacity="0.2" d="M589.086 330.451C585.074 320.731 581.062 310.677 577.05 300.958C569.361 296.936 554.316 289.228 546.626 285.206C539.271 289.898 531.916 294.255 524.561 299.282C531.916 295.261 539.271 290.904 546.626 286.547C553.982 290.569 568.692 297.942 576.382 301.963C578.388 306.655 580.728 311.347 582.734 316.039C584.406 320.731 586.746 325.759 589.086 330.451Z" fill="black"/>
<path d="M556.656 271.465L562.674 269.789L587.415 282.86L586.412 286.882L556.656 271.465Z" fill="#37474F"/>
<path d="M597.781 306.99L598.784 316.039L586.414 286.881L587.417 282.86L597.781 306.99Z" fill="#263238"/>
<g opacity="0.2">
<path d="M598.784 316.039C595.107 305.985 590.76 296.266 586.748 286.546C576.718 281.519 566.688 276.157 556.324 271.465C566.02 277.163 576.05 282.19 586.08 287.552L585.745 287.217C590.092 296.936 594.438 306.32 598.784 316.039Z" fill="black"/>
</g>
<path opacity="0.1" d="M526.232 307.325L542.28 298.947L567.689 312.352L577.385 334.472L562.674 344.526L578.722 334.472L568.692 311.347L542.28 297.606L526.232 307.325Z" fill="white"/>
<path d="M588.42 305.314C588.086 304.979 588.086 305.314 588.42 305.314L587.417 303.303V302.968V302.633C587.751 302.298 588.086 301.963 588.42 301.627C588.754 301.292 589.089 301.292 589.423 301.292C589.757 301.292 590.092 301.292 590.426 301.627C590.76 301.963 591.095 302.298 591.429 302.968C591.763 303.638 591.763 303.973 591.763 304.644C591.763 305.314 591.763 305.984 591.763 306.655C591.763 307.325 591.429 307.995 591.429 308.665C591.095 309.336 590.76 310.006 590.426 310.676C590.092 311.347 589.757 311.682 589.089 312.017C588.754 312.352 588.42 312.352 588.086 312.352C587.751 312.352 587.417 312.352 587.083 312.017C586.748 311.682 586.414 311.347 586.414 311.011C586.414 310.676 586.08 310.676 586.08 310.341C586.08 310.006 586.08 309.671 586.08 309.671L585.077 311.011L586.748 314.698V315.033V315.368L585.745 317.044C585.745 317.044 585.745 317.379 585.411 317.379C585.411 317.379 585.411 317.379 585.077 317.379L582.736 311.682V311.347V311.011L586.414 304.979C586.414 304.979 586.414 304.644 586.748 304.644C586.748 304.644 586.748 304.644 587.083 304.644L588.086 306.655C588.086 306.655 588.086 306.655 588.086 306.99V307.325V307.66V307.995C588.42 308.33 588.42 308.665 588.754 308.665C589.089 308.665 589.423 308.33 589.423 307.995C589.423 307.66 589.757 307.66 589.757 307.325C589.757 306.99 589.757 306.99 589.757 306.655C589.757 306.319 589.757 306.319 589.757 305.984C589.757 305.649 589.757 305.649 589.757 305.314C589.757 304.979 589.423 304.979 589.423 304.979H589.089H588.754L588.42 305.314Z" fill="#455A64"/>
<path d="M519.214 387.424C513.531 393.457 499.155 382.732 502.832 375.359C503.501 374.689 543.955 315.704 544.289 314.698C549.973 308.666 564.349 319.39 560.671 326.763C560.337 327.769 519.883 386.754 519.214 387.424Z" fill="#F0F0F0"/>
<path d="M502.835 380.721C499.157 367.986 517.545 375.024 519.217 382.062C522.894 394.797 504.506 388.094 502.835 380.721Z" fill="#FAFAFA"/>
<path d="M527.908 375.024C536.6 366.31 516.54 351.564 511.525 362.958C517.209 356.591 531.585 367.315 527.908 375.024Z" fill="#E0E0E0"/>
<path d="M550.644 341.844C559.337 333.13 539.277 318.384 534.262 329.779C539.945 323.411 554.322 334.136 550.644 341.844Z" fill="#E0E0E0"/>
<path d="M535.265 364.299C543.623 352.234 553.987 342.179 533.593 335.812C528.244 334.136 521.892 349.217 518.883 352.234C524.232 346.201 538.943 356.926 535.265 364.299Z" fill="#E0E0E0"/>
<path d="M503.505 436.356L499.158 437.026C505.176 433.34 518.884 424.961 525.57 422.95L503.505 436.356Z" fill="#37474F"/>
<path d="M505.168 403.847L515.198 427.307L525.562 422.951L513.192 393.793L505.168 403.847Z" fill="#263238"/>
<path d="M479.096 390.106L483.108 378.376L513.197 393.793L505.173 403.847L479.096 390.106Z" fill="#37474F"/>
<path d="M462.713 399.825L461.041 391.782L483.107 378.376L479.095 390.106L462.713 399.825Z" fill="#455A64"/>
<path d="M472.743 423.285L462.713 399.825L479.095 390.106L505.173 403.847L515.203 427.307L499.155 437.026L472.743 423.285Z" fill="#455A64"/>
<path d="M525.562 422.95L535.592 408.539L522.887 379.382L513.191 393.793L525.562 422.95Z" fill="#263238"/>
<path d="M483.105 378.376L513.195 393.792L522.891 379.381L493.135 363.965L483.105 378.376Z" fill="#37474F"/>
<path d="M461.039 391.781L470.735 377.37L493.135 363.965L483.105 378.376L461.039 391.781Z" fill="#455A64"/>
<path opacity="0.2" d="M525.565 422.95C521.553 413.231 517.541 403.176 513.529 393.457C505.839 389.436 490.794 381.727 483.105 377.706C475.75 382.398 468.394 386.754 461.039 391.782C468.394 387.76 475.75 383.403 483.105 379.046C490.46 383.068 505.171 390.441 512.86 394.463C514.866 399.155 517.207 403.847 519.212 408.539C521.218 413.231 523.224 418.258 525.565 422.95Z" fill="black"/>
<path d="M493.137 363.965L499.155 362.289L524.229 375.359L522.892 379.381L493.137 363.965Z" fill="#37474F"/>
<path d="M534.594 399.489L535.597 408.538L522.893 379.381L524.23 375.359L534.594 399.489Z" fill="#263238"/>
<g opacity="0.2">
<path d="M535.597 408.538C531.919 398.484 527.573 388.765 523.561 379.046C513.531 374.019 503.501 368.656 493.137 363.964C502.832 369.662 512.862 374.689 522.892 380.051L522.558 379.716C526.57 389.435 530.916 398.819 535.597 408.538Z" fill="black"/>
</g>
<path opacity="0.1" d="M462.713 399.825L479.095 391.446L504.17 404.852L514.2 426.971L499.155 437.026L515.203 427.307L505.173 403.847L479.095 390.106L462.713 399.825Z" fill="white"/>
<path d="M524.9 397.814L523.897 395.803V395.468V395.133C524.232 394.797 524.566 394.462 524.9 394.127C525.235 393.792 525.569 393.792 525.903 393.792C526.238 393.792 526.572 393.792 526.906 394.127C527.241 394.462 527.575 394.797 527.909 395.468C528.244 396.138 528.244 396.473 528.244 397.143C528.244 397.814 528.244 398.484 528.244 399.154C528.244 399.825 527.909 400.495 527.909 401.165C527.575 401.835 527.241 402.506 526.906 403.176C526.572 403.846 526.238 404.181 525.569 404.517C525.235 404.852 524.9 404.852 524.566 404.852C524.232 404.852 523.897 404.852 523.563 404.517C523.229 404.181 522.894 403.846 522.894 403.511C522.894 403.176 522.56 403.176 522.56 402.841C522.56 402.506 522.56 402.171 522.56 402.171L521.557 403.511L523.229 407.198V407.533V407.868L522.226 409.544C522.226 409.544 522.226 409.879 521.891 409.879C521.891 409.879 521.891 409.879 521.557 409.879L519.217 404.181V403.846V403.511L522.894 397.479C522.894 397.479 522.894 397.143 523.229 397.143C523.229 397.143 523.229 397.143 523.563 397.143L524.566 399.154C524.566 399.154 524.566 399.154 524.566 399.489V399.825V400.16V400.495C524.9 400.83 524.9 401.165 525.235 401.165C525.569 401.165 525.903 400.83 525.903 400.495C525.903 400.16 526.238 400.16 526.238 399.825C526.238 399.489 526.238 399.489 526.238 399.154C526.238 398.819 526.238 398.819 526.238 398.484C526.238 398.149 526.238 398.149 526.238 397.814C526.238 397.479 525.903 397.479 525.903 397.479H525.569H525.235C525.235 397.479 525.235 397.814 524.9 397.814Z" fill="#455A64"/>
<path d="M525.57 378.376C526.907 384.073 535.934 395.468 539.278 399.825C566.358 365.975 582.072 362.289 563.349 319.055C559.672 310.007 517.881 319.055 522.561 333.131C517.546 334.137 511.528 341.175 514.203 347.543C508.854 350.559 506.513 359.272 510.86 363.964C513.534 359.272 519.218 356.926 524.233 359.272C531.922 362.959 530.919 372.678 525.57 378.376Z" fill="#FFA8A7"/>
<path d="M350.376 494.67C349.373 514.109 346.698 530.531 346.698 530.531C333.325 575.775 252.752 560.358 198.256 527.85C198.59 516.455 194.244 506.736 188.895 496.346C288.859 529.86 332.991 513.774 350.376 494.67Z" fill="#FFA8A7"/>
<path d="M350.381 470.875C350.715 478.919 350.715 486.962 350.381 495.005C332.996 514.108 288.864 530.195 188.565 496.681C182.881 486.292 176.195 475.567 170.846 462.497C157.138 428.312 155.132 418.928 152.792 393.457C150.786 373.014 158.475 356.592 175.861 352.57C193.246 348.213 200.935 346.202 200.935 346.202L289.867 343.856C294.882 344.191 301.569 342.851 310.261 339.499C319.288 350.224 345.032 380.052 359.742 403.511C368.435 416.247 376.124 447.75 350.381 470.875Z" fill="#37474F"/>
<path d="M132.729 666.263C128.383 661.571 122.699 657.214 121.027 650.847C120.024 647.495 120.359 643.809 122.699 641.128C123.033 640.457 123.702 640.122 123.702 639.452C123.702 638.782 123.702 638.111 123.702 637.776C123.368 635.43 123.033 632.749 124.036 630.403C125.039 628.392 126.711 627.052 128.717 626.381C127.714 622.695 127.714 619.008 128.717 615.322C130.054 611.3 134.4 607.948 137.409 612.64C138.747 614.986 139.75 617.332 140.753 620.014C143.093 626.381 144.096 633.084 144.765 639.452C145.433 646.49 147.105 665.928 136.406 666.934C135.738 666.934 133.397 666.934 132.729 666.263Z" fill="#F28F8F"/>
<path d="M177.528 351.565C171.51 352.235 151.785 349.554 137.743 358.603C118.686 371.003 113.671 389.101 106.984 403.512C82.9125 437.026 54.4945 482.605 46.8049 499.027C37.4436 519.471 35.4377 527.179 57.1691 548.964C68.5363 560.023 84.2499 573.429 99.9634 588.51C112.668 600.576 127.713 612.976 139.749 625.376C143.092 628.727 144.764 631.744 143.426 636.771C142.758 639.452 141.42 642.133 141.42 645.149C141.086 648.836 142.089 652.523 142.423 656.209C142.758 659.896 141.42 664.253 138.077 665.593C136.405 666.263 134.734 666.263 132.728 666.263C135.737 668.609 139.08 670.62 142.758 671.626C146.435 672.631 150.447 672.966 154.125 671.291C157.468 669.615 160.143 666.599 163.486 665.258C165.492 664.588 167.498 664.923 169.504 664.253C171.51 663.582 173.182 662.577 174.519 660.901C176.525 658.22 177.528 654.533 180.203 653.193C181.54 652.523 183.212 652.187 184.549 651.852C187.558 650.512 189.564 647.495 190.233 644.479C190.901 641.463 190.567 638.111 189.898 634.76C188.561 626.381 186.889 617.668 184.549 609.289C183.88 606.273 182.209 603.927 180.537 601.581C178.531 598.9 176.859 595.884 174.519 593.202C160.477 575.105 115.343 514.779 115.343 514.779L178.865 445.069C179.534 445.405 204.274 410.55 177.528 351.565Z" fill="#FFA8A7"/>
<path d="M132.722 666.263C139.743 671.626 150.442 675.647 157.797 668.274C159.469 666.934 161.475 665.258 164.149 664.923C168.83 664.253 173.176 663.582 175.517 658.89C176.52 656.879 177.523 654.533 179.863 652.858C182.203 651.517 184.544 651.517 186.215 650.177C187.887 648.836 189.224 646.825 189.559 644.814C191.23 634.09 186.884 621.69 184.544 610.965C182.872 604.262 177.857 599.235 174.179 593.538L165.821 582.478C149.773 560.694 131.719 536.899 116.006 515.114C132.722 536.228 150.776 560.023 167.158 581.472L175.517 592.532C179.194 598.23 184.878 603.592 186.215 610.63C187.887 617.333 189.224 624.371 190.561 631.073C191.23 635.765 192.233 640.458 191.23 645.15C190.562 647.496 189.224 649.841 187.218 651.182C185.212 652.858 182.203 652.523 180.866 653.863C179.194 654.869 178.191 657.215 176.854 659.225C175.851 661.236 173.845 663.247 171.505 664.253C169.164 665.258 166.824 665.258 164.484 665.593C160.137 666.599 157.128 671.291 152.448 672.296C145.093 674.307 138.072 670.285 132.722 666.263Z" fill="#F28F8F"/>
<path d="M115.677 515.115C103.307 527.515 83.5815 528.52 76.5605 527.85C101.97 538.239 119.689 520.477 119.689 520.477L115.677 515.115Z" fill="#F28F8F"/>
<path d="M292.872 305.65C295.212 303.974 297.552 302.298 299.558 300.288C309.922 290.904 317.278 278.168 319.618 264.427C320.621 259.4 320.621 254.373 321.958 249.346C323.964 240.967 327.308 233.259 329.314 224.545C331.32 215.832 331.32 206.448 329.314 197.399C319.284 154.836 264.454 137.408 227.343 148.803C217.313 151.82 194.913 158.858 189.564 180.642C178.531 186.674 171.175 200.08 170.172 217.507C169.504 232.924 174.184 248.005 182.877 261.076C190.901 273.476 200.596 284.871 210.292 295.931C214.973 301.293 219.653 308.331 225.337 312.353C230.017 316.039 238.041 316.374 244.059 317.045C250.077 317.715 256.43 317.715 262.448 317.045C273.146 315.704 283.845 312.018 292.872 305.65Z" fill="#263238"/>
<path d="M214.302 329.11C215.305 314.363 212.631 288.222 212.631 288.222C204.941 293.25 193.908 288.893 188.893 281.184C182.207 271.13 179.532 256.719 188.224 249.681C198.254 241.638 207.616 243.984 215.305 257.054C226.004 258.06 230.35 251.692 220.989 237.281C221.657 224.545 240.046 222.534 238.04 189.02C264.117 199.074 295.879 174.944 311.927 202.761C324.297 230.578 336.667 303.974 304.571 317.045C296.213 320.396 290.195 321.401 280.165 322.072C280.165 322.072 280.165 329.11 280.5 335.477C280.5 340.505 283.509 342.851 289.527 344.191C295.879 351.564 311.592 364.635 276.488 369.997C231.687 377.035 204.941 351.564 200.26 346.202C212.631 341.845 213.634 338.159 214.302 329.11Z" fill="#FFA8A7"/>
<path d="M261.109 280.515L280.165 285.207C276.822 298.612 257.765 293.25 261.109 280.515Z" fill="#B16668"/>
<path d="M262.447 284.872C267.796 284.202 272.142 287.553 273.48 292.58C268.13 294.926 261.778 290.905 261.109 285.207C261.444 285.207 262.112 284.872 262.447 284.872Z" fill="#F28F8F"/>
<path d="M311.257 223.205L296.547 219.854C298.887 209.799 313.932 213.486 311.257 223.205Z" fill="#263238"/>
<path d="M244.727 228.232L258.769 221.529C254.757 212.145 240.715 219.183 244.727 228.232Z" fill="#263238"/>
<path d="M296.546 238.956C295.878 247 308.917 247.67 309.251 239.292C309.92 231.248 296.881 230.913 296.546 238.956Z" fill="#263238"/>
<path d="M250.412 240.967C249.743 249.011 262.782 249.681 263.116 241.303C263.785 233.259 250.746 232.589 250.412 240.967Z" fill="#263238"/>
<path d="M304.569 260.405L283.841 270.795L277.154 229.572L304.569 260.405Z" fill="#F28F8F"/>
<path d="M280.502 321.402C252.752 319.726 232.358 310.007 226.006 299.952C230.686 328.104 276.155 330.115 280.502 330.115V321.402Z" fill="#F28F8F"/>
<path d="M96.2871 211.14L121.028 290.904L117.35 172.599L68.2034 187.345L35.1047 118.306L49.8152 227.562L96.2871 211.14ZM43.4629 283.196L0 257.39L48.1435 312.353L67.869 286.212L110.663 321.067L65.1944 257.055L43.4629 283.196Z" fill="#FF0000"/>
<path d="M1006.36 211.14L981.615 290.904L985.293 172.599L1034.44 187.345L1067.54 118.306L1052.83 227.562L1006.36 211.14ZM1059.18 283.196L1102.64 257.39L1054.5 312.353L1034.77 286.212L991.979 321.067L1037.45 257.055L1059.18 283.196Z" fill="#FF0000"/>
<path d="M329.983 104.9L341.685 90.1535C350.712 78.7586 370.771 49.9364 362.079 23.7953C357.064 8.37872 340.347 0.000156641 324.968 5.36243C313.601 9.049 304.574 28.4873 308.586 41.5578C304.24 28.4873 285.517 18.7681 274.15 22.4547C258.771 27.4818 250.413 44.239 255.762 59.6555C264.454 85.7966 297.887 96.8563 311.929 100.543L329.983 104.9Z" fill="#FF0000"/>
<path d="M763.612 164.89C809.035 164.89 845.858 127.978 845.858 82.445C845.858 36.9119 809.035 0 763.612 0C718.19 0 681.367 36.9119 681.367 82.445C681.367 127.978 718.19 164.89 763.612 164.89Z" fill="#FF0000"/>
<path d="M763.613 146.123C798.695 146.123 827.135 117.613 827.135 82.4456C827.135 47.2777 798.695 18.7686 763.613 18.7686C728.53 18.7686 700.09 47.2777 700.09 82.4456C700.09 117.613 728.53 146.123 763.613 146.123Z" fill="white"/>
<path d="M763.614 128.359C788.91 128.359 809.417 107.803 809.417 82.4448C809.417 57.0869 788.91 36.5303 763.614 36.5303C738.317 36.5303 717.811 57.0869 717.811 82.4448C717.811 107.803 738.317 128.359 763.614 128.359Z" fill="#FF0000"/>
<path d="M763.612 111.267C779.491 111.267 792.364 98.3629 792.364 82.4448C792.364 66.5267 779.491 53.6226 763.612 53.6226C747.732 53.6226 734.859 66.5267 734.859 82.4448C734.859 98.3629 747.732 111.267 763.612 111.267Z" fill="white"/>
<path d="M763.612 96.1863C771.182 96.1863 777.319 90.0343 777.319 82.4454C777.319 74.8566 771.182 68.7046 763.612 68.7046C756.041 68.7046 749.904 74.8566 749.904 82.4454C749.904 90.0343 756.041 96.1863 763.612 96.1863Z" fill="#FF0000"/>
<path d="M431.623 84.1215C413.235 96.1866 401.199 114.284 396.184 134.058L394.513 143.442C392.172 162.21 395.85 182.318 407.217 199.41C432.292 237.952 483.779 249.012 522.227 223.876C539.278 212.816 550.979 196.059 556.328 177.961L558.669 168.577C562.346 148.469 558.669 127.02 546.633 108.587C521.558 70.3807 470.071 59.321 431.623 84.1215Z" fill="white"/>
<path d="M427.944 78.4243C390.499 102.89 377.126 150.48 394.511 190.027L378.129 212.816C375.454 216.838 378.797 221.865 383.478 220.86L410.893 215.162C439.98 247.001 488.792 254.039 526.237 229.909C568.028 202.762 579.73 146.793 552.649 104.901C525.568 63.0078 469.735 51.2778 427.944 78.4243ZM546.631 108.587C558.667 127.02 562.345 148.469 558.667 168.578L556.327 177.962C550.977 196.059 539.276 212.816 522.225 223.876C483.777 249.012 432.29 237.952 407.215 199.411C396.183 182.318 392.171 162.21 394.511 143.442L396.183 134.058C401.198 114.285 413.233 96.1869 431.622 84.1217C470.07 59.3212 521.556 70.3809 546.631 108.587Z" fill="#455A64"/>
<path opacity="0.7" d="M546.63 108.587C558.666 127.02 562.343 148.469 558.666 168.577L556.326 177.961C550.976 196.059 539.275 212.816 522.224 223.876C483.776 249.012 432.289 237.952 407.214 199.41C396.181 182.318 392.169 162.21 394.51 143.442L396.181 134.058C401.196 114.284 413.232 96.1866 431.62 84.1215C470.068 59.321 521.555 70.3807 546.63 108.587Z" fill="white"/>
<path d="M465.384 198.07C462.04 198.07 459.031 196.73 456.691 194.384L429.61 165.226C425.264 160.534 425.264 152.826 430.279 148.134C434.96 143.442 442.649 143.777 447.33 148.804L465.049 167.572L506.172 114.62C510.184 109.257 517.873 108.587 522.888 112.609C528.238 116.631 528.906 124.339 524.894 129.366L474.745 193.043C472.739 195.724 469.396 197.4 465.718 197.735C465.718 198.07 465.718 198.07 465.384 198.07Z" fill="#FF0000"/>
<path d="M1113 420.596C1089.17 414.624 1065 429.555 1059.04 453.445C1053.09 477.335 1067.98 501.557 1091.81 507.529C1109.36 511.843 1126.57 505.207 1137.16 491.934C1127.56 484.635 1102.41 464.063 1102.41 464.063L1113 420.596ZM1158.35 477.667C1165.3 449.463 1149.74 420.928 1123.26 410.642L1124.58 404.669L1130.87 406.328C1131.87 406.66 1132.53 405.997 1132.86 405.333L1135.51 394.715C1135.84 393.72 1135.18 393.056 1134.51 392.724L1107.37 386.088C1106.38 385.756 1105.72 386.42 1105.39 387.084L1102.74 397.701C1102.41 398.697 1103.07 399.361 1103.73 399.692L1110.02 401.351L1108.7 407.324C1097.77 406.328 1086.85 408.319 1077.25 412.965L1075.26 409.646L1078.9 407.324C1079.24 406.992 1079.57 406.328 1079.24 405.997L1075.59 399.692C1075.26 399.361 1074.6 399.029 1074.27 399.361L1058.38 408.983C1058.05 409.315 1057.72 409.978 1058.05 410.31L1061.69 416.614C1062.02 416.946 1062.69 417.278 1063.02 416.946L1066.66 414.624L1068.64 417.942C1058.05 425.573 1050.44 436.855 1047.13 450.459C1039.52 481.317 1058.71 512.506 1089.5 519.806C1119.95 527.438 1151.06 508.525 1158.35 477.667ZM1090.49 513.502C1063.35 506.866 1046.47 479.326 1053.09 452.118C1059.71 424.91 1087.18 407.987 1114.32 414.624C1141.46 421.26 1158.35 448.8 1151.73 476.008C1145.44 503.216 1117.96 520.138 1090.49 513.502Z" fill="#FF0000"/>
</svg>
