<svg width="1160" height="1400" viewBox="0 0 1160 1400" fill="none" xmlns="http://www.w3.org/2000/svg">
<path d="M844.911 1038.21H347.506V1342.68H844.911V1038.21Z" fill="#455A64"/>
<path d="M834.03 1136.52H335.025C304.957 1136.52 280.646 1113.1 280.646 1084.13V1081.97C280.646 1053 304.957 1029.58 335.025 1029.58H834.03C864.098 1029.58 888.409 1053 888.409 1081.97V1084.13C888.409 1112.79 864.098 1136.52 834.03 1136.52Z" fill="#455A64"/>
<path d="M845.871 1134.98C845.871 1135.28 729.757 1135.59 586.133 1135.59C442.829 1135.59 326.395 1135.28 326.395 1134.98C326.395 1134.67 442.509 1134.36 586.133 1134.36C729.437 1134.05 845.871 1134.67 845.871 1134.98Z" fill="#263238"/>
<path d="M414.042 1345.15C413.722 1345.15 413.402 1298.61 413.402 1241.6C413.402 1184.28 413.722 1138.06 414.042 1138.06C414.362 1138.06 414.682 1184.59 414.682 1241.6C414.682 1298.92 414.362 1345.15 414.042 1345.15Z" fill="#263238"/>
<path d="M728.478 1093.37C728.158 1093.37 727.839 1090.29 726.559 1085.36C725.28 1080.43 723.36 1073.96 720.162 1066.87C716.963 1059.78 713.124 1053.93 710.245 1049.92C707.367 1045.92 705.447 1043.45 705.447 1043.14C705.447 1043.14 708.006 1045.3 711.205 1049.31C714.404 1053.31 718.242 1059.17 721.441 1066.26C724.64 1073.34 726.559 1080.12 727.519 1085.05C728.478 1089.98 728.478 1093.37 728.478 1093.37Z" fill="#263238"/>
<path d="M755.018 1077.35C754.698 1077.35 753.739 1074.27 750.86 1069.65C748.301 1065.02 743.823 1059.17 737.425 1053.62C731.028 1048.38 724.31 1044.99 719.192 1043.14C714.074 1041.29 710.556 1040.68 710.876 1040.37C710.876 1040.37 711.835 1040.37 713.435 1040.68C715.034 1040.99 717.273 1041.29 719.832 1042.22C725.27 1043.76 732.307 1047.15 738.705 1052.7C745.102 1058.24 749.58 1064.41 752.139 1069.34C753.419 1071.8 754.059 1073.65 754.698 1075.19C755.018 1076.43 755.338 1077.35 755.018 1077.35Z" fill="#263238"/>
<g opacity="0.3">
<path d="M458.496 1031.74C478.328 1137.44 512.875 1246.22 561.496 1342.99H583.887C593.163 1330.66 589.965 1313.71 584.207 1299.85C578.449 1285.98 570.452 1272.11 570.452 1257.01C570.452 1247.77 573.651 1238.83 574.931 1229.58C579.409 1194.14 554.139 1161.48 548.381 1126.04C546.142 1113.1 547.421 1098.3 557.657 1089.98C566.614 1082.59 579.409 1081.97 591.244 1082.28C621.952 1082.9 653.3 1086.59 683.368 1080.12C713.436 1073.65 743.185 1053.62 749.262 1024.65C652.34 1026.81 555.418 1029.28 458.496 1031.74Z" fill="black"/>
</g>
<path d="M750.558 700.154L848.119 674.884C848.119 674.884 827.327 615.408 811.014 572.265C796.619 534.36 772.629 518.336 760.154 510.015C755.036 506.625 749.278 504.16 742.881 503.544C719.85 500.462 656.834 492.45 625.486 489.984C586.782 486.903 505.853 507.55 505.853 507.55C505.853 507.55 434.841 545.454 410.85 560.863C405.093 564.561 400.614 570.108 398.055 576.271C393.577 587.673 388.139 607.396 381.422 632.974C377.264 649.307 362.869 702.619 362.869 702.619L446.037 700.154C462.67 749.152 478.344 793.22 478.344 793.22L463.31 883.513C463.31 883.513 576.865 927.273 605.974 924.191C635.083 921.109 766.551 872.111 766.551 872.111C766.551 872.111 751.517 729.122 751.517 724.807C751.837 722.958 751.197 712.481 750.558 700.154Z" fill="#FF0000"/>
<g opacity="0.3">
<path d="M654.593 604.623C648.515 597.227 637.959 594.145 628.043 595.069C618.127 595.994 609.171 600.616 600.854 605.855C575.584 622.496 557.671 647.15 541.997 672.111C514.488 715.871 491.137 762.096 472.584 809.862L473.224 822.188C494.016 819.723 507.45 802.774 516.407 784.9C525.363 766.718 529.202 746.687 537.199 728.197C552.233 692.758 582.301 663.791 619.087 649.307C631.562 650.539 644.677 646.841 652.674 637.596C660.99 628.66 662.27 614.176 654.593 604.623Z" fill="black"/>
</g>
<path d="M751.513 715.562C751.194 715.562 748.315 689.676 745.436 657.319C742.557 625.27 740.318 599.075 740.958 599.075C741.277 599.075 744.156 624.961 747.035 657.319C749.914 689.676 752.153 715.562 751.513 715.562Z" fill="#263238"/>
<path d="M423.961 599.384C423.961 599.384 424.601 600.925 425.24 603.39C425.88 606.472 426.84 610.17 428.119 614.484C430.358 624.037 433.237 636.98 436.436 651.464C439.635 665.948 442.514 678.891 444.433 688.444C445.393 693.066 446.032 696.764 446.672 699.538C447.312 702.311 447.312 703.544 447.312 703.852C447.312 703.852 446.672 702.311 446.032 699.846C445.393 696.764 444.433 693.066 443.153 688.752C440.914 679.199 438.035 666.256 434.837 651.772C431.638 637.288 428.759 624.345 426.84 614.792C425.88 610.17 425.24 606.472 424.601 603.698C423.961 600.925 423.961 599.384 423.961 599.384Z" fill="#263238"/>
<path d="M736.806 504.469C737.446 504.469 734.567 514.946 732.648 528.197C730.729 541.449 730.409 551.926 729.769 551.926C729.449 551.926 729.449 549.153 729.449 544.838C729.449 540.524 730.089 534.361 731.049 527.889C732.008 521.418 733.288 515.254 734.567 511.248C735.527 506.934 736.487 504.16 736.806 504.469Z" fill="#263238"/>
<path d="M750.56 700.154C749.6 700.462 775.19 785.208 775.19 785.208L699.699 779.352L664.193 821.879L792.783 867.488C792.783 867.488 872.432 833.282 872.432 830.2C872.432 827.118 843.643 676.117 843.643 676.117L750.56 700.154Z" fill="#886962"/>
<path d="M695.222 710.015C695.222 709.707 697.141 710.323 699.06 708.166C700.02 707.241 700.98 705.392 700.66 703.543C700.66 701.694 698.74 699.537 696.181 698.613C693.622 697.688 690.424 697.996 687.865 700.154C686.585 701.078 685.626 702.619 684.666 704.16C684.346 705.084 684.026 705.701 683.706 706.625C683.386 707.55 683.067 708.474 683.706 709.09C684.026 709.707 684.986 709.707 685.945 709.707C686.905 709.399 687.545 708.782 688.185 708.166C689.464 706.625 689.784 704.468 689.144 702.619C687.865 698.613 682.107 697.072 677.949 698.921C675.709 699.845 673.79 701.386 672.191 703.235C671.551 704.16 670.911 705.392 670.591 706.317C670.591 707.241 671.231 708.474 672.191 708.474C673.15 708.782 674.43 708.166 675.39 707.55C676.349 706.933 676.669 705.701 676.989 704.468C677.309 702.003 675.709 699.229 673.79 697.996C671.551 696.456 668.672 696.147 665.793 697.072C662.914 697.688 660.355 699.537 659.396 702.003C658.756 703.235 658.756 704.776 659.076 705.701C659.716 706.933 660.995 707.55 662.275 707.55C663.554 707.55 665.154 706.625 665.793 705.701C666.433 704.776 666.753 703.235 666.113 701.694C665.154 698.921 662.275 697.072 659.076 697.38C655.877 697.38 652.998 699.229 650.439 701.386C649.16 702.619 647.88 703.543 647.241 705.084C646.281 706.317 645.641 707.858 646.281 709.09C646.921 710.323 648.52 710.631 649.8 710.015C651.079 709.399 651.719 707.858 651.719 706.317C651.719 703.235 649.48 700.154 646.601 698.305C643.722 696.456 639.883 696.147 636.685 697.688C635.085 698.305 633.486 699.229 632.526 700.462C631.567 701.694 630.927 703.235 630.927 704.776C631.247 707.858 636.685 708.474 638.284 706.009C640.203 703.543 638.924 699.229 636.045 697.688C633.166 695.839 629.328 695.839 626.129 697.072C624.529 697.688 622.93 698.613 621.331 699.537C619.731 700.462 618.452 701.386 617.492 702.927C616.533 704.16 616.533 705.701 617.172 707.241C617.812 708.474 619.411 709.09 620.691 708.166C621.97 707.55 622.61 706.009 622.29 704.468C622.29 702.927 621.331 701.386 620.371 700.154C618.452 697.688 614.933 696.456 611.734 696.764C608.536 697.072 605.657 698.921 604.057 701.694C603.418 702.927 603.098 704.468 603.738 705.701C604.377 706.933 605.657 707.55 606.936 707.241C608.216 706.933 609.495 706.317 610.135 705.084C610.775 703.852 610.455 702.311 610.135 701.078C609.175 698.305 606.297 696.764 603.418 696.456C600.539 695.839 597.34 695.839 594.781 696.764C592.222 697.688 589.663 699.537 589.023 702.003C588.703 704.468 589.663 707.55 592.222 708.166C594.461 708.782 597.02 706.933 597.66 704.776C598.3 702.619 597.34 700.154 595.741 698.305C594.141 696.456 591.902 695.223 589.663 694.915C584.865 693.682 580.067 695.223 576.868 697.996C575.269 699.537 573.989 701.078 573.669 702.927C573.349 704.776 573.989 706.625 575.269 707.858C576.548 709.09 578.787 708.782 580.067 707.858C581.346 706.933 581.986 705.084 581.666 703.543C581.346 700.462 578.787 697.996 576.548 696.764C573.989 695.531 571.75 695.223 569.511 695.839C567.592 696.147 565.992 697.072 564.713 697.996C562.474 699.845 562.154 701.386 561.834 701.386C561.834 701.386 561.834 701.078 562.154 700.462C562.474 699.845 563.113 698.921 564.393 697.996C565.353 697.072 566.952 696.147 569.191 695.531C571.43 694.915 573.989 695.223 576.548 696.456C579.107 697.688 581.666 700.154 582.306 703.543C582.626 705.392 581.986 707.241 580.387 708.474C579.107 710.015 576.228 710.015 574.629 708.782C573.03 707.55 572.07 705.084 572.71 702.927C573.03 700.77 574.309 698.921 576.228 697.38C579.747 694.298 584.865 692.758 589.983 693.99C592.542 694.607 595.101 695.839 596.7 697.996C598.62 699.845 599.899 702.927 598.939 705.701C598.62 707.241 597.66 708.474 596.38 709.399C595.101 710.323 593.502 710.631 591.902 710.323C590.303 710.015 589.023 708.474 588.384 707.241C587.744 705.701 587.424 704.16 587.744 702.619C588.384 699.229 591.262 697.072 594.461 696.456C597.66 695.531 600.859 695.531 604.057 696.147C607.256 696.764 610.775 698.613 612.054 701.694C612.694 703.235 613.014 705.084 612.054 706.933C611.415 708.782 609.495 709.707 607.576 710.015C605.657 710.323 603.418 709.399 602.458 707.55C601.498 705.701 601.818 703.852 602.778 702.311C604.377 698.921 607.896 697.072 611.734 696.456C615.573 696.147 619.411 697.688 621.651 700.462C622.93 702.003 623.89 703.543 623.89 705.392C624.21 707.241 623.25 709.707 621.331 710.631C620.371 711.248 619.092 711.248 618.132 710.939C616.852 710.631 616.213 709.707 615.573 708.782C614.613 706.933 614.613 704.468 615.893 702.927C616.852 701.386 618.772 700.154 620.371 699.229C621.97 698.305 623.57 697.38 625.489 696.764C629.008 695.531 633.486 695.223 637.005 697.38C640.523 699.537 642.442 704.468 639.564 708.166C638.284 710.015 635.725 710.631 633.806 710.323C632.846 710.015 631.567 709.707 630.927 709.09C629.967 708.474 629.328 707.241 629.328 706.317C629.008 704.16 629.967 702.003 631.247 700.77C632.526 699.229 634.126 697.996 636.045 697.38C639.564 695.839 644.042 696.147 647.56 698.305C650.759 700.462 653.318 703.852 653.318 707.55C653.318 709.399 652.359 711.556 650.439 712.48C649.48 712.788 648.52 713.097 647.241 712.788C646.281 712.48 645.001 711.864 644.682 710.631C643.722 708.474 644.682 706.625 645.641 705.084C646.601 703.543 647.88 702.311 649.16 701.078C651.719 698.921 655.237 696.764 658.756 696.764C660.675 696.764 662.595 697.072 664.194 697.996C665.793 698.921 667.073 700.462 667.713 702.003C668.352 703.543 668.352 705.701 667.073 707.241C666.113 708.782 664.194 709.707 662.275 709.707C660.355 710.015 658.436 708.782 657.477 707.241C656.517 705.392 656.837 703.543 657.796 702.311C659.076 699.229 662.275 697.38 665.154 696.456C668.352 695.531 671.551 695.839 674.43 697.688C676.989 699.537 678.588 702.619 678.268 705.392C678.268 708.474 675.39 711.248 671.871 710.939C670.272 710.631 668.992 708.782 669.312 707.241C669.632 705.701 670.272 704.468 670.911 703.543C672.511 701.386 674.75 699.845 677.309 698.921C682.107 696.764 688.504 698.613 690.104 703.235C690.744 705.392 690.424 707.858 688.824 709.707C688.185 710.631 687.225 711.248 685.945 711.556C684.986 711.864 683.386 711.556 682.747 710.631C682.107 709.399 682.427 708.474 682.747 707.55C683.067 706.625 683.386 705.701 683.706 705.084C684.666 703.543 685.626 702.003 687.225 701.078C690.104 698.921 693.622 698.613 696.501 699.537C699.38 700.462 700.98 702.927 701.299 705.084C701.299 707.241 700.34 709.09 699.38 710.015C697.141 710.631 695.222 710.015 695.222 710.015Z" fill="#263238"/>
<path d="M561.194 701.078L517.051 861.324L657.156 865.639L700.979 707.241L561.194 701.078Z" fill="#455A64"/>
<path d="M561.191 701.078L555.433 701.694L510.971 849.614L517.688 858.551L561.191 701.078Z" fill="#E0E0E0"/>
<path d="M653.641 742.065H699.063C699.063 742.065 706.1 741.756 708.979 748.228C712.178 755.008 711.538 760.863 711.538 760.863C711.538 760.863 714.097 763.944 714.737 769.8C715.057 775.655 715.057 792.604 714.737 793.837C714.417 795.069 709.619 796.302 709.619 796.302C709.619 796.302 712.818 803.082 709.939 808.012C707.38 812.943 703.541 814.176 703.541 814.176C703.541 814.176 697.464 827.735 691.386 829.276C685.308 830.816 679.551 829.276 676.672 829.276C673.473 829.276 624.212 804.931 624.212 804.931V799.384C624.212 799.384 606.619 800.924 606.299 791.679C605.979 782.434 617.815 783.051 617.815 783.051H644.364C644.364 783.051 614.936 784.283 612.377 779.969C609.818 775.655 606.299 765.793 615.256 763.944C624.212 762.404 664.517 762.404 664.517 762.404L686.588 765.793H690.107L687.228 756.548C687.228 756.548 664.197 756.548 660.678 755.932C657.159 755.624 650.762 754.699 650.762 748.844C650.762 743.297 653.641 742.065 653.641 742.065Z" fill="#886962"/>
<path d="M679.229 785.824C679.229 786.133 676.031 786.441 670.593 786.441C665.475 786.441 658.118 786.441 650.121 785.824C642.124 785.208 634.767 784.592 629.649 783.667C624.531 783.051 621.332 782.435 621.332 782.126C621.332 781.818 624.531 782.126 629.969 782.435C635.087 782.743 642.444 783.359 650.441 783.975C658.438 784.592 665.475 784.9 670.913 784.9C676.031 785.516 679.229 785.824 679.229 785.824Z" fill="#654742"/>
<path d="M675.073 809.553C675.073 809.861 672.194 809.861 667.396 809.245C662.597 808.937 656.2 808.012 649.163 807.088C642.125 805.855 635.728 804.622 631.25 803.698C626.772 802.773 623.893 801.849 623.893 801.541C623.893 801.233 626.772 801.849 631.25 802.465C636.368 803.39 642.445 804.314 649.163 805.239C655.88 806.163 661.958 807.088 667.076 808.012C672.194 808.937 675.073 809.245 675.073 809.553Z" fill="#654742"/>
<path d="M713.137 776.578C713.137 776.578 713.777 776.886 714.737 777.503C715.696 778.119 716.976 779.66 717.616 781.817C718.255 783.974 718.575 786.748 717.296 789.521C716.016 792.295 713.137 795.068 709.619 795.993L710.258 794.76C712.498 797.842 712.817 802.156 711.538 806.162C710.258 810.168 707.38 813.25 703.541 814.483L704.181 813.866C702.262 820.954 697.783 825.577 694.265 828.35C692.345 829.583 691.066 830.507 689.786 831.124C688.827 831.74 688.187 831.74 687.867 831.74C687.867 831.432 690.106 830.507 693.305 827.734C696.504 824.96 700.662 820.338 702.262 813.866V813.558H702.581C705.78 812.325 708.339 809.552 709.299 806.162C710.578 802.772 709.939 799.074 708.339 796.301L707.699 795.376L708.979 795.068C712.178 794.452 714.737 791.987 716.016 789.829C717.296 787.364 716.976 784.899 716.656 783.05C715.376 778.119 712.817 776.578 713.137 776.578Z" fill="#654742"/>
<path d="M605.972 568.257L634.121 513.711L625.484 489.983C625.484 489.983 667.708 469.027 653.313 425.884C646.276 405.237 628.363 363.634 611.73 326.038C593.817 285.668 546.795 265.329 503.612 279.505L499.454 281.046C454.031 298.611 444.435 345.452 463.947 388.596L520.885 548.842L605.972 568.257Z" fill="#886962"/>
<path d="M625.491 489.673C625.491 489.673 598.302 501.076 562.156 492.447C562.156 492.447 586.467 518.949 629.65 500.459L625.491 489.673Z" fill="#654742"/>
<path d="M613.011 359.935C614.291 363.016 612.371 366.714 609.173 367.947C605.654 369.18 601.815 367.639 600.856 364.557C599.576 361.475 601.496 357.777 604.694 356.545C608.213 355.004 611.732 356.545 613.011 359.935Z" fill="#263238"/>
<path d="M609.173 347.613C608.533 348.538 602.776 346.689 595.738 349.154C589.021 351.311 585.182 356.242 583.903 355.626C583.263 355.317 583.583 353.777 585.502 351.311C587.102 349.154 590.3 346.381 594.459 345.148C598.617 343.915 602.776 344.223 605.335 345.148C608.213 345.764 609.493 346.997 609.173 347.613Z" fill="#263238"/>
<path d="M550.29 379.969C551.57 383.051 549.651 386.749 546.452 387.981C542.933 389.214 539.095 387.673 538.135 384.591C536.856 381.51 538.775 377.812 541.974 376.579C545.172 375.038 549.011 376.579 550.29 379.969Z" fill="#263238"/>
<path d="M542.953 367.023C542.633 368.255 536.236 367.023 529.838 369.796C523.121 372.57 519.922 378.117 518.962 377.5C518.323 377.192 518.643 375.651 519.922 373.186C521.202 370.721 524.08 367.947 528.239 366.098C532.397 364.249 536.556 364.249 539.115 364.865C541.674 365.482 543.273 366.406 542.953 367.023Z" fill="#263238"/>
<path d="M584.519 413.558C584.199 413.25 588.357 411.093 595.075 408.011C596.674 407.395 598.274 406.471 598.274 405.238C598.274 404.005 596.994 402.464 595.395 400.615C592.196 397.226 588.997 393.528 585.798 389.521C572.364 373.497 561.808 360.246 562.448 359.937C563.087 359.321 574.603 371.956 588.038 387.672C591.236 391.679 594.435 395.377 597.314 399.075C598.593 400.924 600.513 402.464 600.513 405.238C600.513 406.779 599.553 408.011 598.593 408.628C597.634 409.244 596.674 409.552 595.715 409.86C588.997 412.634 584.519 413.867 584.519 413.558Z" fill="#263238"/>
<path d="M533.682 343.912C533.682 346.07 526.645 347.302 518.968 350.692C511.291 354.082 505.533 358.396 503.934 357.164C503.294 356.547 503.614 354.39 505.853 351.925C507.772 349.459 511.291 346.378 516.089 344.221C520.567 342.063 525.365 341.447 528.564 341.755C531.763 342.063 533.682 342.988 533.682 343.912Z" fill="#263238"/>
<path d="M601.18 329.738C600.54 331.587 595.103 331.587 589.665 333.436C583.907 334.977 579.429 337.751 577.829 336.518C577.19 335.902 577.19 334.053 578.789 332.204C580.388 330.046 583.267 327.889 587.426 326.657C591.264 325.424 595.103 325.732 597.662 326.657C600.221 327.581 601.5 328.814 601.18 329.738Z" fill="#263238"/>
<path d="M478.366 418.796C477.407 418.796 444.779 420.028 455.975 448.996C467.171 477.964 495 461.014 494.68 460.398C494.36 459.474 478.366 418.796 478.366 418.796Z" fill="#886962"/>
<path d="M481.144 452.697C480.824 452.697 480.824 453.314 479.865 453.93C479.225 454.546 477.626 455.471 476.026 455.471C472.508 455.471 468.029 451.465 465.79 446.534C464.831 444.069 464.191 441.295 464.511 438.83C464.511 436.364 465.47 434.515 467.07 433.591C468.669 432.666 469.949 433.283 470.588 433.899C471.228 434.516 471.228 435.132 471.548 435.132C471.548 435.132 471.868 434.515 471.228 433.283C470.908 432.666 470.269 432.05 469.309 431.742C468.349 431.434 467.07 431.434 466.11 432.05C463.871 432.975 462.591 435.748 462.272 438.522C461.952 441.295 462.272 444.377 463.551 447.15C466.11 453.005 471.228 457.32 476.026 457.012C478.265 456.703 479.865 455.471 480.505 454.546C481.464 453.314 481.464 452.697 481.144 452.697Z" fill="#654742"/>
<path d="M565.983 424.654C566.942 424.346 569.501 431.434 577.818 434.515C585.815 437.597 593.492 434.207 593.812 435.132C594.132 435.44 592.532 436.981 589.334 438.213C586.135 439.446 581.017 440.062 575.899 438.213C571.101 436.364 567.902 432.666 566.622 429.893C565.343 426.811 565.343 424.962 565.983 424.654Z" fill="#263238"/>
<path d="M622.61 262.557C620.051 257.319 614.293 253.621 608.216 252.696C607.576 251.155 606.936 249.306 605.976 248.074C600.539 239.137 588.063 234.206 578.147 238.212C573.989 231.433 565.352 226.81 557.036 227.426C548.719 227.735 540.722 232.973 537.203 240.369C527.607 236.363 515.452 238.52 507.775 245.916C506.815 246.841 505.856 247.765 505.536 248.998C505.216 249.923 505.536 250.847 506.175 251.463C502.017 248.074 495.939 246.841 490.502 248.382C488.582 248.998 486.983 249.923 485.384 250.847C480.905 253.004 477.067 256.394 475.148 261.017C461.713 260.708 448.918 272.111 447.958 285.054C438.362 288.752 431.325 298.613 431.645 308.782C425.567 311.248 420.769 317.103 420.129 323.574C419.489 330.046 422.368 336.825 427.806 340.523C427.806 340.523 408.294 351.926 420.129 368.567C426.207 376.887 438.682 371.032 438.682 371.032L475.467 424.961C475.148 425.269 481.865 430.816 485.064 428.351C488.262 425.577 488.902 421.263 489.862 417.565C491.141 412.943 492.421 408.628 492.101 404.006C491.781 399.383 488.582 394.453 483.784 393.836C488.582 390.446 490.182 384.283 489.222 378.736C488.262 373.189 485.384 368.258 482.825 363.328C478.666 355.932 474.508 348.844 470.349 341.448C481.225 337.75 489.542 327.58 490.821 316.486C500.738 319.876 512.893 312.48 513.852 302.311C520.89 311.556 536.564 313.713 546.16 306.933C547.119 313.405 560.234 315.254 566.952 314.946C573.669 314.637 580.067 307.858 580.067 307.858C580.067 307.858 588.063 309.399 593.821 308.166C594.141 308.166 594.141 308.166 594.461 307.858C603.417 306.009 609.175 295.531 610.775 287.211C613.014 286.594 615.253 285.67 617.172 284.437C623.57 278.89 625.809 269.645 622.61 262.557Z" fill="#263238"/>
<path d="M373.104 702.003C373.104 702.003 353.592 769.8 349.433 786.441C345.275 803.082 345.275 841.602 354.871 853.005C364.467 864.407 396.775 871.803 396.775 871.803C396.775 871.803 460.11 841.911 481.542 805.855C502.973 769.491 561.83 670.878 561.83 670.878L543.277 621.572L445.076 711.556L446.035 699.846L373.104 702.003Z" fill="#886962"/>
<path d="M577.823 465.947C581.342 464.406 585.5 465.639 587.099 469.029L643.397 577.195L629.003 583.359L574.624 474.884C573.025 471.494 574.304 467.796 577.823 465.947Z" fill="#455A64"/>
<path d="M540.08 624.653L592.859 572.265H643.4L675.707 613.559C675.707 613.559 660.353 616.332 654.915 608.32L647.878 598.459C647.878 598.459 654.915 613.559 651.077 620.955C651.077 620.955 643.4 638.212 642.44 640.061C640.201 643.451 638.282 645.608 631.884 644.684C625.167 643.759 614.931 638.52 616.21 634.822C617.49 631.124 621.008 630.508 621.008 630.508L605.654 628.351C605.654 628.351 590.3 655.47 580.704 661.633C571.428 668.104 561.832 670.57 561.832 670.57L540.08 624.653Z" fill="#886962"/>
<path d="M446.991 710.016C446.991 710.324 442.833 712.173 436.116 715.871C429.398 719.569 420.442 725.424 411.485 733.128C402.529 740.833 395.812 748.537 391.013 754.7C386.215 760.555 383.976 764.561 383.656 764.561C383.656 764.561 383.976 763.329 385.256 761.48C386.215 759.631 388.134 757.165 390.054 754.084C394.532 747.92 401.569 739.908 410.206 732.204C419.162 724.5 428.439 718.953 435.156 715.255C438.675 713.406 441.554 712.173 443.473 711.249C446.032 710.324 446.991 710.016 446.991 710.016Z" fill="#654742"/>
<path d="M604.375 587.365C604.375 587.057 607.254 586.749 611.732 586.132C616.21 585.516 622.608 584.9 629.645 584.283C631.564 584.283 633.164 583.975 635.083 584.283C637.002 584.591 638.602 585.208 639.881 586.132C642.44 587.981 644.039 590.447 645.319 592.296C647.238 596.302 647.878 599.075 647.558 599.075C647.238 599.075 646.279 596.61 644.04 592.604C642.76 590.755 641.161 588.598 638.922 587.057C637.642 586.44 636.362 585.824 634.763 585.516C633.164 585.208 631.564 585.516 629.965 585.516C622.928 586.132 616.53 586.44 612.052 586.749C607.254 587.673 604.375 587.673 604.375 587.365Z" fill="#654742"/>
<path d="M644.679 637.288C644.359 637.288 644.999 633.59 644.679 627.735C644.359 624.653 644.039 621.263 643.08 617.565C642.12 613.868 640.841 609.553 637.002 607.396C635.083 606.163 632.844 605.855 630.925 605.239C628.686 604.623 626.766 604.314 624.847 604.006C621.008 603.082 617.17 602.774 614.291 602.465C608.213 602.157 604.375 603.082 604.375 602.773C604.375 602.773 605.335 602.465 606.934 601.849C608.533 601.541 611.092 601.233 614.291 601.233C617.49 601.233 621.008 601.849 625.167 602.465C627.086 602.774 629.325 603.39 631.564 603.698C633.803 604.314 636.043 604.622 638.282 605.855C640.521 607.088 642.12 609.245 643.08 611.094C644.039 613.251 644.679 615.1 644.999 617.257C645.959 621.264 645.959 624.653 646.279 627.735C646.279 630.817 645.959 633.282 645.959 634.823C644.999 636.364 644.679 637.288 644.679 637.288Z" fill="#654742"/>
<path d="M626.122 619.722C626.441 619.722 626.761 624.036 626.761 629.583V630.508L625.802 630.199C625.162 630.199 624.842 629.891 624.202 629.891C621.004 629.891 618.445 631.432 617.165 632.973C615.886 634.514 615.246 635.746 614.926 635.438C614.606 635.438 614.926 633.897 616.205 632.048C617.485 630.199 620.364 628.35 624.202 628.35C624.842 628.35 625.482 628.35 626.122 628.659L625.162 629.583C625.482 623.728 625.802 619.722 626.122 619.722Z" fill="#654742"/>
<path d="M626.128 621.263C626.128 621.571 621.33 620.955 615.892 620.647C610.134 620.338 605.656 620.647 605.656 620.03C605.656 619.722 610.134 618.798 615.892 619.106C621.97 619.414 626.448 620.955 626.128 621.263Z" fill="#654742"/>
<path d="M606.614 618.798C606.933 618.798 606.614 623.728 604.374 628.967C602.135 634.206 598.617 637.904 598.297 637.596C597.977 637.288 600.536 633.59 602.775 628.351C605.014 623.112 606.294 618.798 606.614 618.798Z" fill="#654742"/>
<path d="M808.777 1211.09L804.299 1350.69L984.388 1357.16C984.069 1340.52 891.945 1303.85 891.945 1303.85L898.662 1214.48L808.777 1211.09Z" fill="#FF0000"/>
<g opacity="0.6">
<path d="M836.595 1294.3C833.076 1295.23 830.517 1298.92 831.157 1302.31C831.797 1305.7 835.635 1308.17 839.154 1307.55C842.672 1306.94 845.871 1302.62 844.912 1299.23C843.952 1295.84 839.154 1293.07 835.955 1294.61" fill="white"/>
</g>
<g opacity="0.6">
<path d="M803.982 1350.69L804.942 1336.52L977.355 1347.92C977.355 1347.92 985.351 1351.62 984.072 1356.86L803.982 1350.69Z" fill="white"/>
</g>
<path d="M894.808 1302.93C894.808 1303.85 890.329 1303.85 885.851 1306.63C881.373 1309.09 879.134 1312.79 878.174 1312.17C877.214 1311.87 878.814 1306.94 884.252 1303.85C889.69 1301.08 895.128 1302.31 894.808 1302.93Z" fill="#263238"/>
<path d="M913.364 1311.25C913.684 1312.17 909.525 1313.4 906.646 1316.79C903.448 1320.18 902.488 1323.88 901.529 1323.88C900.569 1323.88 900.249 1318.95 904.087 1314.64C908.246 1310.63 913.364 1310.32 913.364 1311.25Z" fill="#263238"/>
<path d="M923.301 1333.44C922.341 1333.44 921.382 1329.43 923.941 1324.81C926.5 1320.19 930.658 1318.64 930.978 1319.26C931.298 1319.88 928.739 1322.34 926.82 1326.04C924.581 1329.74 924.261 1333.44 923.301 1333.44Z" fill="#263238"/>
<path d="M894.176 1282.59C893.856 1283.21 889.698 1281.97 884.9 1282.28C879.782 1282.28 875.943 1283.82 875.624 1283.21C874.984 1282.59 879.142 1279.51 884.9 1279.51C890.338 1278.89 894.496 1281.97 894.176 1282.59Z" fill="#263238"/>
<path d="M890.663 1261.63C890.663 1261.94 887.144 1262.25 881.706 1261.33C878.827 1260.71 875.629 1259.78 872.43 1258.24C870.83 1257.32 868.911 1256.39 867.312 1255.47C866.352 1254.85 865.393 1254.24 864.753 1253.31C863.793 1252.39 863.473 1250.23 864.433 1248.69C865.393 1247.46 866.992 1246.84 868.271 1246.84C869.551 1246.84 870.511 1247.15 871.79 1247.46C873.709 1248.07 875.629 1248.69 877.228 1249.61C880.747 1251.16 883.306 1253.31 885.225 1255.16C889.383 1259.17 890.663 1262.25 890.343 1262.56C890.023 1262.87 888.104 1260.09 883.945 1257.01C882.026 1255.47 879.147 1253.62 875.948 1252.39C874.349 1251.77 872.75 1251.16 870.83 1250.54C868.911 1249.92 867.312 1249.92 866.672 1250.85C866.352 1251.16 866.352 1251.16 866.992 1251.77C867.312 1252.39 868.271 1252.7 868.911 1253.31C870.511 1254.24 872.11 1255.16 873.709 1256.09C876.908 1257.63 879.787 1258.86 882.346 1259.48C887.144 1261.02 890.663 1261.33 890.663 1261.63Z" fill="#263238"/>
<path d="M889.394 1262.87C889.074 1262.87 887.475 1259.78 887.475 1254.24C887.475 1251.46 887.794 1248.07 889.074 1244.68C889.714 1242.84 890.673 1241.29 891.633 1239.45C892.913 1237.9 894.192 1235.44 897.711 1235.13C899.63 1235.13 900.909 1236.67 901.229 1237.6C901.869 1238.83 901.869 1239.75 902.189 1240.68C902.509 1242.84 902.189 1244.68 901.869 1246.53C901.229 1250.23 899.63 1253.31 897.711 1255.47C893.872 1259.78 890.354 1260.71 890.354 1260.4C890.034 1260.09 893.232 1258.55 896.111 1254.24C897.391 1252.08 898.67 1249.31 899.31 1246.23C899.63 1244.68 899.63 1242.84 899.31 1241.29C898.99 1239.45 898.35 1237.9 897.711 1238.21C896.751 1238.21 895.152 1239.45 894.512 1240.99C893.552 1242.53 892.593 1244.07 891.953 1245.61C890.673 1248.69 890.034 1251.77 890.034 1254.24C889.074 1259.48 889.714 1262.87 889.394 1262.87Z" fill="#263238"/>
<path d="M538.475 1212.02L584.217 1344.53L413.404 1400C408.926 1383.97 486.335 1323.57 486.335 1323.57L453.388 1239.75L538.475 1212.02Z" fill="#FF0000"/>
<g opacity="0.6">
<path d="M536.233 1299.54C539.752 1299.23 543.27 1302.31 543.59 1305.7C543.91 1309.09 541.031 1312.79 537.512 1312.79C533.994 1313.1 529.516 1309.71 529.516 1306.32C529.516 1302.93 533.354 1298.92 536.873 1299.54" fill="white"/>
</g>
<g opacity="0.6">
<path d="M583.896 1344.53L578.778 1331.28L416.921 1389.52C416.921 1389.52 410.524 1395.07 413.083 1400L583.896 1344.53Z" fill="white"/>
</g>
<path d="M483.155 1323.88C483.475 1324.81 487.633 1323.57 492.751 1324.81C497.869 1326.04 501.068 1328.81 501.708 1328.2C502.347 1327.89 499.469 1323.27 493.391 1322.03C487.313 1320.49 482.515 1323.27 483.155 1323.88Z" fill="#263238"/>
<path d="M467.469 1336.83C467.469 1337.75 471.627 1337.75 475.786 1340.22C479.944 1342.68 481.863 1346.07 482.823 1345.76C483.782 1345.76 482.503 1340.83 477.385 1337.75C472.267 1334.67 467.469 1336.21 467.469 1336.83Z" fill="#263238"/>
<path d="M464.596 1360.86C465.556 1360.86 465.236 1356.55 461.398 1352.54C457.879 1348.84 453.081 1348.23 453.081 1349.15C452.761 1350.08 456.28 1351.62 459.158 1354.7C462.357 1357.78 463.637 1360.86 464.596 1360.86Z" fill="#263238"/>
<path d="M477.705 1303.85C478.344 1304.47 481.863 1302 486.661 1300.77C491.459 1299.54 495.618 1299.85 495.938 1298.92C496.257 1298.31 491.459 1296.46 486.021 1298C479.944 1299.54 477.065 1303.54 477.705 1303.85Z" fill="#263238"/>
<path d="M474.828 1283.21C474.828 1283.52 478.347 1282.9 483.465 1280.43C486.024 1279.2 488.583 1277.35 491.462 1274.89C492.741 1273.65 494.34 1272.42 495.62 1270.88C496.26 1270.26 496.899 1269.34 497.539 1268.11C498.179 1266.87 497.859 1264.72 496.58 1263.79C495.3 1262.87 493.381 1262.87 492.421 1263.18C491.142 1263.48 490.182 1264.1 489.222 1264.72C487.623 1265.64 486.024 1266.87 484.424 1268.11C481.545 1270.57 479.626 1273.35 478.347 1275.81C475.468 1280.74 475.468 1284.13 475.788 1284.13C476.108 1284.13 477.387 1281.05 480.266 1277.04C481.865 1274.89 483.785 1272.73 486.344 1270.57C487.623 1269.34 489.222 1268.42 490.822 1267.49C492.421 1266.57 494.021 1265.95 494.66 1266.57C494.98 1266.87 494.98 1266.87 494.66 1267.49C494.34 1268.11 494.021 1268.72 493.381 1269.65C492.101 1271.19 490.822 1272.42 489.862 1273.65C487.303 1276.12 484.744 1277.97 482.505 1279.51C478.027 1281.36 474.828 1282.59 474.828 1283.21Z" fill="#263238"/>
<path d="M476.425 1283.82C476.745 1283.82 477.385 1280.43 475.785 1275.19C475.146 1272.42 473.546 1269.65 471.307 1266.56C470.347 1265.02 468.748 1263.48 467.469 1262.25C465.869 1261.02 463.95 1259.17 460.431 1259.78C458.832 1260.4 457.872 1261.94 457.552 1263.17C457.233 1264.41 457.552 1265.33 457.872 1266.56C458.192 1268.72 458.832 1270.57 459.792 1272.11C461.711 1275.5 463.95 1277.97 466.509 1279.51C471.307 1282.59 475.146 1282.59 475.146 1282.28C475.146 1281.66 471.947 1281.05 467.788 1277.97C465.869 1276.43 463.63 1273.96 462.351 1271.19C461.711 1269.65 461.071 1268.1 460.751 1266.26C460.431 1264.41 460.751 1262.87 461.391 1262.87C462.351 1262.56 464.27 1263.48 465.229 1264.71C466.509 1265.95 467.788 1267.18 469.068 1268.41C471.307 1271.19 472.587 1273.65 473.546 1276.12C475.785 1280.74 475.785 1283.82 476.425 1283.82Z" fill="#263238"/>
<path d="M497.226 897.38C497.226 897.38 430.372 840.061 400.944 840.677C371.515 841.294 275.233 835.13 315.537 963.636C356.161 1093.37 429.093 1291.53 431.012 1284.44L556.403 1231.43L505.863 1046.84C505.863 1046.84 676.996 1048.69 709.943 1044.38C742.89 1040.06 804.626 998.151 804.626 998.151L794.71 1231.12L925.859 1224.04C925.859 1224.04 944.411 944.221 949.529 886.594C954.008 836.363 895.79 780.277 836.294 792.912C797.269 801.232 658.123 895.839 658.123 895.839L497.226 897.38Z" fill="#263238"/>
<path d="M809.417 874.575C809.417 874.575 809.417 876.733 809.417 880.739C809.097 885.053 808.777 890.6 808.457 897.38C807.818 911.247 807.178 930.662 806.858 952.233C806.538 973.497 806.218 992.911 805.259 1007.09C804.939 1014.17 804.619 1019.72 803.979 1023.73C803.659 1027.73 803.339 1029.89 803.02 1029.89C803.02 1029.89 803.02 1027.73 803.02 1023.73C803.02 1019.41 803.339 1013.87 803.339 1007.09C803.659 992.603 803.979 973.497 804.299 952.233C804.619 930.97 805.259 911.555 806.538 897.38C807.178 890.292 807.498 884.745 808.138 880.739C808.777 876.733 809.097 874.575 809.417 874.575Z" fill="#455A64"/>
<path d="M803.977 983.667C803.657 983.975 801.418 981.51 798.219 976.887C795.02 972.265 791.501 965.793 788.942 957.781C786.383 949.768 785.424 942.372 785.424 936.825C785.424 931.278 786.064 928.197 786.064 928.197C786.703 928.197 785.744 941.756 790.862 957.164C795.98 972.881 804.616 983.359 803.977 983.667Z" fill="#455A64"/>
<path d="M625.491 1030.82C625.171 1030.82 624.852 1027.73 623.892 1021.88C622.932 1016.33 621.013 1008.01 616.855 998.459C613.016 988.905 606.619 978.12 597.982 967.334C589.026 956.856 577.19 946.687 562.796 939.291C534.327 923.266 509.377 907.858 491.784 895.839C483.147 889.676 476.11 884.437 471.631 880.739C469.392 878.89 467.793 877.349 466.513 876.117C465.234 875.192 464.914 874.576 464.914 874.576C464.914 874.576 467.473 876.425 472.271 880.123C477.069 883.821 484.107 888.751 492.743 894.607C510.336 906.317 535.606 921.725 563.755 937.75C570.793 941.756 577.83 946.07 583.588 951.001C589.665 955.932 594.783 961.17 599.262 966.409C608.218 977.195 614.296 988.289 618.134 998.15C621.973 1008.01 623.892 1016.33 624.532 1021.88C625.171 1024.65 624.852 1027.12 625.171 1028.66C625.491 1029.89 625.491 1030.82 625.491 1030.82Z" fill="#455A64"/>
<path d="M671.869 894.298C671.869 894.298 671.23 896.147 669.63 899.845C668.031 903.235 666.111 908.166 663.552 914.329C658.754 926.656 652.997 944.221 649.798 964.252C646.279 984.283 645.959 1002.46 646.279 1015.72C646.599 1022.5 646.919 1027.73 647.239 1031.43C647.559 1035.13 647.559 1037.29 647.559 1037.29C647.559 1037.29 646.919 1035.13 646.599 1031.74C645.959 1028.04 645.32 1022.8 645 1016.02C644.04 1002.77 644.36 984.283 647.879 963.944C651.397 943.913 657.155 926.039 662.593 913.713C665.152 907.549 667.711 902.619 669.31 899.229C670.59 896.147 671.549 894.298 671.869 894.298Z" fill="#455A64"/>
<path d="M420.127 877.658C420.127 877.658 420.767 877.966 422.046 878.891C423.326 879.815 424.925 881.048 427.164 882.28C428.124 883.205 429.403 883.821 430.683 884.746C431.962 885.67 433.242 886.903 434.521 888.136C437.4 890.601 440.599 893.374 443.798 897.072C445.397 898.921 446.996 900.77 448.916 902.619C450.515 904.468 452.114 906.626 454.034 909.091C454.993 910.324 455.633 911.248 456.593 912.481C457.552 913.713 458.192 914.946 459.152 916.179C460.751 918.644 462.35 921.109 463.95 923.883C470.347 934.669 475.785 946.995 480.903 960.555C485.701 973.806 489.54 987.057 493.058 998.767C496.257 1010.48 499.136 1021.26 501.695 1030.2C504.254 1039.14 506.173 1046.53 507.773 1051.46C508.412 1053.93 509.052 1055.78 509.372 1057.32C509.692 1058.55 510.012 1059.48 510.012 1059.48C510.012 1059.48 509.692 1058.86 509.372 1057.63C508.732 1056.09 508.093 1054.24 507.453 1052.08C505.853 1047.15 503.614 1040.06 500.735 1031.12C498.176 1022.19 494.978 1011.4 491.779 999.692C488.26 987.982 484.422 974.73 479.624 961.479C474.826 948.228 469.068 935.901 462.99 925.116C461.391 922.342 459.791 919.877 458.192 917.411C457.232 916.179 456.593 914.946 455.953 913.713C454.993 912.481 454.354 911.556 453.394 910.324C451.795 908.166 450.195 906.009 448.596 903.852C446.996 902.003 445.077 900.154 443.478 898.305C440.599 894.607 437.08 891.834 434.521 889.368C433.242 888.136 431.962 886.903 430.683 885.978C429.403 885.054 428.124 884.129 427.164 883.205C425.245 881.664 423.646 880.431 422.366 879.507C420.767 877.966 420.127 877.658 420.127 877.658Z" fill="#455A64"/>
<path d="M495.932 896.148C519.922 911.248 546.152 914.946 574.301 920.185C590.615 923.266 607.568 925.732 623.242 921.417C657.149 911.864 690.096 874.576 711.847 861.325L620.683 883.513L495.932 896.148Z" fill="#FF0000"/>
<path d="M236.222 453.34C306.558 424.378 339.207 345.968 309.145 278.205C279.083 210.443 197.693 178.989 127.356 207.951C57.0193 236.913 24.3704 315.324 54.4328 383.086C84.4952 450.848 165.885 482.302 236.222 453.34Z" fill="#FAFAFA"/>
<path d="M317.28 360.889C334.617 288.764 287.981 216.756 213.115 200.053C138.25 183.351 63.5055 228.28 46.1686 300.405C28.8317 372.53 75.4677 444.539 150.333 461.241C225.198 477.943 299.943 433.014 317.28 360.889Z" fill="white"/>
<path d="M325.129 397.534C325.129 397.534 323.53 397.842 321.291 399.075C319.052 400.307 315.853 402.773 313.934 407.087C312.974 409.244 312.334 411.71 312.334 414.175C312.334 416.948 313.294 419.722 314.893 422.187C318.092 427.118 325.129 430.816 332.166 429.583C339.204 428.351 344.322 422.495 345.601 416.64C346.241 413.867 345.921 410.785 344.961 408.32C344.002 405.854 342.402 403.697 340.803 402.156C337.284 399.075 333.446 397.842 330.887 397.226C328.328 396.918 326.729 397.226 326.729 396.918C326.729 396.918 327.048 396.918 327.688 396.609C328.008 396.609 328.328 396.609 328.968 396.609C329.607 396.609 330.247 396.609 330.887 396.609C333.446 396.918 337.604 398.15 341.443 401.232C343.362 402.773 344.961 404.93 345.921 407.703C346.881 410.477 347.52 413.559 346.561 416.64C345.921 419.722 344.322 422.804 341.763 425.269C339.204 427.734 336.005 429.891 332.166 430.508C328.328 431.124 324.489 430.508 321.291 428.967C318.092 427.426 315.533 425.269 313.614 422.495C311.694 419.722 311.055 416.64 311.055 413.867C311.055 411.093 312.014 408.32 312.974 406.471C315.213 402.156 318.412 399.691 320.971 398.458C321.611 398.15 322.25 397.842 322.57 397.842C323.21 397.534 323.53 397.534 323.85 397.534C324.809 397.534 325.129 397.534 325.129 397.534Z" fill="#263238"/>
<path d="M320.948 324.499C320.948 324.499 320.948 323.882 320.628 322.342C320.308 320.801 320.308 318.644 319.988 315.87C319.988 314.329 319.668 312.788 319.348 311.248C319.028 309.399 318.709 307.55 318.069 305.701C317.749 303.543 317.109 301.386 316.789 299.229C316.469 297.996 316.15 296.764 315.83 295.839C315.51 294.607 315.19 293.374 314.55 292.141C311.671 281.972 305.914 269.953 297.597 257.318C288.96 244.684 276.805 231.741 260.491 220.955C258.572 219.722 256.333 218.181 254.414 216.949C252.175 215.716 249.936 214.483 247.696 213.251C246.417 212.634 245.457 212.018 244.178 211.402C242.898 210.785 241.939 210.169 240.659 209.861C238.1 208.936 235.861 208.012 233.302 206.779C232.023 206.163 230.743 205.855 229.464 205.238C228.184 204.93 226.904 204.314 225.625 204.006C223.066 203.081 220.507 202.465 217.628 201.54C215.069 200.924 212.19 200.308 209.311 199.691C208.032 199.383 206.433 199.075 205.153 198.767C204.513 198.767 203.874 198.459 202.914 198.459L200.675 198.15C194.917 197.534 189.159 196.61 183.082 196.918C180.203 196.918 177.004 196.918 174.125 196.918C171.246 197.226 168.048 197.534 164.849 197.842C163.249 198.15 161.65 198.15 160.371 198.459C158.771 198.767 157.172 199.075 155.892 199.383C152.694 199.999 149.815 200.616 146.616 201.232C140.538 203.081 134.141 204.622 128.383 207.395C126.784 208.012 125.504 208.628 123.905 209.244C123.265 209.553 122.305 209.861 121.666 210.169L119.427 211.402C116.548 212.942 113.669 214.483 110.79 216.024C107.911 217.565 105.352 219.722 102.473 221.263C101.194 222.187 99.5943 223.112 98.3148 224.036L94.4763 227.118C89.0384 231.124 84.2403 236.055 79.4422 240.677C77.2031 243.143 74.9639 245.916 72.7248 248.382L71.1254 250.231C70.4857 250.847 70.1658 251.771 69.5261 252.388L66.6472 256.702L63.7683 261.016L61.2093 265.639L58.6503 270.261L57.3708 272.419C57.051 273.343 56.7311 273.959 56.4112 274.884C55.1317 277.966 53.5323 281.355 52.2528 284.437C51.2932 287.827 50.0137 291.217 49.0541 294.607C45.2156 308.166 43.2963 322.65 43.9361 337.134C44.8957 351.617 47.7746 365.793 53.2125 379.044C54.492 382.434 56.0913 385.516 57.3708 388.906C58.9702 391.987 60.8895 395.069 62.4888 398.151L63.7683 400.308L65.3677 402.465L68.2466 406.779L71.1254 411.093L74.6441 415.1L78.1627 419.106L79.7621 420.955L81.6813 422.804C84.2403 425.269 86.4794 427.734 89.0384 429.892C94.4763 434.206 99.5943 438.52 105.352 442.218L109.51 444.992C110.79 445.916 112.389 446.533 113.989 447.457C116.868 448.998 119.746 450.539 122.945 452.08C126.144 453.312 129.023 454.545 132.222 455.778L134.461 456.702C135.1 457.01 136.06 457.318 136.7 457.318C138.299 457.935 139.899 458.243 141.498 458.859C147.576 461.016 153.973 461.941 160.371 463.174C163.569 463.79 166.768 463.79 169.647 464.098C171.246 464.406 172.846 464.406 174.445 464.714C176.044 464.714 177.644 464.714 179.243 464.714C182.442 464.714 185.321 464.714 188.52 464.714C191.718 464.714 194.597 464.098 197.476 464.098C203.554 463.79 209.311 462.249 215.069 461.325L217.308 461.016C217.948 460.708 218.588 460.708 219.227 460.4C220.507 460.092 222.106 459.476 223.386 459.167C225.945 458.243 228.824 457.627 231.383 456.702C233.942 455.778 236.501 454.545 239.06 453.62C240.339 453.004 241.619 452.696 242.898 452.08C244.178 451.463 245.137 450.847 246.417 450.231C248.656 448.998 251.215 447.765 253.454 446.533C254.734 445.916 255.693 445.3 256.653 444.684C257.613 444.067 258.892 443.143 259.852 442.526C262.091 440.986 264.01 439.753 266.249 438.52C268.168 436.98 270.088 435.439 272.007 433.898C287.041 421.571 298.237 407.704 305.594 394.453C306.553 392.912 307.513 391.063 308.473 389.522C309.112 387.981 310.072 386.132 310.712 384.591C311.352 383.05 311.991 381.51 312.951 379.969C313.271 379.044 313.591 378.428 313.91 377.503C314.23 376.579 314.55 375.963 314.55 375.038C315.51 371.956 316.47 368.875 317.429 366.101C318.389 363.328 318.709 360.554 319.348 357.781C319.668 356.548 319.988 355.315 320.308 354.083C320.628 352.85 320.948 351.617 320.948 350.385C321.268 347.919 321.587 345.762 321.587 343.913C321.907 341.756 322.227 339.907 322.227 338.366C322.227 336.517 322.227 334.976 322.227 333.744C322.227 330.97 322.227 328.813 322.227 327.272C320.948 325.115 320.948 324.499 320.948 324.499C320.948 324.499 320.948 325.115 320.948 326.656C320.948 328.197 320.948 330.354 320.948 333.127C320.948 334.668 320.948 336.209 320.948 337.75C320.948 339.599 320.628 341.448 320.308 343.297C319.988 345.454 319.988 347.611 319.668 349.768C319.668 351.001 319.348 352.234 319.029 353.466C318.709 354.699 318.389 355.932 318.069 357.164C317.429 359.63 317.109 362.711 316.15 365.485C315.19 368.258 314.23 371.34 313.271 374.422C312.951 375.346 312.631 375.963 312.631 376.887C312.311 377.812 311.991 378.428 311.671 379.352C311.032 380.893 310.392 382.434 309.432 384.283C308.793 385.824 307.833 387.673 307.193 389.214C306.233 390.755 305.274 392.604 304.314 394.144C296.957 407.395 286.081 421.571 270.727 433.898C268.808 435.439 266.889 436.98 264.97 438.52C263.05 440.061 260.811 441.294 258.572 442.835C257.613 443.451 256.333 444.375 255.373 444.992C254.414 445.608 253.134 446.533 251.855 447.149C249.616 448.382 247.057 449.614 244.817 450.847C243.538 451.463 242.578 452.08 241.299 452.696C240.019 453.312 238.74 453.62 237.46 454.237C234.901 455.161 232.342 456.394 229.783 457.318C227.224 458.243 224.346 458.859 221.786 459.784C220.507 460.092 218.908 460.708 217.628 461.016C216.988 461.325 216.349 461.325 215.389 461.633L213.15 461.941C207.392 462.865 201.634 464.406 195.557 464.714C192.678 465.023 189.479 465.331 186.6 465.331C183.402 465.331 180.523 465.331 177.324 465.331C175.725 465.331 174.125 465.331 172.526 465.331C170.926 465.023 169.327 465.023 167.728 464.714C164.529 464.406 161.33 464.098 158.131 463.79C151.734 462.557 145.336 461.633 139.259 459.476C137.659 458.859 136.06 458.551 134.461 457.935C133.821 457.627 132.861 457.627 132.222 457.318L129.982 456.394C126.784 455.161 123.905 453.929 120.706 452.696C117.827 451.155 114.628 449.614 111.75 448.073C110.15 447.149 108.551 446.533 107.271 445.608L103.113 442.835C97.3552 439.445 91.9173 434.822 86.4794 430.508C83.9204 428.043 81.3614 425.577 79.1223 423.42L77.2031 421.571L75.6037 419.722L72.0851 415.716L68.5665 411.71L65.6876 407.396L62.8087 403.081L61.2093 400.924L59.9298 398.767C58.3304 395.685 56.4112 392.604 54.8118 389.522C53.5323 386.132 51.9329 383.05 50.6534 379.661C45.5354 366.409 42.3367 351.926 41.3771 337.442C40.7373 322.958 42.6566 308.474 46.4951 294.607C47.4547 291.217 48.7342 287.827 49.6938 284.437C50.9733 281.047 52.5727 277.966 53.8522 274.576C54.1721 273.651 54.492 273.035 54.8118 272.11L56.0913 269.953L58.6503 265.331L61.2093 260.708L64.0882 256.394L66.9671 252.08C67.6068 251.463 67.9267 250.539 68.5665 249.922L70.1658 248.073C72.405 245.3 74.6441 242.835 76.8832 240.369C82.0012 235.747 86.4794 230.816 92.2372 226.81L96.0757 223.728C97.3552 222.804 98.9546 221.879 100.234 220.955C103.113 219.106 105.672 217.257 108.871 215.716C111.75 214.175 114.628 212.634 117.827 211.093L120.066 209.861C120.706 209.553 121.666 209.244 122.305 208.936C123.905 208.32 125.504 207.704 126.784 207.087C132.861 204.314 138.939 202.773 145.336 200.924C148.535 200.308 151.734 199.691 154.613 199.075C156.212 198.767 157.812 198.459 159.091 198.15C160.69 197.842 162.29 197.842 163.889 197.534C167.088 197.226 169.967 196.918 173.166 196.61C176.364 196.301 179.243 196.61 182.442 196.61C188.52 196.301 194.277 197.226 200.355 197.842L202.594 198.15C203.234 198.15 203.874 198.459 204.833 198.459C206.113 198.767 207.712 199.075 208.992 199.383C211.87 199.999 214.749 200.308 217.308 201.232C219.867 202.157 222.746 202.773 225.305 203.697C226.585 204.006 227.864 204.622 229.144 204.93C230.423 205.546 231.703 205.855 232.982 206.471C235.541 207.395 238.1 208.628 240.339 209.553C241.619 209.861 242.898 210.785 243.858 211.402C245.137 212.018 246.097 212.634 247.377 213.251C249.616 214.483 251.855 215.716 254.094 216.949C256.333 218.181 258.252 219.722 260.172 220.955C276.485 231.741 288.64 244.992 297.277 257.627C305.914 270.261 311.352 282.588 314.23 292.758C314.55 293.99 314.87 295.223 315.51 296.456C315.83 297.688 316.15 298.921 316.47 300.154C316.789 302.619 317.429 304.776 317.749 306.625C318.069 308.782 318.709 310.631 318.709 312.172C319.029 314.021 319.029 315.562 319.029 316.795C319.348 319.568 319.348 321.725 319.668 323.266C320.948 323.574 320.948 324.499 320.948 324.499Z" fill="#263238"/>
<path d="M232.687 318.335C232.687 291.217 209.976 269.337 181.827 269.337C153.678 269.337 130.967 291.217 130.967 318.335C130.967 338.058 142.802 354.699 160.075 362.711C160.075 368.566 160.075 375.038 160.075 375.038H204.538C204.538 375.038 204.858 367.95 204.858 361.787C221.491 353.774 232.687 337.441 232.687 318.335Z" fill="#FF0000"/>
<path d="M188.535 375.04C188.535 375.04 188.535 374.732 188.535 374.424C188.535 374.115 188.535 373.499 188.855 372.575C189.174 371.034 189.494 368.877 189.814 365.795C190.134 362.713 190.774 359.323 191.733 355.009C192.693 351.003 193.973 346.38 196.212 341.45C197.491 338.984 198.771 336.519 200.37 334.054C201.33 332.821 202.289 331.588 203.889 330.972C205.488 330.356 207.087 330.356 208.687 330.972C209.327 331.28 209.966 332.205 210.286 332.821C210.606 333.746 210.606 334.67 209.966 335.286C209.327 336.827 207.727 338.06 206.128 338.676C202.609 339.909 198.771 339.601 195.572 338.06C192.373 336.519 189.494 333.437 188.535 329.739C187.895 327.89 187.575 326.041 188.215 324.192C188.535 322.343 190.454 320.494 192.693 320.803C193.653 320.803 194.932 321.727 195.252 322.652C195.892 323.576 195.892 324.809 195.572 325.733C194.932 327.89 193.653 329.431 192.053 330.664C188.855 333.129 184.376 334.67 180.218 334.054C176.06 333.437 172.221 330.664 170.302 326.966C169.342 325.117 169.022 322.96 169.982 321.111C170.302 320.186 171.261 319.262 172.221 318.954C173.181 318.645 174.46 318.645 175.42 319.262C176.379 319.878 177.019 320.494 177.659 321.419C177.979 322.343 178.299 323.268 178.299 324.192C178.299 326.041 178.299 327.89 177.659 329.739C176.379 333.437 173.82 336.211 170.622 338.06C167.423 339.601 163.584 340.217 160.066 339.601C158.466 339.293 156.547 338.676 155.588 337.135C154.308 335.903 153.988 333.746 155.268 332.513C155.907 331.897 156.867 331.588 157.507 331.588C158.466 331.588 159.106 331.588 160.066 331.897C161.665 332.513 162.625 334.054 163.265 335.286C164.544 338.06 165.504 340.525 166.463 342.991C170.622 352.852 173.501 360.864 175.42 366.719C176.379 369.493 177.019 371.65 177.659 373.191C177.979 373.807 177.979 374.424 178.299 375.04C178.299 375.348 178.299 375.656 178.299 375.656C178.299 375.656 178.299 375.348 177.979 375.04C177.979 374.732 177.659 374.115 177.339 373.499C176.699 371.958 176.06 369.801 175.1 367.028C173.181 361.481 170.302 353.16 166.143 343.607C165.184 341.142 163.904 338.676 162.625 335.903C161.985 334.67 161.025 333.437 159.746 332.821C158.466 332.205 156.547 332.205 155.588 333.437C154.628 334.67 154.948 336.519 155.907 337.444C156.867 338.676 158.466 339.293 160.066 339.601C163.265 340.217 167.103 339.909 170.302 338.368C173.501 336.827 176.06 333.746 177.019 330.356C177.659 328.507 177.979 326.658 177.659 325.117C177.659 323.268 176.699 321.419 175.1 320.494C174.14 320.186 173.181 319.878 172.541 320.186C171.581 320.494 170.942 321.111 170.622 322.035C169.982 323.884 169.982 325.733 170.942 327.582C172.541 330.972 176.379 333.746 180.218 334.362C184.376 334.978 188.535 333.746 191.733 331.28C193.333 330.048 194.612 328.507 195.252 326.658C195.572 325.733 195.252 324.809 194.932 324.192C194.612 323.268 193.653 322.96 192.693 322.652C191.733 322.652 190.774 322.96 190.134 323.576C189.494 324.192 188.855 324.809 188.535 325.733C187.895 327.582 188.215 329.431 188.855 330.972C189.814 334.362 192.373 337.444 195.572 338.676C198.771 340.217 202.609 340.525 205.808 339.293C207.407 338.676 208.687 337.752 209.327 336.211C209.966 334.978 209.646 333.129 208.047 332.513C206.768 331.897 205.168 331.897 203.569 332.513C202.289 333.129 201.01 334.362 200.37 335.286C198.771 337.752 197.491 340.217 196.212 342.374C193.973 347.305 192.693 351.927 191.414 355.934C190.454 359.94 189.814 363.638 189.174 366.411C188.855 369.185 188.215 371.65 188.215 373.191C188.215 373.807 187.895 374.424 187.895 375.04C188.855 374.732 188.535 375.04 188.535 375.04Z" fill="#263238"/>
<path d="M201.33 383.051H162.945C161.346 383.051 160.066 381.819 160.066 380.278C160.066 378.737 161.346 377.504 162.945 377.504H201.33C202.93 377.504 204.209 378.737 204.209 380.278C204.209 381.819 202.93 383.051 201.33 383.051Z" fill="#263238"/>
<path d="M201.33 385.517H162.945C161.346 385.517 160.066 386.75 160.066 388.29C160.066 389.831 161.346 391.064 162.945 391.064H167.104L172.542 401.233C173.181 402.466 174.461 403.082 175.74 403.082H189.495C190.774 403.082 192.054 402.466 192.694 401.233L198.132 391.064H201.01C202.61 391.064 203.889 389.831 203.889 388.29C204.209 386.75 202.93 385.517 201.33 385.517Z" fill="#263238"/>
<g opacity="0.2">
<path d="M149.19 287.211C152.708 284.13 156.227 281.973 159.426 280.74C162.624 279.507 165.183 278.583 167.422 278.583C169.342 278.275 170.301 278.583 170.621 278.891C170.941 279.815 167.103 281.048 161.665 284.438C156.547 287.828 150.149 293.375 145.991 301.387C142.152 309.399 141.833 318.028 142.472 323.883C143.112 329.738 144.711 333.436 143.752 334.053C143.432 334.361 142.472 333.436 141.513 331.896C140.553 330.355 139.274 327.889 138.314 324.808C137.354 321.726 136.715 317.72 137.034 313.097C137.354 308.475 138.314 303.544 140.553 298.922" fill="white"/>
</g>
<g opacity="0.2">
<path d="M182.454 281.046C179.255 281.046 176.377 280.122 176.057 278.581C176.057 277.657 176.377 277.04 177.656 276.116C178.936 275.499 180.535 274.883 182.454 274.883C184.373 274.883 185.973 275.499 187.252 276.116C188.532 276.732 188.852 277.657 188.852 278.581" fill="white"/>
</g>
<path d="M192.372 402.158C192.372 402.158 191.412 401.85 189.813 401.234C188.214 400.925 185.974 400.309 183.415 400.309C180.856 400.309 178.617 400.925 177.018 401.542C175.419 402.158 174.459 402.466 174.459 402.466C174.459 402.466 175.419 401.85 177.018 401.234C178.617 400.617 180.856 400.001 183.735 400.001C186.294 400.001 188.853 400.309 190.453 400.925C191.412 401.542 192.372 402.158 192.372 402.158Z" fill="#455A64"/>
<path d="M198.448 391.063C198.448 391.371 191.411 391.371 183.094 391.371C174.458 391.371 167.74 391.371 167.74 391.063C167.74 390.754 174.777 390.754 183.094 390.754C191.731 390.754 198.448 391.063 198.448 391.063Z" fill="#455A64"/>
<path d="M196.206 395.687C196.206 395.687 194.927 395.995 192.368 395.995C190.129 395.995 186.93 396.303 183.091 396.303C179.573 396.303 176.374 396.303 173.815 396.303C171.576 396.303 169.977 395.995 169.977 395.995C169.977 395.995 171.576 395.995 173.815 395.687C176.374 395.687 179.573 395.687 183.091 395.687C186.61 395.687 189.809 395.687 192.368 395.687C194.607 395.379 196.206 395.379 196.206 395.687Z" fill="#455A64"/>
<path d="M950.148 391.987C950.148 391.987 948.548 391.987 945.669 391.987C942.79 391.987 938.312 391.987 932.874 391.987C921.679 391.987 905.045 391.987 883.614 392.295C840.75 392.295 779.334 392.603 703.524 392.603H702.884V391.987C702.884 319.568 702.884 232.357 702.564 136.517V135.592H703.524C763.661 135.592 828.915 135.592 896.089 135.592C988.852 135.592 1077.46 135.592 1158.07 135.592H1158.71V136.209C1158.71 236.055 1158.39 323.266 1158.39 391.679V392.295H1157.75C1102.09 392.295 1057.95 391.987 1027.56 391.987C1012.52 391.987 1000.69 391.987 992.691 391.987C988.853 391.987 985.654 391.987 983.734 391.987C981.815 391.987 980.536 391.987 980.536 391.987C980.536 391.987 981.495 391.987 983.734 391.987C985.654 391.987 988.853 391.987 992.691 391.987C1000.69 391.987 1012.52 391.987 1027.56 391.987C1057.95 391.987 1102.41 391.987 1157.75 391.679L1157.11 392.295C1157.11 323.882 1157.11 236.363 1156.79 136.825L1157.43 137.441C1076.82 137.441 988.213 137.441 895.449 137.441C828.275 137.441 763.341 137.441 702.884 137.441L703.844 136.517C703.844 232.665 703.844 319.876 703.524 391.987L702.884 391.37C778.695 391.37 840.111 391.679 882.974 391.679C904.405 391.679 921.039 391.679 932.235 391.987C937.992 391.987 942.151 391.987 945.03 391.987C948.868 391.987 950.148 391.987 950.148 391.987Z" fill="black"/>
<path d="M980.869 391.986H1158.08V136.516H703.857V391.986H950.161" fill="white"/>
<path d="M1159.68 393.526H980.869V390.445H1156.48V138.056H705.457V390.445H950.161V393.526H702.258V134.975H1159.68V393.526Z" fill="black"/>
<path d="M1158.4 136.516H703.857V155.314H1158.4V136.516Z" fill="#F5F5F5"/>
<path d="M1159.68 156.854H702.258V134.975H1160V156.854H1159.68ZM705.457 153.773H1156.8V138.056H705.457V153.773Z" fill="black"/>
<path d="M717.606 146.07C717.606 147.302 716.327 148.535 715.047 148.535C713.768 148.535 712.488 147.302 712.488 146.07C712.488 144.837 713.768 143.604 715.047 143.604C716.327 143.604 717.606 144.837 717.606 146.07Z" fill="#263238"/>
<path d="M715.047 150.076C712.808 150.076 710.889 148.227 710.889 146.07C710.889 143.912 712.808 142.063 715.047 142.063C717.286 142.063 719.205 143.912 719.205 146.07C719.205 148.535 717.286 150.076 715.047 150.076ZM715.047 145.145C714.407 145.145 714.087 145.453 714.087 146.07C714.087 146.686 714.407 146.994 715.047 146.994C715.687 146.994 716.007 146.686 716.007 146.07C716.007 145.761 715.367 145.145 715.047 145.145Z" fill="black"/>
<path d="M726.891 146.07C726.891 147.302 725.612 148.535 724.332 148.535C723.053 148.535 721.773 147.302 721.773 146.07C721.773 144.837 723.053 143.604 724.332 143.604C725.932 143.604 726.891 144.837 726.891 146.07Z" fill="#263238"/>
<path d="M724.332 150.076C722.093 150.076 720.174 148.227 720.174 146.07C720.174 143.912 722.093 142.063 724.332 142.063C726.571 142.063 728.491 143.912 728.491 146.07C728.491 148.535 726.891 150.076 724.332 150.076ZM724.332 145.145C723.692 145.145 723.373 145.453 723.373 146.07C723.373 146.686 723.692 146.994 724.332 146.994C724.972 146.994 725.292 146.686 725.292 146.07C725.292 145.761 724.972 145.145 724.332 145.145Z" fill="black"/>
<path d="M736.483 146.07C736.483 147.302 735.204 148.535 733.924 148.535C732.645 148.535 731.365 147.302 731.365 146.07C731.365 144.837 732.645 143.604 733.924 143.604C735.204 143.604 736.483 144.837 736.483 146.07Z" fill="#263238"/>
<path d="M733.924 150.076C731.685 150.076 729.766 148.227 729.766 146.07C729.766 143.912 731.685 142.063 733.924 142.063C736.163 142.063 738.082 143.912 738.082 146.07C738.082 148.535 736.163 150.076 733.924 150.076ZM733.924 145.145C733.284 145.145 732.964 145.453 732.964 146.07C732.964 146.686 733.284 146.994 733.924 146.994C734.564 146.994 734.884 146.686 734.884 146.07C734.884 145.761 734.564 145.145 733.924 145.145Z" fill="black"/>
<path d="M931.607 177.195C931.607 177.195 922.65 177.503 911.455 177.503C900.259 177.503 891.303 177.503 891.303 177.195C891.303 176.887 900.259 176.887 911.455 176.887C922.65 176.887 931.607 176.887 931.607 177.195Z" fill="#263238"/>
<path d="M911.455 178.736C899.619 178.736 894.181 178.736 891.622 178.427C889.703 178.119 889.703 177.811 889.703 176.887C889.703 175.962 889.703 175.654 891.622 175.346C894.181 175.038 899.299 175.038 911.455 175.038C923.29 175.038 928.728 175.038 930.967 175.346C932.886 175.654 932.886 175.962 932.886 176.887C932.886 177.811 932.886 178.119 930.967 178.427C928.728 178.736 923.29 178.736 911.455 178.736Z" fill="black"/>
<path d="M984.699 177.195C984.699 177.195 975.742 177.503 964.547 177.503C953.351 177.503 944.395 177.503 944.395 177.195C944.395 176.887 953.351 176.887 964.547 176.887C975.742 176.887 984.699 176.887 984.699 177.195Z" fill="#263238"/>
<path d="M964.867 178.736C953.031 178.736 947.593 178.736 945.034 178.427C943.115 178.119 943.115 177.811 943.115 176.887C943.115 175.962 943.115 175.654 945.034 175.346C947.593 175.038 952.711 175.038 964.867 175.038C976.702 175.038 982.14 175.038 984.379 175.346C986.298 175.654 986.298 175.962 986.298 176.887C986.298 177.811 986.298 178.119 984.379 178.427C982.14 178.736 976.702 178.736 964.867 178.736Z" fill="black"/>
<path d="M1038.13 177.195C1038.13 177.195 1029.17 177.504 1017.98 177.504C1006.78 177.504 997.824 177.504 997.824 177.195C997.824 176.887 1006.78 176.887 1017.98 176.887C1029.17 176.887 1038.13 176.887 1038.13 177.195Z" fill="#263238"/>
<path d="M1017.98 178.736C1006.14 178.736 1000.7 178.736 998.146 178.427C996.227 178.119 996.227 177.811 996.227 176.887C996.227 175.962 996.227 175.654 998.146 175.346C1000.7 175.038 1005.82 175.038 1017.98 175.038C1029.81 175.038 1035.25 175.038 1037.49 175.346C1039.41 175.654 1039.41 175.962 1039.41 176.887C1039.41 177.811 1039.41 178.119 1037.49 178.427C1035.25 178.736 1030.13 178.736 1017.98 178.736Z" fill="black"/>
<path d="M1091.86 177.195C1091.86 177.195 1082.91 177.504 1071.71 177.504C1060.52 177.504 1051.56 177.504 1051.56 177.195C1051.56 176.887 1060.52 176.887 1071.71 176.887C1082.91 176.887 1091.86 176.887 1091.86 177.195Z" fill="#263238"/>
<path d="M1072.03 178.736C1060.2 178.736 1054.76 178.736 1052.2 178.428C1050.28 178.12 1050.28 177.811 1050.28 176.887C1050.28 175.962 1050.28 175.654 1052.2 175.346C1054.76 175.038 1059.88 175.038 1072.03 175.038C1083.87 175.038 1089.3 175.038 1091.54 175.346C1093.46 175.654 1093.46 175.962 1093.46 176.887C1093.46 177.811 1093.46 178.12 1091.54 178.428C1088.98 178.736 1083.87 178.736 1072.03 178.736Z" fill="black"/>
<path d="M1118.09 311.247C1118.09 311.247 1074.58 311.555 1020.84 311.555C967.105 311.555 923.602 311.555 923.602 311.247C923.602 311.247 967.105 310.938 1020.84 310.938C1074.58 310.938 1118.09 310.938 1118.09 311.247Z" fill="#263238"/>
<path d="M1020.85 313.096C993.976 313.096 969.665 313.096 952.072 313.096C943.116 313.096 936.078 313.096 931.28 313.096C927.762 313.096 925.522 313.096 924.243 313.096C923.923 313.096 923.923 313.096 923.923 313.096C922.004 312.787 922.004 312.479 922.004 311.555C922.004 310.63 922.004 310.322 923.923 310.014H924.243C925.522 310.014 927.762 310.014 931.28 310.014C936.078 310.014 943.436 310.014 952.072 310.014C969.665 310.014 993.976 310.014 1020.85 310.014C1047.71 310.014 1072.03 310.014 1089.62 310.014C1098.57 310.014 1105.61 310.014 1110.41 310.014C1113.93 310.014 1116.17 310.014 1117.45 310.014C1117.77 310.014 1117.77 310.014 1117.77 310.014C1119.69 310.322 1119.69 310.63 1119.69 311.555C1119.69 312.479 1119.69 312.787 1117.77 313.096H1117.45C1116.17 313.096 1113.93 313.096 1110.41 313.096C1105.61 313.096 1098.25 313.096 1089.62 313.096C1072.03 313.096 1047.71 313.096 1020.85 313.096Z" fill="black"/>
<path d="M1117.15 339.599C1117.15 339.599 1073.64 339.907 1019.9 339.907C966.165 339.907 922.662 339.907 922.662 339.599C922.662 339.599 966.165 339.291 1019.9 339.291C1073.64 339.291 1117.15 339.599 1117.15 339.599Z" fill="#E0E0E0"/>
<path d="M1019.9 341.448C993.034 341.448 968.724 341.448 951.131 341.448C942.174 341.448 935.137 341.448 930.339 341.448C926.82 341.448 924.581 341.448 923.302 341.448C922.982 341.448 922.982 341.448 922.982 341.448C921.063 341.139 921.062 340.831 921.062 339.907C921.062 338.982 921.063 338.674 922.982 338.366H923.302C924.581 338.366 926.82 338.366 930.339 338.366C935.137 338.366 942.494 338.366 951.131 338.366C968.724 338.366 993.034 338.366 1019.9 338.366C1046.77 338.366 1071.08 338.366 1088.68 338.366C1097.63 338.366 1104.67 338.366 1109.47 338.366C1112.99 338.366 1115.23 338.366 1116.51 338.366C1116.83 338.366 1116.83 338.366 1116.83 338.366C1118.75 338.674 1118.75 338.982 1118.75 339.907C1118.75 340.831 1118.75 341.139 1116.83 341.448H1116.51C1115.23 341.448 1112.99 341.448 1109.47 341.448C1104.67 341.448 1097.31 341.448 1088.68 341.448C1071.08 341.448 1046.77 341.448 1019.9 341.448Z" fill="black"/>
<path d="M1117.15 347.302C1117.15 347.302 1073.64 347.61 1019.9 347.61C966.165 347.61 922.662 347.61 922.662 347.302C922.662 347.302 966.165 346.993 1019.9 346.993C1073.64 346.993 1117.15 346.993 1117.15 347.302Z" fill="#E0E0E0"/>
<path d="M1019.9 349.151C993.034 349.151 968.724 349.151 951.131 349.151C942.174 349.151 935.137 349.151 930.339 349.151C926.82 349.151 924.581 349.151 923.302 349.151C922.982 349.151 922.982 349.151 922.982 349.151C921.063 348.843 921.062 348.534 921.062 347.61C921.062 346.685 921.063 346.377 922.982 346.069H923.302C924.581 346.069 926.82 346.069 930.339 346.069C935.137 346.069 942.494 346.069 951.131 346.069C968.724 346.069 993.034 346.069 1019.9 346.069C1046.77 346.069 1071.08 346.069 1088.68 346.069C1097.63 346.069 1104.67 346.069 1109.47 346.069C1112.99 346.069 1115.23 346.069 1116.51 346.069C1116.83 346.069 1116.83 346.069 1116.83 346.069C1118.75 346.377 1118.75 346.685 1118.75 347.61C1118.75 348.534 1118.75 348.843 1116.83 349.151H1116.51C1115.23 349.151 1112.99 349.151 1109.47 349.151C1104.67 349.151 1097.31 349.151 1088.68 349.151C1071.08 348.843 1046.77 349.151 1019.9 349.151Z" fill="black"/>
<path d="M1022.12 321.108C1022.12 321.108 1000.05 321.416 972.862 321.416C945.673 321.416 923.602 321.416 923.602 321.108C923.602 321.108 945.673 320.8 972.862 320.8C1000.05 320.8 1022.12 320.8 1022.12 321.108Z" fill="#263238"/>
<path d="M972.864 322.957C959.109 322.957 946.954 322.957 937.998 322.957C930.641 322.957 926.482 322.957 924.563 322.649C924.243 322.649 923.923 322.649 923.923 322.649C922.004 322.341 922.004 322.033 922.004 321.108C922.004 320.184 922.004 319.875 923.923 319.567C923.923 319.567 924.243 319.567 924.563 319.567C926.802 319.259 930.641 319.259 937.998 319.259C946.954 319.259 959.109 319.259 972.864 319.259C986.299 319.259 998.774 319.259 1007.73 319.259C1015.09 319.259 1019.25 319.259 1021.17 319.567C1021.49 319.567 1021.8 319.567 1021.8 319.567C1023.72 319.875 1023.72 320.184 1023.72 321.108C1023.72 322.033 1023.72 322.341 1021.8 322.649C1021.8 322.649 1021.49 322.649 1021.17 322.649C1018.93 322.957 1015.09 322.957 1007.73 322.957C998.774 322.957 986.619 322.957 972.864 322.957Z" fill="black"/>
<path d="M1138.57 183.358C1138.57 183.358 1138.89 183.358 1139.53 183.05C1140.17 183.05 1141.13 182.433 1141.77 181.817C1142.09 181.509 1142.41 180.892 1142.73 180.276C1143.05 179.66 1142.73 178.735 1142.73 178.119C1142.73 176.578 1143.05 174.421 1141.45 172.88C1140.81 172.264 1139.85 171.647 1138.57 171.647C1137.29 171.647 1136.01 171.647 1134.73 171.647C1132.17 171.647 1129.29 171.647 1126.73 171.647C1120.97 171.647 1114.58 171.647 1108.18 171.647C1106.58 171.647 1104.98 172.572 1104.34 173.805C1104.02 174.421 1103.7 175.037 1104.02 175.962C1104.02 176.578 1104.02 177.503 1104.02 178.119C1104.02 178.735 1104.02 179.66 1104.02 180.276C1104.34 180.892 1104.66 181.509 1104.98 182.125C1105.62 182.741 1105.94 183.05 1106.9 183.05C1107.54 183.358 1108.18 183.358 1109.14 183.358C1114.9 183.358 1120.01 183.358 1124.49 183.358C1128.65 183.358 1132.17 183.358 1134.73 183.358C1136.01 183.358 1136.97 183.358 1137.61 183.358C1137.93 183.05 1138.25 183.05 1138.57 183.358C1138.25 183.358 1137.93 183.358 1137.61 183.358C1136.97 183.358 1136.01 183.358 1134.73 183.358C1132.17 183.358 1128.65 183.358 1124.49 183.358C1120.01 183.358 1114.9 183.358 1109.14 183.358C1108.5 183.358 1107.54 183.358 1106.9 183.05C1106.26 182.741 1105.62 182.433 1104.98 181.817C1104.34 181.201 1104.02 180.584 1103.7 179.968C1103.7 179.66 1103.7 179.352 1103.38 178.735C1103.38 178.427 1103.38 178.119 1103.38 177.503C1103.38 176.886 1103.38 175.962 1103.38 175.345C1103.38 174.421 1103.38 173.805 1104.02 172.88C1104.66 171.339 1106.58 170.415 1108.18 170.415C1114.9 170.415 1120.97 170.415 1126.73 170.415C1129.61 170.415 1132.49 170.415 1134.73 170.415C1136.01 170.415 1137.29 170.415 1138.57 170.415C1139.85 170.415 1140.81 171.031 1141.77 171.956C1142.41 172.88 1143.05 173.805 1143.05 174.729C1143.05 175.654 1143.05 176.578 1143.05 177.503C1143.05 178.427 1143.05 179.043 1142.73 179.968C1142.41 180.584 1142.09 181.201 1141.77 181.817C1140.81 182.741 1139.85 183.05 1139.21 183.05C1138.89 183.358 1138.57 183.358 1138.57 183.358Z" fill="#263238"/>
<path d="M1108.82 184.899C1108.18 184.899 1107.22 184.899 1106.58 184.591C1105.62 184.282 1104.66 183.666 1104.02 183.05C1103.38 182.125 1102.74 181.201 1102.42 180.276C1102.42 179.66 1102.1 179.352 1102.1 178.735V175.346C1102.1 174.421 1102.42 173.188 1102.74 172.264C1103.7 170.415 1105.94 168.874 1108.18 168.874H1136.33C1137.29 168.874 1137.93 168.874 1138.89 168.874C1140.49 168.874 1142.09 169.799 1143.05 171.031C1144.01 171.956 1144.64 173.497 1144.64 174.729V177.811C1144.64 178.427 1144.64 179.352 1144.33 180.276C1144.01 181.201 1143.69 181.817 1143.05 182.433C1142.09 183.358 1140.81 183.974 1140.17 184.282H1139.85C1139.53 184.282 1138.89 184.282 1138.89 184.282H1132.49H1109.46C1109.14 184.899 1109.14 184.899 1108.82 184.899ZM1109.14 181.509L1138.57 181.817C1138.57 181.817 1138.89 181.817 1139.21 181.817C1139.85 181.817 1140.17 181.509 1140.81 180.893C1141.13 180.584 1141.13 180.276 1141.45 179.968C1141.45 179.66 1141.45 179.044 1141.45 178.427V177.811C1141.45 177.503 1141.45 177.195 1141.45 176.578C1141.45 175.037 1141.45 174.421 1140.81 173.497C1140.17 172.88 1139.53 172.572 1138.89 172.572C1138.25 172.572 1137.61 172.572 1136.65 172.572H1108.5C1107.54 172.572 1106.58 173.188 1106.26 173.805C1105.94 174.113 1105.94 174.729 1105.94 175.346V178.119C1105.94 178.735 1105.94 179.044 1105.94 179.352C1105.94 179.66 1106.26 180.276 1106.58 180.584C1106.9 180.893 1107.22 181.201 1107.54 181.201C1108.18 181.509 1108.5 181.509 1109.14 181.509Z" fill="black"/>
<path d="M878.186 227.117H748.316V348.227H878.186V227.117Z" fill="#455A64"/>
<path d="M879.464 349.768H746.396V225.577H879.464V349.768ZM749.915 346.686H876.586V228.659H749.915V346.686Z" fill="black"/>
<g opacity="0.3">
<path d="M758.242 337.748L794.068 275.498L823.497 315.252L841.41 293.988L867.959 337.748H758.242Z" fill="black"/>
<path d="M870.835 339.289H755.68L794.065 272.725L823.813 312.787L841.726 291.523L870.835 339.289ZM761.118 336.208H865.397L841.406 296.762L823.813 317.718L794.704 278.272L761.118 336.208Z" fill="black"/>
</g>
<g opacity="0.3">
<path d="M835.949 263.481C835.949 268.411 831.791 272.417 826.673 272.417C821.555 272.417 817.396 268.411 817.396 263.481C817.396 258.55 821.555 254.544 826.673 254.544C831.791 254.236 835.949 258.242 835.949 263.481Z" fill="black"/>
<path d="M826.673 273.958C820.595 273.958 815.797 269.336 815.797 263.48C815.797 257.625 820.595 253.003 826.673 253.003C832.75 253.003 837.548 257.625 837.548 263.48C837.548 269.027 832.75 273.958 826.673 273.958ZM826.673 255.776C822.514 255.776 818.996 259.166 818.996 263.172C818.996 267.178 822.514 270.568 826.673 270.568C830.831 270.568 834.35 267.178 834.35 263.172C834.35 259.166 830.831 255.776 826.673 255.776Z" fill="black"/>
</g>
<g opacity="0.3">
<path d="M867.952 236.669C836.284 236.669 798.539 236.669 758.235 236.669C758.235 236.669 756.955 237.902 757.595 237.286V237.594V237.902V238.827V240.676V244.065C757.595 246.223 757.595 248.688 757.595 250.845C757.595 255.468 757.595 259.782 757.595 264.404C757.595 273.341 757.595 281.97 757.595 290.599C757.595 307.548 757.595 323.572 757.595 338.364V338.981H758.235C791.182 338.981 818.691 338.673 837.884 338.673C847.48 338.673 854.837 338.673 860.275 338.673C862.834 338.673 864.753 338.673 866.033 338.673C866.672 338.673 866.992 338.673 867.632 338.673C867.952 338.673 868.272 338.673 867.952 338.673C867.952 338.673 867.632 338.673 867.312 338.673C866.992 338.673 866.353 338.673 865.713 338.673C864.433 338.673 862.194 338.673 859.635 338.673C854.517 338.673 846.84 338.673 837.244 338.673C818.051 338.673 790.862 338.673 758.555 338.364C758.555 323.881 758.555 307.856 758.555 291.215C758.555 282.586 758.555 273.958 758.555 265.021C758.555 260.706 758.555 256.084 758.555 251.461C758.555 249.304 758.555 246.839 758.555 244.682V241.292V239.443V238.518V238.21C798.219 238.21 835.645 238.21 866.992 238.21C866.992 268.102 867.312 293.064 867.312 310.629C867.312 319.566 867.312 326.346 867.312 331.277C867.312 333.742 867.312 335.283 867.312 336.824C867.312 337.44 867.312 337.748 867.312 338.364C867.312 338.673 867.312 338.981 867.312 338.981C867.312 338.981 867.312 338.981 867.312 338.673C867.312 338.364 867.312 337.748 867.312 337.44C867.312 336.207 867.312 334.358 867.312 332.201C867.312 327.579 867.312 320.491 867.312 311.862C867.312 293.988 867.312 268.719 867.632 238.518V237.902L867.952 236.669Z" fill="black"/>
<path d="M755.998 340.214V238.211H754.719L755.359 237.594L756.318 236.362C756.638 236.054 756.958 235.745 757.278 235.437L759.197 233.896V235.129H870.194V255.468L869.874 337.749L870.194 338.057L869.874 338.981C869.874 339.289 869.554 339.598 869.234 339.598C869.234 339.598 868.914 339.598 868.914 339.906L867.955 340.214L867.635 339.906H855.799H838.206L755.998 340.214ZM760.477 335.9L866.355 336.208V330.353V309.705L866.035 238.827H760.796L760.477 335.9Z" fill="black"/>
</g>
<path d="M740.002 185.515C744.772 185.515 748.638 181.79 748.638 177.195C748.638 172.599 744.772 168.874 740.002 168.874C735.232 168.874 731.365 172.599 731.365 177.195C731.365 181.79 735.232 185.515 740.002 185.515Z" fill="#455A64"/>
<path d="M740.002 187.056C734.244 187.056 729.766 182.741 729.766 177.194C729.766 171.647 734.244 167.333 740.002 167.333C745.759 167.333 750.238 171.647 750.238 177.194C750.238 182.433 745.759 187.056 740.002 187.056ZM740.002 170.415C736.163 170.415 732.964 173.496 732.964 177.194C732.964 180.892 736.163 183.974 740.002 183.974C743.84 183.974 747.039 180.892 747.039 177.194C747.039 173.188 743.84 170.415 740.002 170.415Z" fill="black"/>
<path d="M1025.34 265.331C1025.34 265.639 1003.59 266.255 976.396 266.255C949.527 266.255 927.455 265.947 927.455 265.331C927.455 264.714 949.207 264.406 976.396 264.406C1003.59 264.406 1025.34 265.022 1025.34 265.331Z" fill="black"/>
<path d="M318.734 631.741L201.66 604.93C197.502 604.006 195.263 599.075 196.222 595.069L215.415 521.417C216.375 517.411 220.533 514.021 224.691 514.945L342.085 542.372C346.244 543.297 347.203 547.303 346.244 551.309L326.092 627.118C325.132 630.816 321.933 632.665 318.734 631.741Z" fill="#FAFAFA"/>
<path d="M317.777 631.433C317.777 631.433 319.377 632.05 322.256 631.125C323.535 630.509 325.135 629.584 326.094 627.735C326.734 626.811 326.734 625.886 327.054 624.654C327.374 623.421 327.694 622.188 328.013 620.956C330.892 610.17 334.731 595.07 339.529 575.963C340.808 571.341 342.088 566.41 343.367 561.171C344.007 558.706 344.647 555.932 345.287 553.159C345.607 551.926 346.246 550.385 346.246 549.153C346.246 547.92 345.926 546.687 345.287 545.455C344.647 544.222 343.367 543.298 342.408 542.989C341.128 542.373 339.529 542.373 338.25 541.757C335.371 541.14 332.172 540.524 328.973 539.6C322.895 538.059 316.498 536.826 309.781 535.285C283.871 529.43 255.082 522.959 225.014 515.871C221.495 514.946 217.977 517.103 216.697 520.493C215.737 524.191 214.778 527.581 213.818 530.971C211.899 538.059 210.3 544.838 208.38 551.618C204.862 565.177 201.343 578.429 198.144 590.755C197.824 592.296 197.185 593.837 196.865 595.378C196.545 596.919 196.545 598.459 196.865 599.692C197.185 600.925 198.144 602.157 199.424 603.082C200.703 604.006 201.983 604.006 203.582 604.623C209.66 606.164 215.737 607.396 221.495 608.629C233.011 611.402 243.886 613.868 253.803 616.025C273.315 620.647 289.309 624.345 300.504 626.811C305.942 628.043 310.101 629.276 313.299 629.892C314.579 630.201 315.858 630.509 316.498 630.817C317.138 631.433 317.777 631.433 317.777 631.433C317.777 631.433 317.458 631.433 316.498 631.125C315.538 630.817 314.579 630.817 313.299 630.509C310.42 629.892 305.942 628.968 300.504 627.735C289.309 625.27 273.315 621.572 253.803 617.258C243.886 615.1 233.011 612.635 221.495 609.862C215.737 608.629 209.66 607.088 203.582 605.855C201.983 605.547 200.383 605.239 198.784 604.315C197.185 603.39 196.225 601.849 195.585 600.308C194.946 598.768 194.946 596.919 195.585 595.378C195.905 593.837 196.545 592.296 196.865 590.755C200.064 578.12 203.582 565.177 207.101 551.618C209.02 544.838 210.619 537.751 212.539 530.971C213.498 527.581 214.458 523.883 215.418 520.185C216.697 516.179 221.175 513.714 225.334 514.638C255.402 521.418 284.191 528.198 310.101 534.053C316.498 535.593 322.895 537.134 328.973 538.367C332.172 538.983 335.051 539.908 338.25 540.524C339.849 540.832 341.128 541.14 342.728 541.757C344.327 542.373 345.607 543.606 346.246 544.838C347.206 546.071 347.526 547.612 347.526 549.153C347.526 550.694 346.886 551.926 346.566 553.467C345.926 556.241 345.287 558.706 344.327 561.479C343.048 566.718 341.768 571.649 340.489 576.271C335.371 595.07 331.212 610.478 328.653 620.956C328.333 622.188 328.014 623.421 327.694 624.654C327.374 625.886 327.054 626.811 326.414 628.043C325.454 629.892 323.535 631.125 322.256 631.433C320.976 632.05 319.697 632.05 318.737 631.741C318.097 631.741 317.777 631.433 317.777 631.433Z" fill="#455A64"/>
<path d="M278.109 566.719L291.544 579.662L273.311 584.901L255.078 590.448L259.876 572.266L264.674 554.084L278.109 566.719Z" fill="#455A64"/>
<path d="M240.044 838.828L148.24 875.808C137.045 880.122 124.57 875.192 119.771 864.714L23.4891 643.142C19.0108 632.357 24.1288 620.338 35.0046 615.716L126.809 578.736C138.004 574.421 150.479 579.352 155.278 589.83L251.88 811.401C256.358 822.187 250.92 834.514 240.044 838.828Z" fill="#263238"/>
<path d="M129.999 586.747L112.406 593.835C110.167 594.76 108.887 597.533 109.847 599.998L111.126 603.08C112.086 605.545 111.127 608.319 108.568 609.243L74.021 623.111C71.7819 624.035 68.903 622.803 67.9434 620.646L66.6639 617.564C65.7043 615.099 62.8254 613.866 60.5863 615.099L54.1888 617.564L38.5149 623.727C30.8379 626.809 26.9994 635.438 30.518 642.834L124.561 858.858C127.76 866.254 136.716 869.952 144.393 866.562L235.878 829.582C243.555 826.501 247.393 817.872 243.875 810.476L149.831 594.143C146.633 587.055 137.676 583.357 129.999 586.747Z" fill="#FAFAFA"/>
<path d="M142.461 608.011C142.461 608.011 140.222 608.935 137.343 610.168C140.222 608.627 142.461 607.703 142.461 608.011Z" fill="#263238"/>
<path d="M143.756 610.476C143.756 610.476 141.516 611.4 138.638 612.633C141.197 611.4 143.756 610.476 143.756 610.476Z" fill="#263238"/>
<path d="M51.9466 653.929C52.2665 653.621 52.5864 653.621 52.5864 653.621C53.2261 653.313 53.8658 653.005 54.8255 652.697C54.5056 652.08 54.5056 651.772 54.1857 651.156C54.1857 650.848 53.8658 650.539 53.8658 650.231C53.8658 649.923 53.8659 649.615 54.1857 649.307C54.5056 649.307 54.8255 648.999 55.1453 648.999C55.4652 648.999 56.105 648.999 56.105 649.615C56.4248 650.231 56.7447 651.156 57.0646 651.772C58.0242 651.464 58.9838 651.156 59.9435 650.539C59.3037 649.615 58.9838 648.382 58.3441 647.15C58.3441 646.841 58.0242 646.533 58.0242 646.225C58.0242 645.917 57.7044 645.917 57.3845 645.609C56.7447 645.301 56.105 645.301 55.7851 644.992C55.1454 644.684 54.8255 644.684 54.1857 644.376C53.8659 644.376 53.546 644.068 53.2261 644.068C52.9062 644.068 52.5864 643.76 52.5864 643.76C52.2665 643.76 52.2665 644.068 51.9466 644.068C51.9466 644.376 51.6267 644.684 51.6267 644.684C51.3068 645.301 51.3069 645.609 50.987 645.917C50.6671 646.841 50.3472 647.766 50.0273 648.382C50.0273 648.69 50.3472 648.999 50.3472 649.307C50.3472 649.615 50.6671 649.923 50.6671 650.231C50.987 650.848 50.987 651.464 51.3068 651.772C51.6267 652.08 51.6267 652.388 51.6267 652.697C51.9466 653.621 51.9466 653.929 51.9466 653.929C51.9466 653.929 51.9466 653.929 51.9466 653.621C51.9466 653.313 51.6267 653.005 51.6267 652.697C51.3068 652.388 51.3069 651.772 50.987 651.156C50.987 650.848 50.6671 650.539 50.6671 650.231C50.6671 649.923 50.6671 649.923 50.3472 649.615C50.3472 649.307 50.3472 649.307 50.3472 648.999C50.6671 648.074 50.987 647.458 51.3068 646.533C51.6267 646.225 51.6267 645.609 51.9466 645.301C51.9466 644.992 52.2665 644.684 52.2665 644.684C52.2665 644.376 52.5863 644.376 52.9062 644.068C53.2261 644.068 53.546 644.068 53.8658 644.376C54.1857 644.376 54.5056 644.684 54.8255 644.684C55.4652 644.992 55.7851 644.992 56.4248 645.301C57.0646 645.609 57.7043 645.609 58.0242 645.917C58.0242 645.917 58.3441 645.917 58.3441 646.225L58.664 646.533C58.664 646.841 58.9839 647.15 58.9839 647.458C59.6236 648.69 59.9435 649.615 60.5832 650.848C59.6236 651.156 58.664 651.772 57.7043 652.08C57.3845 651.156 57.0646 650.539 56.7447 649.923C56.7447 649.615 56.105 649.307 55.7851 649.615C55.4652 649.615 55.1453 649.923 54.8255 649.923C54.5056 649.923 54.5056 650.539 54.5056 650.539C54.5056 650.848 54.8255 651.156 54.8255 651.464C55.1453 652.08 55.1453 652.388 55.4652 653.005C54.5056 653.313 53.8658 653.621 53.2261 653.929C52.5863 653.621 52.2665 653.621 51.9466 653.929Z" fill="#263238"/>
<path d="M151.433 649.615C151.433 649.615 151.753 649.615 152.072 649.306C152.392 648.998 153.032 648.69 153.672 648.382C154.312 647.766 154.951 647.149 155.591 646.225C156.231 645.3 156.551 644.068 156.551 642.527C156.551 641.911 156.551 640.986 156.231 640.37C155.911 639.753 155.591 638.829 155.271 637.904C154.951 636.98 154.631 636.364 153.992 635.439C153.352 634.515 152.712 633.898 152.072 633.282C150.473 632.049 147.914 631.433 145.675 632.049C144.395 632.357 143.436 632.974 142.156 633.282C140.877 633.898 139.917 634.206 138.638 634.823C118.805 642.835 91.616 653.929 61.5478 665.947C59.6285 666.564 58.3491 668.105 57.3894 669.954C56.4298 671.803 56.4298 673.652 57.0695 675.501C57.3894 676.425 57.7093 677.35 58.0292 678.274C58.3491 679.199 58.6689 680.123 59.3087 680.74C60.5882 682.28 62.1876 683.205 64.1068 683.513C65.0664 683.821 66.0261 683.821 66.9857 683.513C67.9453 683.513 68.9049 682.897 69.5447 682.588C71.144 681.972 73.0633 681.048 74.6627 680.431C78.1813 679.199 81.3801 677.658 84.5788 676.425C97.6937 671.186 109.209 666.564 119.125 662.558C129.041 658.552 137.038 655.47 142.476 653.313C145.355 652.08 147.274 651.464 148.874 650.847C149.513 650.539 150.153 650.231 150.473 650.231C151.113 649.615 151.433 649.615 151.433 649.615C151.433 649.615 151.113 649.615 150.793 649.923C150.473 650.231 149.833 650.231 149.194 650.539C147.594 651.155 145.675 652.08 142.796 653.004C137.358 655.162 129.361 658.552 119.445 662.558C109.529 666.564 98.0135 671.186 84.8987 676.733C81.6999 677.966 78.1813 679.507 74.9826 680.74C73.3832 681.356 71.4639 682.28 69.8645 682.897C68.9049 683.205 67.9453 683.513 66.9857 683.821C66.0261 684.129 65.0664 684.129 64.1068 683.821C62.1876 683.513 60.2683 682.588 58.9888 681.048C58.3491 680.431 58.0292 679.507 57.3894 678.582C57.0696 677.658 56.7497 676.733 56.1099 675.809C55.4702 673.96 55.4702 671.803 56.4298 669.954C57.3894 668.105 58.9888 666.564 60.9081 665.947C90.9763 653.929 118.166 642.835 137.998 634.823C139.277 634.206 140.557 633.898 141.517 633.282C142.796 632.974 143.756 632.357 145.035 632.049C147.594 631.433 149.833 632.049 151.433 633.282C152.392 633.898 153.032 634.515 153.672 635.439C154.312 636.364 154.631 636.98 154.951 637.904C155.271 638.829 155.591 639.445 155.911 640.37C156.231 641.294 156.231 641.911 156.231 642.527C156.231 644.068 155.591 645.3 155.271 646.225C154.631 647.149 153.992 647.766 153.352 648.382C152.712 648.998 152.072 648.998 151.753 649.306C151.433 649.615 151.433 649.615 151.433 649.615Z" fill="#263238"/>
<path d="M148.857 640.061C148.857 640.061 148.857 639.753 148.218 639.445C147.898 639.137 147.258 638.521 146.298 638.212C145.339 637.904 144.059 638.212 143.1 639.137C142.14 640.061 141.82 641.294 142.46 642.835C143.1 644.068 144.379 644.992 145.659 644.684C146.938 644.684 147.898 643.759 148.537 643.143C149.177 642.219 149.177 641.602 148.857 640.986C148.857 640.37 148.857 640.061 148.857 640.061C149.177 640.37 149.177 640.678 149.177 640.986C149.177 641.602 149.177 642.219 148.857 643.143C148.537 644.068 147.258 644.992 145.978 644.992C144.699 644.992 143.1 644.376 142.46 642.835C141.82 641.294 142.46 639.753 143.419 638.829C144.379 637.904 145.978 637.904 146.938 637.904C147.898 638.212 148.537 638.829 148.857 639.137C148.857 639.753 148.857 639.753 148.857 640.061Z" fill="#263238"/>
<path d="M153.022 644.686C153.022 644.686 152.062 644.378 150.783 644.07C149.503 643.453 148.863 643.145 148.863 642.837C148.863 642.837 149.823 643.145 151.102 643.453C152.062 644.07 153.022 644.686 153.022 644.686Z" fill="#263238"/>
<path d="M69.8685 670.571L68.2691 671.187L67.9492 670.879L72.1076 669.338L72.4275 669.646L70.8281 670.263L72.7473 674.577L72.1076 674.885L69.8685 670.571Z" fill="#263238"/>
<path d="M76.9014 670.877L73.7026 672.11C74.0225 672.726 74.9821 673.034 75.6219 672.726C75.9418 672.418 76.2616 672.11 76.5815 671.802L76.9014 672.11C76.5815 672.726 76.2616 673.034 75.6219 673.342C74.3424 673.959 73.3827 673.343 72.743 672.418C72.4231 671.494 72.743 670.261 73.7026 669.953C75.302 669.336 76.2616 669.645 76.9014 670.877ZM73.7026 671.802L76.2616 670.877C75.9417 670.261 75.302 669.953 74.3424 670.261C73.7026 670.261 73.3828 671.185 73.7026 671.802Z" fill="#263238"/>
<path d="M81.0559 671.184L79.1367 670.26L78.497 672.109L77.8572 672.417L78.497 669.952L76.2578 668.719L76.8976 668.411L78.497 669.335L79.1367 667.486L79.7765 667.178L79.1367 669.644L81.3758 670.876L81.0559 671.184Z" fill="#263238"/>
<path d="M84.2697 669.645C84.2697 669.953 83.9498 669.953 83.6299 670.261C82.9902 670.569 82.3504 670.261 82.0306 669.645L81.0709 667.487L80.4312 667.796L80.1113 667.487L80.7511 667.179L80.4312 666.255L81.0709 665.947L81.3908 666.871L82.6703 666.563L82.9902 666.871L81.7107 667.179L82.6703 669.336C82.9902 669.645 83.3101 669.953 83.6299 669.645C83.9498 669.645 83.9498 669.336 83.9498 669.336L84.2697 669.645Z" fill="#263238"/>
<path d="M92.6021 690.014L71.3652 698.598L80.2759 719.058L101.513 710.473L92.6021 690.014Z" fill="#263238"/>
<path d="M92.6021 690.014L71.3652 698.598L80.2759 719.058L101.513 710.473L92.6021 690.014Z" fill="#FF0000"/>
<path d="M134.798 675.5C134.798 675.5 127.761 678.581 118.804 681.971C109.848 685.669 102.811 688.443 102.811 688.134C102.811 688.134 109.848 685.053 118.804 681.663C127.761 678.273 134.798 675.5 134.798 675.5Z" fill="#263238"/>
<path d="M162.953 671.493C162.953 671.493 150.158 676.732 134.484 683.204C118.49 689.675 105.695 694.606 105.695 694.606C105.695 694.606 118.49 689.367 134.164 682.896C150.158 676.424 162.953 671.493 162.953 671.493Z" fill="#263238"/>
<path d="M164.223 676.423C164.223 676.423 151.748 681.661 136.074 688.133C120.4 694.604 107.605 699.535 107.605 699.535C107.605 699.535 120.081 694.296 135.754 687.825C151.748 681.353 164.223 676.114 164.223 676.423Z" fill="#263238"/>
<path d="M143.106 689.984C143.106 689.984 135.749 693.066 126.473 697.072C117.197 700.77 109.839 703.852 109.52 703.544C109.52 703.544 116.877 700.462 126.153 696.456C135.429 692.758 143.106 689.984 143.106 689.984Z" fill="#263238"/>
<path d="M107.653 724.154L86.416 732.738L95.3267 753.198L116.564 744.613L107.653 724.154Z" fill="#FF0000"/>
<path d="M149.831 709.707C149.831 709.707 142.794 712.789 133.837 716.179C124.881 719.877 117.844 722.65 117.844 722.342C117.844 722.342 124.881 719.26 133.837 715.871C142.474 712.481 149.831 709.707 149.831 709.707Z" fill="#263238"/>
<path d="M177.982 705.702C177.982 705.702 165.187 710.941 149.513 717.412C133.52 723.884 120.725 728.814 120.725 728.814C120.725 728.814 133.52 723.575 149.193 717.104C165.187 710.941 177.982 705.702 177.982 705.702Z" fill="#263238"/>
<path d="M179.255 710.632C179.255 710.632 166.779 715.871 151.106 722.342C135.432 728.814 122.637 733.744 122.637 733.744C122.637 733.744 135.112 728.506 150.786 722.034C166.46 715.563 179.255 710.632 179.255 710.632Z" fill="#263238"/>
<path d="M157.833 724.19C157.833 724.19 150.476 727.272 141.199 731.278C131.923 734.976 124.566 738.058 124.246 737.75C124.246 737.75 131.603 734.668 140.88 730.662C150.476 727.272 157.833 724.19 157.833 724.19Z" fill="#263238"/>
<path d="M122.641 758.329L101.404 766.913L110.315 787.373L131.552 778.788L122.641 758.329Z" fill="#FF0000"/>
<path d="M164.87 744.223C164.87 744.223 157.833 747.305 148.877 750.694C139.92 754.392 132.883 757.166 132.883 756.858C132.883 756.858 139.92 753.776 148.877 750.386C157.513 746.688 164.87 743.915 164.87 744.223Z" fill="#263238"/>
<path d="M193.033 740.215C193.033 740.215 180.238 745.454 164.564 751.925C148.57 758.397 135.775 763.328 135.775 763.328C135.775 763.328 148.57 758.089 164.244 751.617C179.918 745.146 193.033 739.907 193.033 740.215Z" fill="#263238"/>
<path d="M194.294 744.839C194.294 744.839 181.819 750.078 166.145 756.549C150.471 763.021 137.676 767.952 137.676 767.952C137.676 767.952 150.151 762.713 165.825 756.241C181.499 749.77 194.294 744.839 194.294 744.839Z" fill="#263238"/>
<path d="M172.86 758.707C172.86 758.707 165.503 761.788 156.227 765.794C146.95 769.492 139.593 772.574 139.273 772.266C139.273 772.266 146.631 769.184 155.907 765.178C165.183 761.48 172.86 758.398 172.86 758.707Z" fill="#263238"/>
<path d="M137.463 792.907L116.227 801.491L125.137 821.951L146.374 813.366L137.463 792.907Z" fill="#FF0000"/>
<path d="M179.585 778.429C179.585 778.429 172.548 781.511 163.591 784.901C154.635 788.599 147.598 791.372 147.598 791.064C147.598 791.064 154.635 787.982 163.591 784.593C172.548 781.203 179.585 778.429 179.585 778.429Z" fill="#263238"/>
<path d="M207.736 774.424C207.736 774.424 194.941 779.663 179.267 786.135C163.274 792.606 150.479 797.537 150.479 797.537C150.479 797.537 163.274 792.298 178.947 785.826C194.941 779.355 207.736 774.424 207.736 774.424Z" fill="#263238"/>
<path d="M209.325 779.047C209.325 779.047 196.85 784.286 181.176 790.757C165.502 797.229 152.707 802.16 152.707 802.16C152.707 802.16 165.182 796.921 180.856 790.449C196.53 784.286 209.005 779.047 209.325 779.047Z" fill="#263238"/>
<path d="M187.89 792.913C187.89 792.913 180.532 795.995 171.256 800.001C161.98 803.699 154.623 806.781 154.303 806.472C154.303 806.472 161.66 803.391 170.936 799.385C180.213 795.687 187.89 792.913 187.89 792.913Z" fill="#263238"/>
<path d="M152.432 827.089L131.195 835.674L140.106 856.133L161.343 847.549L152.432 827.089Z" fill="#E0E0E0"/>
<path d="M194.62 812.636C194.62 812.636 187.583 815.718 178.627 819.108C169.67 822.806 162.633 825.579 162.633 825.271C162.633 825.271 169.67 822.189 178.627 818.8C187.263 815.41 194.62 812.636 194.62 812.636Z" fill="#E0E0E0"/>
<path d="M222.762 808.629C222.762 808.629 209.967 813.868 194.293 820.339C178.299 826.811 165.504 831.742 165.504 831.742C165.504 831.742 178.299 826.503 193.973 820.031C209.967 813.56 222.762 808.629 222.762 808.629Z" fill="#E0E0E0"/>
<path d="M224.055 813.56C224.055 813.56 211.58 818.798 195.906 825.27C180.233 831.741 167.438 836.672 167.438 836.672C167.438 836.672 179.913 831.433 195.587 824.962C211.26 818.49 224.055 813.251 224.055 813.56Z" fill="#E0E0E0"/>
<path d="M202.626 827.119C202.626 827.119 195.269 830.2 185.992 834.206C176.716 837.904 169.359 840.986 169.039 840.678C169.039 840.678 176.396 837.596 185.673 833.59C195.269 829.892 202.626 827.119 202.626 827.119Z" fill="#E0E0E0"/>
<g opacity="0.3">
<path d="M137.395 792.941L116.158 801.526L125.069 821.985L146.306 813.401L137.395 792.941Z" fill="black"/>
</g>
<g opacity="0.3">
<path d="M107.653 724.154L86.416 732.738L95.3267 753.198L116.564 744.613L107.653 724.154Z" fill="black"/>
</g>
<path d="M916.89 493.683L877.865 616.333C888.741 628.968 900.257 641.294 920.409 647.458L1017.33 673.036L1054.76 528.197L916.89 493.683Z" fill="#E0E0E0"/>
<path d="M912.087 485.67L873.062 608.012L915.286 639.137L1012.21 664.715L1055.07 526.348L912.087 485.67Z" fill="#FF0000"/>
<path d="M891.935 603.081L873.062 608.012C873.062 608.012 878.82 619.106 887.777 625.577C896.733 632.049 905.69 636.363 915.606 639.137C915.286 639.137 894.814 626.81 891.935 603.081Z" fill="#FF0000"/>
<g opacity="0.3">
<path d="M891.935 603.081C884.258 607.087 875.941 612.018 873.062 608.012C873.062 608.012 878.82 619.106 887.777 625.577C896.733 632.049 905.69 636.363 915.606 639.137C915.286 639.137 894.814 626.81 891.935 603.081Z" fill="black"/>
</g>
<path d="M894.499 510.939L963.912 497.072L960.713 482.896L890.66 495.839L894.499 510.939Z" fill="#E0E0E0"/>
<path d="M1063.39 561.171L1025.01 503.852L1012.53 511.556L1050.28 570.108L1063.39 561.171Z" fill="#E0E0E0"/>
<path d="M1025.65 565.486C1025.65 565.794 1001.02 559.014 971.267 550.385C941.199 541.757 916.889 534.669 916.889 534.361C916.889 534.053 941.519 540.832 971.267 549.461C1001.66 558.09 1025.97 565.486 1025.65 565.486Z" fill="#263238"/>
<path d="M1019.57 584.283C1019.57 584.591 994.94 577.811 965.191 569.183C935.123 560.554 910.812 553.466 910.812 553.158C910.812 552.85 935.443 559.63 965.191 568.258C995.259 576.887 1019.57 584.283 1019.57 584.283Z" fill="#263238"/>
<path d="M1015.09 601.232C1015.09 601.54 990.463 594.761 960.715 586.132C930.646 577.503 906.336 570.415 906.336 570.107C906.336 569.799 930.966 576.579 960.715 585.207C990.783 593.836 1015.09 600.924 1015.09 601.232Z" fill="#263238"/>
<path d="M1009.98 617.257C1009.98 617.565 985.348 610.786 955.599 602.157C925.531 593.528 901.221 586.441 901.221 586.132C901.221 585.824 925.851 592.604 955.599 601.233C985.668 610.169 1009.98 617.257 1009.98 617.257Z" fill="#263238"/>
<path d="M499.409 0.0114334L497.457 98.605L625.381 100.956L627.334 2.36253L499.409 0.0114334Z" fill="#EBEBEB"/>
<path d="M627.412 2.46533C627.412 2.46533 627.092 2.46533 626.772 2.46533C626.452 2.46533 625.812 2.46533 624.853 2.46533C623.253 2.46533 621.014 2.46533 617.815 2.46533C611.738 2.46533 602.781 2.15717 591.586 2.15717C569.195 1.849 537.207 1.23267 499.142 0.616335L499.462 0.308174C498.822 29.584 498.182 63.1741 497.543 98.9214L497.223 98.6133C544.564 99.5378 588.707 100.462 625.173 101.079L624.853 101.387C625.492 71.8028 626.132 47.1495 626.452 29.8922C626.772 21.2635 626.772 14.4838 626.772 9.86133C626.772 7.70416 626.772 5.85516 626.772 4.6225C627.412 3.08166 627.412 2.46533 627.412 2.46533C627.412 2.46533 627.412 3.08167 627.412 4.31434C627.412 5.547 627.412 7.396 627.412 9.55317C627.412 14.1757 627.092 20.9553 627.092 29.584C626.772 46.8413 626.452 71.4946 625.812 101.079V101.387H625.492C589.027 100.77 544.884 99.8459 497.543 99.2296H497.223V98.9214C497.862 63.4823 498.502 29.8922 499.142 0.308174V0H499.462C537.527 0.616333 569.514 1.54084 591.906 1.84901C603.101 2.15717 612.058 2.15716 618.135 2.46533C621.014 2.46533 623.573 2.46534 625.173 2.7735C625.812 2.7735 626.452 2.7735 626.772 2.7735C627.092 2.46534 627.412 2.46533 627.412 2.46533Z" fill="#263238"/>
<path d="M503.686 6.48598L501.984 92.4473L620.954 94.6336L622.656 8.67228L503.686 6.48598Z" fill="#FF0000"/>
<g opacity="0.3">
<path d="M502.012 92.4489L544.555 39.7524L569.825 73.6508L587.418 56.0853L621.005 94.6061L502.012 92.4489Z" fill="black"/>
</g>
<g opacity="0.3">
<path d="M581.339 33.8998C581.339 38.8304 576.861 42.8366 571.743 42.8366C566.625 42.8366 562.467 38.5223 562.467 33.5916C562.467 28.661 566.945 24.6548 572.063 24.6548C577.501 24.6548 581.339 28.9691 581.339 33.8998Z" fill="black"/>
</g>
<path d="M529.012 47.8778L337.314 71.0327L356.534 218.716L548.232 195.561L529.012 47.8778Z" fill="#EBEBEB"/>
<path d="M529.229 48.0714C529.229 48.0714 528.909 48.0714 528.269 48.0714C527.629 48.0714 526.67 48.3796 525.71 48.3796C523.471 48.6877 519.952 48.9959 515.154 49.6122C506.198 50.8449 492.763 52.3857 475.81 54.5429C442.223 58.5491 394.242 64.4042 337.304 71.4921L337.624 70.8757C343.381 114.944 350.099 165.175 356.816 218.487L356.176 217.871C427.189 209.242 493.083 201.23 548.101 194.759L547.781 195.375C542.024 150.999 537.226 114.019 534.027 88.1331C532.427 75.1901 531.148 65.0206 530.188 58.2409C529.868 54.8511 529.549 52.0776 529.229 50.2286C529.229 48.9959 529.229 48.0714 529.229 48.0714C529.229 48.0714 529.229 48.9959 529.549 50.8449C529.868 52.6939 530.188 55.1592 530.508 58.5491C531.468 65.3287 532.747 75.4982 534.667 88.4412C538.185 114.327 542.983 151.307 548.741 195.683V195.991H548.421C493.723 202.771 427.509 210.783 356.496 219.104H355.857V218.487C348.819 165.175 342.422 114.635 336.664 70.8757V70.2594H337.304C394.242 63.4797 442.223 57.6246 476.129 53.6184C493.083 51.7694 506.198 50.2286 515.154 48.9959C519.632 48.3796 523.151 48.0714 525.39 47.7632C526.67 47.7632 527.309 47.4551 527.949 47.4551C528.909 48.0714 529.229 48.0714 529.229 48.0714Z" fill="#263238"/>
<path d="M523.58 58.1481L345.213 79.6929L362.005 208.725L540.373 187.18L523.58 58.1481Z" fill="#FF0000"/>
<g opacity="0.4">
<path d="M361.916 208.936L413.736 121.108L458.838 166.409L481.549 136.517L540.406 187.364L361.916 208.936Z" fill="black"/>
</g>
<g opacity="0.4">
<path d="M467.447 104.469C468.406 111.865 462.968 118.645 455.291 119.569C447.614 120.494 440.577 115.255 439.618 107.859C438.658 100.463 444.096 93.6831 451.773 92.7586C459.45 91.8341 466.487 97.0729 467.447 104.469Z" fill="black"/>
</g>
<path d="M361.258 50.5391L327.031 93.6824L335.028 105.701L375.332 55.7779L361.258 50.5391Z" fill="#E0E0E0"/>
<path d="M552.551 162.096L518.324 205.548L526.321 217.258L566.625 167.643L552.551 162.096Z" fill="#E0E0E0"/>
</svg>
