<svg width="40" height="47" viewBox="0 0 40 47" fill="none" xmlns="http://www.w3.org/2000/svg">
<path d="M13.5409 3.5835C13.5409 3.5835 13.0308 12.317 20.5733 18.1064C25.6499 22.0041 31.1022 21.1986 31.1022 21.1986C31.1022 21.1986 25.3009 19.8545 21.0547 15.1442C16.8085 10.4339 22.6233 10.2377 23.2065 2.72046C23.2065 2.72046 19.9831 9.11786 17.3853 8.88216C15.182 8.67885 13.5409 3.5835 13.5409 3.5835Z" fill="#FF0000"/>
<path d="M18.3301 16.9168C19.5035 20.449 20.4198 23.0389 25.1425 27.9585C23.8244 25.3258 22.7898 22.5604 22.0563 19.709C20.641 19.0352 19.3742 18.0859 18.3301 16.9168Z" fill="#FF0000"/>
<path d="M18.8049 6.70271C18.6823 7.71957 18.0084 8.47295 17.3011 8.38504C16.5939 8.29713 16.1223 7.40635 16.2475 6.39071C16.3728 5.37508 17.044 4.62047 17.7513 4.70838C18.4586 4.79629 18.9302 5.68707 18.8049 6.70271Z" fill="#FF0000"/>
<path d="M10.2893 4.76704C10.2893 4.76704 16.2938 11.1294 14.2392 20.4118C12.8537 26.6616 8.15928 29.5492 8.15928 29.5492C8.15928 29.5492 11.7394 24.7905 11.9645 18.4528C12.1895 12.1151 7.60899 15.7026 2.33022 10.3189C2.33022 10.3189 8.91169 13.1476 10.7502 11.2972C12.3073 9.72524 10.2893 4.76704 10.2893 4.76704Z" fill="#FF3333"/>
<path d="M15.1911 18.0594C16.5627 21.5196 17.5256 24.0925 17.072 30.8961C16.388 28.0325 15.4023 25.2494 14.1315 22.5936C14.7826 21.1677 15.1428 19.6262 15.1911 18.0594Z" fill="#FF3333"/>
<path d="M8.2617 10.5399C9.00925 11.24 10.0097 11.384 10.495 10.862C10.9803 10.3401 10.769 9.35455 10.0202 8.65705C9.27142 7.95954 8.2722 7.81291 7.78689 8.33489C7.30159 8.85687 7.51291 9.84238 8.2617 10.5399Z" fill="#FF3333"/>
<path fill-rule="evenodd" clip-rule="evenodd" d="M29.9102 27.9788C36.7776 21.4956 37.6716 13.0098 31.9052 9.02368C31.7979 8.9499 31.6886 8.87708 31.5775 8.80713C32.1618 9.07691 32.7221 9.39586 33.2524 9.76054C39.565 14.1251 38.5867 23.4168 31.0668 30.5151C23.5468 37.6135 12.332 39.8298 6.01942 35.4662C0.404371 31.5845 0.557683 23.803 5.95235 17.1358C2.05535 22.885 2.28915 29.2197 7.03511 32.5005C12.8006 36.4857 23.0418 34.462 29.9102 27.9788Z" fill="url(#paint0_linear_653_1456)"/>
<path fill-rule="evenodd" clip-rule="evenodd" d="M7.21055 37.1035C14.6136 42.2212 27.2494 40.3681 35.4324 32.9641C37.3881 31.1933 38.9135 29.2664 40.0001 27.2877C38.9222 29.8327 37.1303 32.3422 34.639 34.5968C26.456 42.0008 13.8202 43.854 6.41716 38.7363C0.782951 34.8421 -0.194412 28.0332 3.2599 21.7378C0.798283 27.5493 2.06119 33.5438 7.21055 37.1035Z" fill="url(#paint1_linear_653_1456)"/>
<path fill-rule="evenodd" clip-rule="evenodd" d="M6.81472 40.8935C15.3523 46.796 28.7575 46.3131 37.4302 39.9746C29.6438 47.6009 16.184 48.8149 7.3149 42.6844C2.50569 39.3604 0.0325788 34.555 0 29.6279C0.21847 33.8392 2.49419 37.9077 6.81472 40.8935Z" fill="url(#paint2_linear_653_1456)"/>
<path fill-rule="evenodd" clip-rule="evenodd" d="M10.1761 19.1807C6.34327 23.7609 6.17463 29.1747 10.0525 31.8548C10.133 31.9104 10.2144 31.964 10.2968 32.0167C9.86185 31.8161 9.44508 31.5782 9.05114 31.3057C4.84369 28.3976 4.9855 22.5488 9.0751 17.5623C9.43794 18.1046 9.80525 18.6441 10.177 19.1807H10.1761ZM24.1974 10.5186C26.1272 10.6335 27.9008 11.1692 29.3343 12.16C33.5169 15.0508 33.4028 20.847 29.3841 25.8133C32.2875 21.5292 32.1131 16.813 28.5783 14.3686C27.369 13.533 25.8953 13.052 24.2884 12.8997C24.2437 12.1069 24.2134 11.3132 24.1974 10.5186Z" fill="#FF6666"/>
<defs>
<linearGradient id="paint0_linear_653_1456" x1="1.857" y1="23.2549" x2="37.4129" y2="23.2549" gradientUnits="userSpaceOnUse">
<stop stop-color="#FF6666"/>
<stop offset="1" stop-color="#FF6666"/>
</linearGradient>
<linearGradient id="paint1_linear_653_1456" x1="1.25247" y1="31.6839" x2="40.0001" y2="31.6839" gradientUnits="userSpaceOnUse">
<stop stop-color="#FF6666"/>
<stop offset="0.54" stop-color="#FF3333"/>
<stop offset="1" stop-color="#FF0000"/>
</linearGradient>
<linearGradient id="paint2_linear_653_1456" x1="0" y1="38.1099" x2="37.4301" y2="38.1099" gradientUnits="userSpaceOnUse">
<stop stop-color="#FF6666"/>
<stop offset="0.54" stop-color="#FF3333"/>
<stop offset="1" stop-color="#FF0000"/>
</linearGradient>
</defs>
</svg>
